M48
; DRILL file KiCad 10.0.1 date 2026-09-27T15:05:58
; FORMAT={-:-/ absolute / inch / decimal}
; #@! TF.CreationDate,2026-09-27T15:05:58-04:00
; #@! TF.GenerationSoftware,Kicad,Pcbnew,10.0.1
; #@! TF.FileFunction,Plated,1,4,PTH
FMAT,2
INCH
; #@! TA.AperFunction,Plated,PTH,ViaDrill
T1C0.0098
; #@! TA.AperFunction,Plated,PTH,ViaDrill
T2C0.0197
; #@! TA.AperFunction,Plated,PTH,ComponentDrill
T3C0.0236
; #@! TA.AperFunction,Plated,PTH,ComponentDrill
T4C0.0256
; #@! TA.AperFunction,Plated,PTH,ComponentDrill
T5C0.0394
%
G90
G05
T1
X5.1555Y-3.2815
X5.1575Y-3.5768
X5.1575Y-4.7776
X5.1594Y-3.8799
X5.1614Y-4.1811
X5.2913Y-4.9488
X5.3031Y-3.5118
X5.3122Y-4.6932
X5.3189Y-3.2598
X5.3191Y-3.5551
X5.3228Y-3.4016
X5.3228Y-3.6614
X5.325Y-3.05
X5.3307Y-3.4843
X5.3334Y-4.4158
X5.3386Y-3.3543
X5.3405Y-3.2281
X5.3465Y-2.9134
X5.3465Y-3.1299
X5.3661Y-3.2283
X5.3662Y-4.4763
X5.3786Y-5.0554
X5.3937Y-4.1969
X5.3953Y-4.4788
X5.3976Y-3.0827
X5.4055Y-3.4134
X5.4113Y-4.2442
X5.4252Y-4.7106
X5.4262Y-4.2894
X5.427Y-3.1102
X5.4331Y-3.5
X5.4362Y-3.2252
X5.437Y-3.3898
X5.4449Y-3.8425
X5.4488Y-4.311
X5.4504Y-3.2736
X5.4547Y-4.5295
X5.4557Y-4.8976
X5.4646Y-3.5984
X5.4764Y-3.8189
X5.4764Y-4.5335
X5.4764Y-4.5945
X5.4803Y-3.8701
X5.4803Y-3.9803
X5.4961Y-4.5551
X5.4989Y-4.3415
X5.4992Y-4.3158
X5.4992Y-4.3701
X5.5098Y-4.8937
X5.51Y-3.2226
X5.5118Y-3.3898
X5.5231Y-3.721
X5.5252Y-3.2731
X5.5276Y-4.0924
X5.5276Y-4.1181
X5.5354Y-4.0512
X5.5394Y-3.8189
X5.5413Y-4.6634
X5.5433Y-3.8701
X5.5433Y-4.374
X5.5433Y-4.5709
X5.547Y-3.3425
X5.5512Y-2.9803
X5.562Y-4.8927
X5.563Y-3.7795
X5.5748Y-3.0428
X5.5748Y-3.6024
X5.5748Y-3.9843
X5.5788Y-3.672
X5.5866Y-3.3898
X5.5906Y-4.3701
X5.5921Y-3.841
X5.5945Y-4.5827
X5.5977Y-3.7626
X5.6096Y-3.4011
X5.6142Y-3.248
X5.6142Y-3.315
X5.6181Y-3.1811
X5.6188Y-3.7772
X5.6211Y-4.313
X5.6254Y-4.2361
X5.6306Y-3.3582
X5.6378Y-3.2756
X5.6378Y-3.9055
X5.6378Y-4.7165
X5.6457Y-4.0551
X5.663Y-4.1969
X5.6633Y-3.3845
X5.6654Y-3.6024
X5.6654Y-4.8661
X5.6693Y-3.1575
X5.6693Y-3.7047
X5.6732Y-4.0709
X5.689Y-3.0157
X5.689Y-4.6417
X5.6898Y-3.297
X5.6969Y-3.9606
X5.6984Y-3.4196
X5.7047Y-3.4882
X5.7094Y-3.3896
X5.7119Y-4.6035
X5.716Y-3.6063
X5.728Y-3.6496
X5.7283Y-4.7205
X5.7307Y-4.622
X5.7323Y-3.378
X5.7389Y-3.1845
X5.7392Y-4.6684
X5.748Y-4.189
X5.7571Y-3.3848
X5.7657Y-4.1575
X5.7726Y-4.4252
X5.7739Y-3.4481
X5.7795Y-3.937
X5.7799Y-3.6212
X5.7815Y-4.6555
X5.7913Y-3.5906
X5.7931Y-3.431
X5.7953Y-5.0276
X5.7953Y-5.0827
X5.7992Y-3.7047
X5.7992Y-4.8504
X5.8139Y-3.8627
X5.8189Y-3.179
X5.8236Y-3.2581
X5.8346Y-3.6732
X5.8386Y-3.0157
X5.84Y-3.9252
X5.8435Y-3.6109
X5.8504Y-3.0748
X5.852Y-3.9775
X5.8543Y-3.4094
X5.8543Y-3.4567
X5.8583Y-3.384
X5.8583Y-3.5197
X5.8583Y-3.9449
X5.8622Y-3.2087
X5.8691Y-3.6185
X5.8704Y-3.5543
X5.8718Y-3.3463
X5.874Y-4.4311
X5.8819Y-4.7165
X5.8858Y-3.2126
X5.8937Y-3.626
X5.8945Y-3.5455
X5.8974Y-3.347
X5.9016Y-3.9094
X5.9173Y-3.4055
X5.9173Y-3.4961
X5.9213Y-3.5551
X5.9232Y-4.5669
X5.9325Y-3.3454
X5.9449Y-4.3307
X5.9477Y-3.5526
X5.9488Y-4.2087
X5.9488Y-4.8858
X5.9528Y-3.2008
X5.9534Y-4.533
X5.9593Y-4.7362
X5.9604Y-3.347
X5.9771Y-4.8228
X5.9888Y-4.6954
X5.9893Y-3.5548
X5.9921Y-3.2008
X5.9921Y-4.5499
X6.0039Y-3.4055
X6.0039Y-3.4961
X6.007Y-4.127
X6.0118Y-4.1772
X6.0118Y-4.3425
X6.0236Y-3.0157
X6.0238Y-3.347
X6.0276Y-3.0709
X6.0315Y-3.559
X6.0354Y-3.1772
X6.0354Y-4.9055
X6.0374Y-4.565
X6.0394Y-5.0906
X6.0472Y-3.2717
X6.0481Y-3.6606
X6.0507Y-4.695
X6.0538Y-4.8243
X6.0669Y-4.3307
X6.0709Y-4.189
X6.0743Y-4.705
X6.0827Y-3.185
X6.0857Y-3.5974
X6.0963Y-4.6917
X6.1024Y-3.874
X6.114Y-3.658
X6.122Y-4.7075
X6.1299Y-3.4094
X6.1339Y-3.2598
X6.134Y-3.9028
X6.1417Y-3.0906
X6.1437Y-5.0063
X6.1444Y-4.7298
X6.1496Y-4.9035
X6.1505Y-3.394
X6.1506Y-4.8386
X6.1542Y-3.6655
X6.1631Y-3.9004
X6.165Y-3.5709
X6.1693Y-3.2953
X6.1772Y-4.3071
X6.1823Y-3.5894
X6.185Y-3.874
X6.1919Y-4.9065
X6.1929Y-3.0906
X6.1929Y-3.6339
X6.1929Y-4.439
X6.1929Y-4.8268
X6.2047Y-4.5236
X6.2087Y-3.3268
X6.2087Y-3.4882
X6.209Y-3.6139
X6.2126Y-3.685
X6.2126Y-3.7638
X6.2244Y-3.185
X6.2342Y-3.3867
X6.2342Y-3.4244
X6.2402Y-3.5945
X6.2431Y-4.0443
X6.2517Y-3.3678
X6.2517Y-3.4055
X6.2517Y-3.4432
X6.2874Y-4.3465
X6.2874Y-4.4646
X6.2992Y-4.7559
X6.315Y-4.5571
X6.4035Y-4.4783
X6.4055Y-4.0807
X6.4055Y-4.8819
X6.4134Y-3.2815
X6.4173Y-3.6929
T2
X5.3763Y-3.7661
X5.4882Y-4.2861
X5.6682Y-3.79
X5.6693Y-4.0146
X5.7597Y-4.2572
X5.9059Y-3.9768
X6.0472Y-3.9331
T4
X5.4173Y-3.6114
X5.4173Y-3.6614
X5.4173Y-3.7114
X5.4848Y-4.9636
X5.5248Y-3.5
X5.5348Y-4.9636
X5.5748Y-3.5
X5.5848Y-4.9636
X5.6248Y-3.5
X5.6348Y-4.9636
X5.6848Y-4.9636
X5.7348Y-4.9636
T5
X5.1858Y-2.9311
X5.1858Y-3.0311
X5.1858Y-3.1311
X5.1858Y-3.2311
X5.1858Y-3.3311
X5.1858Y-3.4311
X5.1858Y-3.5311
X5.1858Y-3.6311
X5.1858Y-3.7311
X5.1858Y-3.8311
X5.1858Y-3.9311
X5.1858Y-4.0311
X5.1858Y-4.1311
X5.1858Y-4.2311
X5.1858Y-4.3311
X5.1858Y-4.4311
X5.1858Y-4.5311
X5.1858Y-4.6311
X5.1858Y-4.7311
X5.1858Y-4.8311
X5.1858Y-4.9311
X5.1858Y-5.0311
X6.1693Y-2.9315
X6.1693Y-3.0315
X6.3854Y-2.9323
X6.3854Y-3.0323
X6.3854Y-3.1323
X6.3854Y-3.2323
X6.3854Y-3.3323
X6.3854Y-3.4323
X6.3854Y-3.5323
X6.3854Y-3.6323
X6.3854Y-3.7323
X6.3854Y-3.8323
X6.3854Y-3.9323
X6.3854Y-4.0323
X6.3854Y-4.1323
X6.3854Y-4.2323
X6.3854Y-4.3323
X6.3854Y-4.4323
X6.3854Y-4.5323
X6.3854Y-4.6323
X6.3854Y-4.7323
X6.3854Y-4.8323
X6.3854Y-4.9323
X6.3854Y-5.0323
T3
G00X5.7176Y-2.9779
M15
G01X5.7176Y-2.9464
M16
G05
G00X5.7176Y-3.1483
M15
G01X5.7176Y-3.105
M16
G05
G00X6.0578Y-2.9779
M15
G01X6.0578Y-2.9464
M16
G05
G00X6.0578Y-3.1483
M15
G01X6.0578Y-3.105
M16
G05
M30
