%TF.GenerationSoftware,KiCad,Pcbnew,10.0.1*%
%TF.CreationDate,2026-09-27T15:05:58-04:00*%
%TF.ProjectId,Caravel-Breakout-Pico-Rev-0.0,43617261-7665-46c2-9d42-7265616b6f75,REV 5B*%
%TF.SameCoordinates,Original*%
%TF.FileFunction,Copper,L4,Bot*%
%TF.FilePolarity,Positive*%
%FSLAX46Y46*%
G04 Gerber Fmt 4.6, Leading zero omitted, Abs format (unit mm)*
G04 Created by KiCad (PCBNEW 10.0.1) date 2026-09-27 15:05:58*
%MOMM*%
%LPD*%
G01*
G04 APERTURE LIST*
%TA.AperFunction,WasherPad*%
%ADD10C,6.000000*%
%TD*%
%TA.AperFunction,ComponentPad*%
%ADD11R,1.700000X1.700000*%
%TD*%
%TA.AperFunction,ComponentPad*%
%ADD12C,1.700000*%
%TD*%
%TA.AperFunction,ComponentPad*%
%ADD13R,1.000000X1.000000*%
%TD*%
%TA.AperFunction,ComponentPad*%
%ADD14C,1.000000*%
%TD*%
%TA.AperFunction,HeatsinkPad*%
%ADD15O,1.000000X2.100000*%
%TD*%
%TA.AperFunction,HeatsinkPad*%
%ADD16O,1.000000X1.800000*%
%TD*%
%TA.AperFunction,ViaPad*%
%ADD17C,0.500000*%
%TD*%
%TA.AperFunction,ViaPad*%
%ADD18C,0.800000*%
%TD*%
%TA.AperFunction,Conductor*%
%ADD19C,0.152400*%
%TD*%
%TA.AperFunction,Conductor*%
%ADD20C,0.254000*%
%TD*%
%TA.AperFunction,Conductor*%
%ADD21C,0.500000*%
%TD*%
G04 APERTURE END LIST*
D10*
%TO.P,H1,*%
%TO.N,*%
X151077334Y-95837665D03*
%TD*%
D11*
%TO.P,J5,1,Pin_1_1*%
%TO.N,/~{RST}*%
X156700000Y-77000000D03*
D12*
%TO.P,J5,2,Pin_2_2*%
%TO.N,/RUN*%
X156700000Y-74460000D03*
%TD*%
D13*
%TO.P,J4,1,Pin_1_1*%
%TO.N,/Caravel_CSB*%
X145665000Y-126075000D03*
D14*
%TO.P,J4,2,Pin_2_2*%
%TO.N,/Caravel_D1*%
X144395000Y-126075000D03*
%TO.P,J4,3,Pin_3_3*%
%TO.N,unconnected-(J4-Pin_3-Pad3)*%
X143125000Y-126075000D03*
%TO.P,J4,4,Pin_4_4*%
%TO.N,unconnected-(J4-Pin_4-Pad4)*%
X141855000Y-126075000D03*
%TO.P,J4,5,Pin_5_5*%
%TO.N,/Caravel_SCK*%
X140585000Y-126075000D03*
%TO.P,J4,6,Pin_6_6*%
%TO.N,/Caravel_D0*%
X139315000Y-126075000D03*
%TD*%
D13*
%TO.P,J7,1,Pin_1_1*%
%TO.N,unconnected-(J7-Pin_1-Pad1)*%
X140330000Y-88900000D03*
D14*
%TO.P,J7,2,Pin_2_2*%
%TO.N,/OSC_EN*%
X141600000Y-88900000D03*
%TO.P,J7,3,Pin_3_3*%
%TO.N,GND*%
X142870000Y-88900000D03*
%TD*%
D15*
%TO.P,J6,S1,SHIELD_S1*%
%TO.N,unconnected-(J6-SHIELD-PadS1)_3*%
X153867334Y-79417665D03*
D16*
%TO.N,unconnected-(J6-SHIELD-PadS1)*%
X153867334Y-75237665D03*
D15*
%TO.N,unconnected-(J6-SHIELD-PadS1)_1*%
X145227334Y-79417665D03*
D16*
%TO.N,unconnected-(J6-SHIELD-PadS1)_2*%
X145227334Y-75237665D03*
%TD*%
D13*
%TO.P,J3,1,Pin_1_1*%
%TO.N,unconnected-(J3-Pin_1-Pad1)*%
X137600000Y-91730000D03*
D14*
%TO.P,J3,2,Pin_2_2*%
%TO.N,/mprj_io[5]_ser_rx*%
X137600000Y-93000000D03*
%TO.P,J3,3,Pin_3_3*%
%TO.N,/USB_TXD*%
X137600000Y-94270000D03*
%TD*%
D11*
%TO.P,J2,1,Pin_1_1*%
%TO.N,GND*%
X162190000Y-127820000D03*
D12*
%TO.P,J2,2,Pin_2_2*%
%TO.N,+1V8_CARAVEL*%
X162190000Y-125280000D03*
%TO.P,J2,3,Pin_3_3*%
%TO.N,/xclk*%
X162190000Y-122740000D03*
%TO.P,J2,4,Pin_4_4*%
%TO.N,/mprj_io[28]*%
X162190000Y-120200000D03*
%TO.P,J2,5,Pin_5_5*%
%TO.N,/mprj_io[29]*%
X162190000Y-117660000D03*
%TO.P,J2,6,Pin_6_6*%
%TO.N,/mprj_io[30]*%
X162190000Y-115120000D03*
%TO.P,J2,7,Pin_7_7*%
%TO.N,/mprj_io[31]*%
X162190000Y-112580000D03*
%TO.P,J2,8,Pin_8_8*%
%TO.N,/mprj_io[32]*%
X162190000Y-110040000D03*
%TO.P,J2,9,Pin_9_9*%
%TO.N,/mprj_io[33]*%
X162190000Y-107500000D03*
%TO.P,J2,10,Pin_10_10*%
%TO.N,/mprj_io[34]*%
X162190000Y-104960000D03*
%TO.P,J2,11,Pin_11_11*%
%TO.N,/mprj_io[35]*%
X162190000Y-102420000D03*
%TO.P,J2,12,Pin_12_12*%
%TO.N,+3V3_CARAVEL*%
X162190000Y-99880000D03*
%TO.P,J2,13,Pin_13_13*%
%TO.N,/mprj_io[37]*%
X162190000Y-97340000D03*
%TO.P,J2,14,Pin_14_14*%
%TO.N,/mprj_io[36]*%
X162190000Y-94800000D03*
%TO.P,J2,15,Pin_15_15*%
%TO.N,/CARAVEL_GP27*%
X162190000Y-92260000D03*
%TO.P,J2,16,Pin_16_16*%
%TO.N,/CARAVEL_GP26*%
X162190000Y-89720000D03*
%TO.P,J2,17,Pin_17_17*%
%TO.N,/CARAVEL_GP25*%
X162190000Y-87180000D03*
%TO.P,J2,18,Pin_18_18*%
%TO.N,/CARAVEL_GP24*%
X162190000Y-84640000D03*
%TO.P,J2,19,Pin_19_19*%
%TO.N,/CARAVEL_GP23*%
X162190000Y-82100000D03*
%TO.P,J2,20,Pin_20_20*%
%TO.N,/CARAVEL_GP22*%
X162190000Y-79560000D03*
%TO.P,J2,21,Pin_21_21*%
%TO.N,/CARAVEL_GP21*%
X162190000Y-77020000D03*
%TO.P,J2,22,Pin_22_22*%
%TO.N,/CARAVEL_GP20*%
X162190000Y-74480000D03*
%TD*%
D11*
%TO.P,J1,1,Pin_1_1*%
%TO.N,+5V*%
X131720000Y-74450000D03*
D12*
%TO.P,J1,2,Pin_2_2*%
%TO.N,/CARAVEL_GP19*%
X131720000Y-76990000D03*
%TO.P,J1,3,Pin_3_3*%
%TO.N,/CARAVEL_GP18*%
X131720000Y-79530000D03*
%TO.P,J1,4,Pin_4_4*%
%TO.N,/CARAVEL_GP17*%
X131720000Y-82070000D03*
%TO.P,J1,5,Pin_5_5*%
%TO.N,/CARAVEL_GP16*%
X131720000Y-84610000D03*
%TO.P,J1,6,Pin_6_6*%
%TO.N,/CARAVEL_GP15*%
X131720000Y-87150000D03*
%TO.P,J1,7,Pin_7_7*%
%TO.N,/CARAVEL_GP14*%
X131720000Y-89690000D03*
%TO.P,J1,8,Pin_8_8*%
%TO.N,/USB_RXD*%
X131720000Y-92230000D03*
%TO.P,J1,9,Pin_9_9*%
%TO.N,/mprj_io[7]*%
X131720000Y-94770000D03*
%TO.P,J1,10,Pin_10_10*%
%TO.N,/mprj_io[8]*%
X131720000Y-97310000D03*
%TO.P,J1,11,Pin_11_11*%
%TO.N,/mprj_io[9]*%
X131720000Y-99850000D03*
%TO.P,J1,12,Pin_12_12*%
%TO.N,/mprj_io[10]*%
X131720000Y-102390000D03*
%TO.P,J1,13,Pin_13_13*%
%TO.N,/mprj_io[11]*%
X131720000Y-104930000D03*
%TO.P,J1,14,Pin_14_14*%
%TO.N,/CARAVEL_GP12*%
X131720000Y-107470000D03*
%TO.P,J1,15,Pin_15_15*%
%TO.N,/CARAVEL_GP13*%
X131720000Y-110010000D03*
%TO.P,J1,16,Pin_16_16*%
%TO.N,/mprj_io[5]_ser_rx*%
X131720000Y-112550000D03*
%TO.P,J1,17,Pin_17_17*%
%TO.N,/USB_SCK*%
X131720000Y-115090000D03*
%TO.P,J1,18,Pin_18_18*%
%TO.N,/USB_CS1*%
X131720000Y-117630000D03*
%TO.P,J1,19,Pin_19_19*%
%TO.N,/USB_SO*%
X131720000Y-120170000D03*
%TO.P,J1,20,Pin_20_20*%
%TO.N,/USB_SI*%
X131720000Y-122710000D03*
%TO.P,J1,21,Pin_21_21*%
%TO.N,/mprj_io[0]*%
X131720000Y-125250000D03*
%TO.P,J1,22,Pin_22_22*%
%TO.N,/gpio*%
X131720000Y-127790000D03*
%TD*%
D17*
%TO.N,+3V3_MAIN*%
X135647628Y-81993942D03*
%TO.N,/CARAVEL_PWR*%
X136300000Y-82000000D03*
%TO.N,+3V3_MAIN*%
X144000000Y-80200000D03*
X148800000Y-85952934D03*
X156050000Y-127160000D03*
X149719989Y-90056164D03*
X149900000Y-99300000D03*
X155000000Y-98400000D03*
X140895000Y-84900000D03*
%TO.N,GND*%
X143900000Y-91500000D03*
X130950000Y-83350000D03*
X154575543Y-91373143D03*
X145600000Y-85800000D03*
X146808224Y-91978599D03*
X148600000Y-78100000D03*
X137846878Y-79000000D03*
X152500000Y-88800000D03*
X154500000Y-80900000D03*
X135200000Y-93000000D03*
X154100000Y-110000000D03*
X131100000Y-106200000D03*
X142883934Y-107597600D03*
X140700000Y-97000000D03*
X157300000Y-78500000D03*
X135469200Y-112160465D03*
X147300000Y-94100000D03*
X150400000Y-90300000D03*
X140800000Y-116100000D03*
X151200000Y-81300000D03*
X134700000Y-89200000D03*
X157275000Y-124625000D03*
X148800000Y-100200000D03*
X137039536Y-113760464D03*
X141300000Y-96000000D03*
X145500000Y-119900000D03*
X151100000Y-106900000D03*
X152200000Y-81300000D03*
X153600000Y-83100000D03*
X153300000Y-80700000D03*
X158500000Y-91300000D03*
X135200000Y-86400000D03*
X139200000Y-101100000D03*
X139200000Y-98300000D03*
X163000000Y-93800000D03*
X147200000Y-129100000D03*
X135400000Y-88500000D03*
X156900000Y-109400000D03*
X140000000Y-86100000D03*
X149500000Y-81600000D03*
X153621143Y-92978857D03*
X135800000Y-74000000D03*
X151000000Y-110000000D03*
X157700000Y-84500000D03*
X157800000Y-95600000D03*
X140800000Y-98300000D03*
X138550000Y-115050000D03*
X152500000Y-86500000D03*
X144100000Y-103400000D03*
X159700000Y-113400000D03*
X143900000Y-123600000D03*
X146625000Y-112400000D03*
X140600000Y-102900000D03*
X141600000Y-91500000D03*
X131000000Y-90850000D03*
X142100000Y-116400000D03*
X156591800Y-90700000D03*
X135255000Y-77470000D03*
X157600000Y-114900000D03*
X158100000Y-80900000D03*
X151100000Y-124100000D03*
X131050000Y-98550000D03*
X146000000Y-106400000D03*
X135800000Y-79500000D03*
X141600000Y-101200000D03*
X162900000Y-83350000D03*
X157800000Y-93600000D03*
X162700000Y-124000000D03*
X142600000Y-82500000D03*
X147300000Y-123200000D03*
X146800000Y-100000000D03*
X150300000Y-86500000D03*
X135100000Y-82800000D03*
X138800000Y-91400000D03*
X153400000Y-129300000D03*
X139950000Y-124300000D03*
X138080000Y-81920000D03*
X142775000Y-109550000D03*
X139672959Y-110272876D03*
X143200000Y-99200000D03*
X139100000Y-115150000D03*
X139955000Y-81855000D03*
X140800000Y-111100000D03*
X151217334Y-115137665D03*
X155800000Y-82800000D03*
X144900000Y-88600000D03*
X149200000Y-112550000D03*
X137800000Y-119650000D03*
X153100000Y-78000000D03*
X162650000Y-113750000D03*
X162700000Y-103650000D03*
X153350000Y-115950000D03*
X137100000Y-78300000D03*
X148900000Y-81500000D03*
X141900000Y-86100000D03*
X142000000Y-111000000D03*
X144700000Y-100600000D03*
X146850000Y-118250000D03*
X159700000Y-110400000D03*
X139100000Y-116700000D03*
X157700000Y-88600000D03*
X144000000Y-94100000D03*
X157300000Y-122600000D03*
X142700000Y-80800000D03*
X152700000Y-106100000D03*
X140750000Y-118450000D03*
X154200000Y-106400000D03*
X156000000Y-78500000D03*
X141275000Y-124275000D03*
X135600000Y-85200000D03*
X150300000Y-88800000D03*
X157029371Y-91170629D03*
X137300000Y-86700000D03*
X147200000Y-127700000D03*
X143400000Y-103000000D03*
X138575000Y-124400000D03*
X138100000Y-86100000D03*
X148640599Y-101027368D03*
X160000000Y-120800000D03*
X141000000Y-75700000D03*
X137447887Y-107803427D03*
X158575000Y-102725000D03*
X152700000Y-110300000D03*
X138000000Y-88900000D03*
X153000000Y-76600000D03*
X160400000Y-115750000D03*
X144500000Y-117900000D03*
X149400000Y-119800000D03*
X139100000Y-97000000D03*
X156316650Y-93104750D03*
X157300000Y-112750000D03*
X131000000Y-121350000D03*
X137825000Y-108950000D03*
X153300000Y-124600000D03*
X148300000Y-76600000D03*
X138400000Y-109500000D03*
X135106000Y-90300000D03*
X145767334Y-80885265D03*
D18*
%TO.N,+3V3_CARAVEL*%
X153600000Y-99900000D03*
D17*
X137000000Y-106600000D03*
X152200000Y-115567065D03*
D18*
X144000000Y-101970000D03*
X143972600Y-96265279D03*
D17*
X156067334Y-120137665D03*
D18*
X150010826Y-101010825D03*
D17*
X140286767Y-94513233D03*
X155499434Y-119569765D03*
X156225000Y-122900000D03*
X141702400Y-93270026D03*
X134400000Y-125700000D03*
X155700000Y-86600000D03*
X156200000Y-124550000D03*
%TO.N,/Caravel_CSB*%
X153687255Y-119252372D03*
X153767334Y-122537665D03*
X146447535Y-105600000D03*
%TO.N,/xclk*%
X154288234Y-119506248D03*
X147673046Y-98112022D03*
D18*
%TO.N,+1V8_CARAVEL*%
X136558662Y-95658662D03*
D17*
X156221922Y-86208558D03*
X152114924Y-119262063D03*
X150450000Y-116000000D03*
D18*
X139400000Y-108868065D03*
X146297535Y-108132800D03*
D17*
X155803857Y-99131457D03*
%TO.N,/BOOT*%
X152578431Y-104826902D03*
X147100000Y-91200000D03*
X145187550Y-91600000D03*
X143846768Y-85966369D03*
X148200000Y-93300000D03*
X142484820Y-86389160D03*
%TO.N,/~{RST}*%
X142600000Y-84200000D03*
X154847034Y-119169547D03*
X141600000Y-77287665D03*
X148335800Y-99700000D03*
X145492350Y-92700000D03*
X142181158Y-95570522D03*
%TO.N,/RUN*%
X153199999Y-90399738D03*
X157100000Y-98400000D03*
X142038422Y-97561578D03*
X138300000Y-97600000D03*
%TO.N,/Caravel_D1*%
X151817634Y-122500000D03*
X143841134Y-106600000D03*
%TO.N,/Caravel_SCK*%
X140400000Y-104600000D03*
%TO.N,/Caravel_D0*%
X140400000Y-103947597D03*
%TO.N,/CARAVEL_PWR*%
X140340201Y-83136645D03*
X138440201Y-83148991D03*
X143017600Y-85298166D03*
%TO.N,1V1_PICO*%
X151394732Y-85013407D03*
X153004417Y-85013711D03*
X152129399Y-90291849D03*
%TO.N,Net-(U2-DO{slash}IO_{1})*%
X149142569Y-84995734D03*
X143200000Y-83200000D03*
%TO.N,Net-(U2-~{WP}{slash}IO_{2})*%
X149794732Y-85013407D03*
X144521400Y-83744997D03*
%TO.N,Net-(U2-~{HOLD}{slash}~{RESET}{slash}IO_{3})*%
X147919395Y-82756743D03*
X150685118Y-84974362D03*
%TO.N,/USB_SI*%
X148423909Y-91716600D03*
X145776843Y-118576843D03*
%TO.N,/USB_CS1*%
X143200000Y-119800000D03*
X149107200Y-90280036D03*
%TO.N,/USB_SCK*%
X145082052Y-116928367D03*
X149076196Y-91908962D03*
%TO.N,/USB_SO*%
X149700000Y-92100000D03*
X145560652Y-117400000D03*
%TO.N,/USBxclk*%
X156700000Y-83700000D03*
X151070600Y-90235100D03*
%TO.N,/USB_TXD*%
X142718246Y-95940880D03*
%TO.N,/USB_RXD*%
X155295648Y-92912248D03*
X136301114Y-113698886D03*
X139678734Y-109620499D03*
X156542279Y-99069879D03*
%TO.N,/CARAVEL_GP27*%
X157300000Y-92301378D03*
%TO.N,/CARAVEL_GP26*%
X157708032Y-91792321D03*
%TO.N,/CARAVEL_GP25*%
X158792600Y-87457598D03*
%TO.N,/CARAVEL_GP24*%
X158349237Y-86978999D03*
%TO.N,/CARAVEL_GP23*%
X158792600Y-86500398D03*
%TO.N,/CARAVEL_GP22*%
X158349237Y-86021797D03*
%TO.N,/CARAVEL_GP21*%
X158792600Y-85543198D03*
%TO.N,Net-(J6-CC2)*%
X144500000Y-76600000D03*
X147800000Y-80747597D03*
%TO.N,/mprj_io[5]_ser_rx*%
X134929399Y-119206242D03*
X139600000Y-115700000D03*
X139678734Y-111000000D03*
%TO.N,/gpio*%
X136616150Y-128406771D03*
X151365995Y-120298818D03*
%TO.N,/CARAVEL_GP17*%
X144739138Y-86858738D03*
%TO.N,/CARAVEL_GP14*%
X146657200Y-87582800D03*
%TO.N,/CARAVEL_GP18*%
X145017861Y-86096200D03*
%TO.N,/CARAVEL_GP12*%
X148700000Y-87800000D03*
%TO.N,/CARAVEL_GP16*%
X148700000Y-86600000D03*
%TO.N,/CARAVEL_GP15*%
X147143748Y-87148109D03*
%TO.N,/CARAVEL_GP13*%
X148800000Y-89400000D03*
%TO.N,/CARAVEL_GP19*%
X146229128Y-85972703D03*
%TD*%
%TO.N,+3V3_MAIN*%
D19*
X135647628Y-82024471D02*
X138523157Y-84900000D01*
X138523157Y-84900000D02*
X140895000Y-84900000D01*
X135647628Y-81993942D02*
X135647628Y-82024471D01*
%TO.N,/CARAVEL_PWR*%
X137448991Y-83148991D02*
X136300000Y-82000000D01*
X138440201Y-83148991D02*
X137448991Y-83148991D01*
%TO.N,/CARAVEL_GP13*%
X136126252Y-90847800D02*
X133204800Y-93769252D01*
X145053251Y-90847800D02*
X136126252Y-90847800D01*
X146501051Y-89400000D02*
X145053251Y-90847800D01*
X133204800Y-93769252D02*
X133204800Y-108525200D01*
X148800000Y-89400000D02*
X146501051Y-89400000D01*
X133204800Y-108525200D02*
X131720000Y-110010000D01*
%TO.N,/CARAVEL_GP12*%
X147669998Y-87800000D02*
X144926999Y-90543000D01*
X148700000Y-87800000D02*
X147669998Y-87800000D01*
X144926999Y-90543000D02*
X136000000Y-90543000D01*
X132900000Y-93643000D02*
X132900000Y-106290000D01*
X132900000Y-106290000D02*
X131720000Y-107470000D01*
X136000000Y-90543000D02*
X132900000Y-93643000D01*
%TO.N,+3V3_CARAVEL*%
D20*
X140459193Y-94513233D02*
X141702400Y-93270026D01*
X140286767Y-94513233D02*
X140459193Y-94513233D01*
%TO.N,+3V3_MAIN*%
X144000000Y-80200000D02*
X144000000Y-80351315D01*
X149870600Y-90770600D02*
X150606400Y-91506400D01*
X149870600Y-90206775D02*
X149870600Y-90770600D01*
X152750000Y-100990133D02*
X158200000Y-106440133D01*
X142070600Y-82819285D02*
X143525712Y-84274397D01*
X158200000Y-125010000D02*
X156050000Y-127160000D01*
X153850000Y-98400000D02*
X152750000Y-99500000D01*
X140895000Y-84900000D02*
X141600662Y-84900000D01*
X152750000Y-99500000D02*
X152750000Y-100990133D01*
X155000000Y-95106400D02*
X155000000Y-98400000D01*
D19*
X150100000Y-99500000D02*
X149900000Y-99300000D01*
D20*
X158200000Y-106440133D02*
X158200000Y-125010000D01*
D19*
X152750000Y-99500000D02*
X150100000Y-99500000D01*
D20*
X143547000Y-85517451D02*
X143547000Y-84295685D01*
X143525712Y-84274397D02*
X146874397Y-84274397D01*
X146874397Y-84274397D02*
X148000000Y-85400000D01*
X155000000Y-98400000D02*
X153850000Y-98400000D01*
X148552934Y-85952934D02*
X148800000Y-85952934D01*
X141600662Y-84900000D02*
X142528228Y-85827566D01*
X142528228Y-85827566D02*
X143236885Y-85827566D01*
X144000000Y-80351315D02*
X142070600Y-82280715D01*
X143236885Y-85827566D02*
X143547000Y-85517451D01*
X149719989Y-90056164D02*
X149870600Y-90206775D01*
X143547000Y-84295685D02*
X143525712Y-84274397D01*
X148000000Y-85400000D02*
X148552934Y-85952934D01*
X142070600Y-82280715D02*
X142070600Y-82819285D01*
X150606400Y-91506400D02*
X151400000Y-91506400D01*
X151400000Y-91506400D02*
X155000000Y-95106400D01*
%TO.N,GND*%
X162190000Y-127110000D02*
X163100000Y-126200000D01*
X142870000Y-88900000D02*
X144600000Y-88900000D01*
X162190000Y-127820000D02*
X162190000Y-127110000D01*
X144600000Y-88900000D02*
X144900000Y-88600000D01*
%TO.N,+3V3_CARAVEL*%
D21*
X151937084Y-104545616D02*
X151926031Y-104556669D01*
D19*
X155500000Y-95100000D02*
X155500000Y-98576843D01*
D20*
X134400000Y-125700000D02*
X134400000Y-111600000D01*
D19*
X155500000Y-86800000D02*
X155500000Y-91600000D01*
D21*
X143963471Y-97283815D02*
X143963471Y-101933471D01*
X143972600Y-97274686D02*
X143963471Y-97283815D01*
X143972600Y-96265279D02*
X143972600Y-97274686D01*
D20*
X152567334Y-118937665D02*
X153767334Y-120137665D01*
X152614727Y-116586631D02*
X152567334Y-116634024D01*
X152614727Y-115981792D02*
X152614727Y-116586631D01*
D21*
X143963471Y-101933471D02*
X144000000Y-101970000D01*
D20*
X152200000Y-115567065D02*
X152614727Y-115981792D01*
X154931534Y-120137665D02*
X155499434Y-119569765D01*
X152567334Y-116634024D02*
X152567334Y-118937665D01*
D21*
X151937084Y-102937084D02*
X151937084Y-104545616D01*
D20*
X156225000Y-122900000D02*
X156225000Y-124525000D01*
X153767334Y-120137665D02*
X154931534Y-120137665D01*
X156225000Y-124525000D02*
X156200000Y-124550000D01*
D19*
X155000000Y-99076843D02*
X155000000Y-99900000D01*
D21*
X155499434Y-114599434D02*
X155499434Y-119569765D01*
X151937084Y-111037084D02*
X155499434Y-114599434D01*
D19*
X155500000Y-91600000D02*
X154500000Y-92600000D01*
D20*
X137977287Y-108022712D02*
X137977287Y-107577287D01*
X134400000Y-111600000D02*
X137977287Y-108022712D01*
D19*
X155700000Y-86600000D02*
X155500000Y-86800000D01*
X154500000Y-92600000D02*
X154500000Y-94100000D01*
D21*
X155000000Y-99900000D02*
X155300000Y-99900000D01*
D19*
X154500000Y-94100000D02*
X155500000Y-95100000D01*
D20*
X137977287Y-107577287D02*
X137000000Y-106600000D01*
D21*
X151926031Y-104556669D02*
X151926031Y-105097135D01*
X153600000Y-99900000D02*
X155000000Y-99900000D01*
X151937084Y-105108188D02*
X151937084Y-111037084D01*
D20*
X156067334Y-120137665D02*
X155499434Y-119569765D01*
D19*
X155500000Y-98576843D02*
X155000000Y-99076843D01*
D21*
X150010826Y-101010825D02*
X151937084Y-102937084D01*
X151926031Y-105097135D02*
X151937084Y-105108188D01*
X155320000Y-99880000D02*
X162190000Y-99880000D01*
X155300000Y-99900000D02*
X155320000Y-99880000D01*
%TO.N,/Caravel_CSB*%
D19*
X153885921Y-119053706D02*
X153687255Y-119252372D01*
X146485921Y-107414079D02*
X146485921Y-105638386D01*
X145665000Y-126075000D02*
X150229999Y-126075000D01*
X146485921Y-105638386D02*
X146447535Y-105600000D01*
X146485921Y-107414079D02*
X153885921Y-114814079D01*
X153885921Y-114814079D02*
X153885921Y-119053706D01*
X150229999Y-126075000D02*
X153767334Y-122537665D01*
%TO.N,/xclk*%
D20*
X147806400Y-108231664D02*
X154331877Y-114757141D01*
X154332877Y-118931123D02*
X154288234Y-118975766D01*
X147673046Y-98626202D02*
X147806400Y-98759556D01*
X154288234Y-118975766D02*
X154288234Y-119506248D01*
X154332877Y-115032877D02*
X154332877Y-118931123D01*
X154331877Y-114757141D02*
X154331877Y-115031877D01*
X154331877Y-115031877D02*
X154332877Y-115032877D01*
X147673046Y-98112022D02*
X147673046Y-98626202D01*
X147806400Y-98759556D02*
X147806400Y-108231664D01*
%TO.N,+1V8_CARAVEL*%
D19*
X156221922Y-86208558D02*
X156352403Y-86339039D01*
X155804800Y-94973748D02*
X155804800Y-99130514D01*
X155804800Y-87300000D02*
X155804800Y-91726252D01*
X156352403Y-86339039D02*
X156352403Y-86752397D01*
D21*
X146297535Y-108132800D02*
X146332800Y-108132800D01*
X136951532Y-96051532D02*
X136951532Y-105577484D01*
D19*
X154804800Y-92726252D02*
X154804800Y-93973748D01*
X155804800Y-91726252D02*
X154804800Y-92726252D01*
D21*
X138753400Y-107379352D02*
X138753400Y-108137233D01*
X139400000Y-108783833D02*
X139400000Y-108868065D01*
X138753400Y-108137233D02*
X139400000Y-108783833D01*
X136951532Y-105577484D02*
X138753400Y-107379352D01*
X150450000Y-112250000D02*
X150450000Y-117597139D01*
D19*
X154804800Y-93973748D02*
X155804800Y-94973748D01*
X155804800Y-99130514D02*
X155803857Y-99131457D01*
D21*
X150450000Y-117597139D02*
X152114924Y-119262063D01*
X136558662Y-95658662D02*
X136951532Y-96051532D01*
X146332800Y-108132800D02*
X150450000Y-112250000D01*
D19*
X156352403Y-86752397D02*
X155804800Y-87300000D01*
%TO.N,/BOOT*%
X147000000Y-91300000D02*
X147100000Y-91200000D01*
X149421400Y-99521400D02*
X149421400Y-98747661D01*
X145187550Y-91600000D02*
X145487550Y-91300000D01*
X152600000Y-102700000D02*
X149421400Y-99521400D01*
X152600000Y-104805333D02*
X152600000Y-102700000D01*
X143423977Y-86389160D02*
X143846768Y-85966369D01*
X147808608Y-97134869D02*
X147808608Y-93691392D01*
X145487550Y-91300000D02*
X147000000Y-91300000D01*
X149421400Y-98747661D02*
X147808608Y-97134869D01*
X147808608Y-93691392D02*
X148200000Y-93300000D01*
X152578431Y-104826902D02*
X152600000Y-104805333D01*
X142484820Y-86389160D02*
X143423977Y-86389160D01*
%TO.N,/~{RST}*%
X145492350Y-93412568D02*
X145492350Y-92700000D01*
X142181158Y-95570522D02*
X142299221Y-95452459D01*
X148161999Y-100738000D02*
X148162000Y-99873800D01*
X141600000Y-83200000D02*
X142600000Y-84200000D01*
X141600000Y-77287665D02*
X141600000Y-83200000D01*
X142299221Y-95452459D02*
X143452459Y-95452459D01*
X148161999Y-100738000D02*
X148162000Y-108084370D01*
X154847034Y-114769404D02*
X154847034Y-119169547D01*
X143452459Y-95452459D02*
X145492350Y-93412568D01*
X148162000Y-108084370D02*
X154847034Y-114769404D01*
X148162000Y-99873800D02*
X148335800Y-99700000D01*
%TO.N,/RUN*%
X156865265Y-83188422D02*
X156088421Y-83188422D01*
X155076843Y-84200000D02*
X154544400Y-84200000D01*
X155838050Y-94144894D02*
X155838050Y-92124054D01*
X155838050Y-92124054D02*
X156109600Y-91852504D01*
X157178600Y-83501757D02*
X156865265Y-83188422D01*
X154544400Y-83378757D02*
X155521400Y-82401757D01*
X156800000Y-86771488D02*
X156800000Y-84276843D01*
X156109600Y-87461888D02*
X156800000Y-86771488D01*
X155521400Y-75638600D02*
X156700000Y-74460000D01*
X156109600Y-91852504D02*
X156109600Y-87461888D01*
X156800000Y-84276843D02*
X157178600Y-83898243D01*
X153199999Y-90399738D02*
X154297368Y-90399738D01*
X157178600Y-83898243D02*
X157178600Y-83501757D01*
X154544400Y-84200000D02*
X154544400Y-83378757D01*
X156088421Y-83188422D02*
X155076843Y-84200000D01*
X157100000Y-98400000D02*
X156414400Y-97714400D01*
X156414400Y-97714400D02*
X156414400Y-94721244D01*
X142038422Y-97561578D02*
X138338422Y-97561578D01*
X155521400Y-82401757D02*
X155521400Y-75638600D01*
X156414400Y-94721244D02*
X155838050Y-94144894D01*
X138338422Y-97561578D02*
X138300000Y-97600000D01*
X154544400Y-90152706D02*
X154544400Y-84200000D01*
X154297368Y-90399738D02*
X154544400Y-90152706D01*
%TO.N,/Caravel_D1*%
X143841134Y-106796866D02*
X143667334Y-106970666D01*
X146973134Y-122500000D02*
X145686567Y-121213433D01*
X144420000Y-122480000D02*
X144420000Y-126050000D01*
X143841134Y-106600000D02*
X143841134Y-106796866D01*
X143667334Y-106970666D02*
X143667334Y-119194200D01*
X151817634Y-122500000D02*
X146973134Y-122500000D01*
X145686567Y-121213433D02*
X144420000Y-122480000D01*
X144420000Y-126050000D02*
X144395000Y-126075000D01*
X143667334Y-119194200D02*
X145686567Y-121213433D01*
%TO.N,/Caravel_SCK*%
X140610000Y-126050000D02*
X140585000Y-126075000D01*
X141427334Y-105627334D02*
X141427334Y-122702666D01*
X140610000Y-123520000D02*
X140610000Y-126050000D01*
X141427334Y-122702666D02*
X140610000Y-123520000D01*
X140400000Y-104600000D02*
X141427334Y-105627334D01*
%TO.N,/Caravel_D0*%
X139921400Y-104401757D02*
X139921400Y-107618678D01*
X140400000Y-103947597D02*
X140226197Y-104121400D01*
X140226197Y-104121400D02*
X140201757Y-104121400D01*
X140157334Y-122702666D02*
X139340000Y-123520000D01*
X140157334Y-107854612D02*
X140157334Y-122702666D01*
X139921400Y-107618678D02*
X140157334Y-107854612D01*
X139340000Y-126050000D02*
X139315000Y-126075000D01*
X139340000Y-123520000D02*
X139340000Y-126050000D01*
X139921400Y-104401757D02*
X140201757Y-104121400D01*
%TO.N,/CARAVEL_PWR*%
X143017600Y-85298166D02*
X142501722Y-85298166D01*
X142501722Y-85298166D02*
X140340201Y-83136645D01*
X138452547Y-83136645D02*
X140340201Y-83136645D01*
X138440201Y-83148991D02*
X138452547Y-83136645D01*
%TO.N,1V1_PICO*%
D20*
X151394732Y-85013407D02*
X151394732Y-89557182D01*
X151395036Y-85013711D02*
X151394732Y-85013407D01*
X153004417Y-85013711D02*
X151395036Y-85013711D01*
X151394732Y-89557182D02*
X152129399Y-90291849D01*
%TO.N,Net-(U2-DO{slash}IO_{1})*%
D19*
X147524739Y-83200000D02*
X143200000Y-83200000D01*
X149142569Y-84995734D02*
X149142569Y-84817830D01*
X149142569Y-84817830D02*
X147524739Y-83200000D01*
%TO.N,Net-(U2-~{WP}{slash}IO_{2})*%
X149794732Y-85020414D02*
X149340812Y-85474334D01*
X149794732Y-85013407D02*
X149794732Y-85020414D01*
X146944997Y-83744997D02*
X148674334Y-85474334D01*
X149340812Y-85474334D02*
X148674334Y-85474334D01*
X144521400Y-83744997D02*
X146944997Y-83744997D01*
%TO.N,Net-(U2-~{HOLD}{slash}~{RESET}{slash}IO_{3})*%
X148467499Y-82756743D02*
X147919395Y-82756743D01*
X150685118Y-84974362D02*
X148467499Y-82756743D01*
%TO.N,/USB_SI*%
X144900000Y-114677934D02*
X144883809Y-114694125D01*
X145305624Y-101152446D02*
X144900000Y-101558070D01*
X147106090Y-92854963D02*
X146912059Y-92854963D01*
X144577934Y-116755642D02*
X144577934Y-117101091D01*
X148070653Y-91890400D02*
X147106090Y-92854963D01*
X144883809Y-114694125D02*
X144883809Y-116449767D01*
X148309600Y-91890400D02*
X148070653Y-91890400D01*
X145305624Y-94461398D02*
X145305624Y-101152446D01*
X148423909Y-91716600D02*
X148423909Y-91776091D01*
X144883809Y-116449767D02*
X144577934Y-116755642D01*
X148423909Y-91776091D02*
X148309600Y-91890400D01*
X145776843Y-118300000D02*
X145776843Y-118576843D01*
X144577934Y-117101091D02*
X145776843Y-118300000D01*
X144900000Y-101558070D02*
X144900000Y-114677934D01*
X146912059Y-92854963D02*
X145305624Y-94461398D01*
%TO.N,/USB_CS1*%
X149107200Y-90356466D02*
X149107200Y-90280036D01*
X143287734Y-103739422D02*
X142700000Y-103151688D01*
X142700000Y-96635970D02*
X146785807Y-92550163D01*
X143287734Y-105370043D02*
X143287734Y-103739422D01*
X143200000Y-119800000D02*
X143362534Y-119637466D01*
X143362534Y-119637466D02*
X143362534Y-105444844D01*
X146913503Y-92550163D02*
X149107200Y-90356466D01*
X146785807Y-92550163D02*
X146913503Y-92550163D01*
X143362534Y-105444844D02*
X143287734Y-105370043D01*
X142700000Y-103151688D02*
X142700000Y-96635970D01*
%TO.N,/USB_SCK*%
X145200000Y-116810419D02*
X145082052Y-116928367D01*
X148196905Y-92195200D02*
X147232342Y-93159763D01*
X147038311Y-93159763D02*
X145610424Y-94587650D01*
X147232342Y-93159763D02*
X147038311Y-93159763D01*
X145204800Y-101684322D02*
X145204800Y-114804186D01*
X145204800Y-114804186D02*
X145200000Y-114808986D01*
X149076196Y-91908962D02*
X148789958Y-92195200D01*
X148789958Y-92195200D02*
X148196905Y-92195200D01*
X145610424Y-101278698D02*
X145204800Y-101684322D01*
X145200000Y-114808986D02*
X145200000Y-116810419D01*
X145610424Y-94587650D02*
X145610424Y-101278698D01*
%TO.N,/USB_SO*%
X145915224Y-94713902D02*
X147164563Y-93464563D01*
X145504800Y-114935238D02*
X145509600Y-114930438D01*
X147358594Y-93464563D02*
X148323157Y-92500000D01*
X145509600Y-114930438D02*
X145509600Y-101810574D01*
X147164563Y-93464563D02*
X147358594Y-93464563D01*
X145504800Y-116674272D02*
X145504800Y-114935238D01*
X145560652Y-117400000D02*
X145560652Y-116730124D01*
X145509600Y-101810574D02*
X145915224Y-101404950D01*
X145915224Y-101404950D02*
X145915224Y-94713902D01*
X149300000Y-92500000D02*
X149700000Y-92100000D01*
X148323157Y-92500000D02*
X149300000Y-92500000D01*
X145560652Y-116730124D02*
X145504800Y-116674272D01*
%TO.N,/USBxclk*%
D20*
X154900000Y-85500000D02*
X156700000Y-83700000D01*
X154100000Y-91100000D02*
X154900000Y-90300000D01*
X151952403Y-91100000D02*
X154100000Y-91100000D01*
X151070600Y-90235100D02*
X151087503Y-90235100D01*
X151087503Y-90235100D02*
X151952403Y-91100000D01*
X154900000Y-90300000D02*
X154900000Y-85500000D01*
%TO.N,/USB_TXD*%
D19*
X142718246Y-95940880D02*
X142062453Y-96596673D01*
X141026673Y-96596673D02*
X138700000Y-94270000D01*
X138700000Y-94270000D02*
X137600000Y-94270000D01*
X142062453Y-96596673D02*
X141026673Y-96596673D01*
%TO.N,/USB_RXD*%
X136301114Y-112498886D02*
X136301114Y-113698886D01*
X139555115Y-109744118D02*
X139055882Y-109744118D01*
X139055882Y-109744118D02*
X136301114Y-112498886D01*
X155295648Y-94033544D02*
X156109600Y-94847496D01*
X156542279Y-98505845D02*
X156542279Y-99069879D01*
X156109600Y-94847496D02*
X156109600Y-98073166D01*
X155295648Y-92912248D02*
X155295648Y-94033544D01*
X156109600Y-98073166D02*
X156542279Y-98505845D01*
X139678734Y-109620499D02*
X139555115Y-109744118D01*
%TO.N,/CARAVEL_GP27*%
X162148622Y-92301378D02*
X162190000Y-92260000D01*
X157300000Y-92301378D02*
X162148622Y-92301378D01*
%TO.N,/CARAVEL_GP26*%
X157708032Y-91792321D02*
X157718053Y-91802342D01*
X157718053Y-91802342D02*
X160107658Y-91802342D01*
X160107658Y-91802342D02*
X162190000Y-89720000D01*
%TO.N,/CARAVEL_GP25*%
X158792600Y-87457598D02*
X161912402Y-87457598D01*
X161912402Y-87457598D02*
X162190000Y-87180000D01*
%TO.N,/CARAVEL_GP24*%
X159851002Y-86978998D02*
X162190000Y-84640000D01*
X158349238Y-86978998D02*
X159851002Y-86978998D01*
X158349237Y-86978999D02*
X158349238Y-86978998D01*
%TO.N,/CARAVEL_GP23*%
X161100000Y-85298948D02*
X161100000Y-83190000D01*
X158792600Y-86500398D02*
X159898550Y-86500398D01*
X159898550Y-86500398D02*
X161100000Y-85298948D01*
X161100000Y-83190000D02*
X162190000Y-82100000D01*
%TO.N,/CARAVEL_GP22*%
X160795200Y-85172696D02*
X160795200Y-80954800D01*
X158349237Y-86021797D02*
X159946098Y-86021798D01*
X160795200Y-80954800D02*
X162190000Y-79560000D01*
X159946098Y-86021798D02*
X160795200Y-85172696D01*
%TO.N,/CARAVEL_GP21*%
X158792600Y-85543198D02*
X159993646Y-85543198D01*
X160490400Y-78719600D02*
X162190000Y-77020000D01*
X159993646Y-85543198D02*
X160490400Y-85046444D01*
X160490400Y-85046444D02*
X160490400Y-78719600D01*
%TO.N,Net-(J6-CC2)*%
X145266262Y-76600000D02*
X144500000Y-76600000D01*
X147800000Y-79133738D02*
X145266262Y-76600000D01*
X147800000Y-80747597D02*
X147800000Y-79133738D01*
%TO.N,/mprj_io[5]_ser_rx*%
X139700000Y-111021266D02*
X139678734Y-111000000D01*
X139250000Y-115700000D02*
X139600000Y-115700000D01*
X134929399Y-119206242D02*
X134960641Y-119175000D01*
X135775000Y-119175000D02*
X139250000Y-115700000D01*
X139700000Y-111100000D02*
X139700000Y-111021266D01*
X134960641Y-119175000D02*
X135775000Y-119175000D01*
X139600000Y-111200000D02*
X139700000Y-111100000D01*
X139600000Y-115700000D02*
X139600000Y-111200000D01*
%TO.N,/gpio*%
X154262500Y-121162500D02*
X155028600Y-121928600D01*
X151365995Y-120765995D02*
X151762500Y-121162500D01*
X152093229Y-128406771D02*
X136616150Y-128406771D01*
X151365995Y-120298818D02*
X151365995Y-120765995D01*
X155028600Y-125471400D02*
X152093229Y-128406771D01*
X155028600Y-121928600D02*
X155028600Y-125471400D01*
X151762500Y-121162500D02*
X154262500Y-121162500D01*
%TO.N,/CARAVEL_GP17*%
X144569688Y-86782396D02*
X143874724Y-87477360D01*
X137127360Y-87477360D02*
X131720000Y-82070000D01*
X144739138Y-86858738D02*
X144662796Y-86782396D01*
X143874724Y-87477360D02*
X137127360Y-87477360D01*
X144662796Y-86782396D02*
X144569688Y-86782396D01*
%TO.N,/CARAVEL_GP14*%
X146657200Y-87582800D02*
X146657200Y-88381747D01*
X144800747Y-90238200D02*
X135721043Y-90238200D01*
X135172843Y-89690000D02*
X131720000Y-89690000D01*
X146657200Y-88381747D02*
X144800747Y-90238200D01*
X135721043Y-90238200D02*
X135172843Y-89690000D01*
%TO.N,/CARAVEL_GP18*%
X138495717Y-87172560D02*
X131720000Y-80396843D01*
X145017861Y-86096200D02*
X144824832Y-86096200D01*
X143748472Y-87172560D02*
X138495717Y-87172560D01*
X131720000Y-80396843D02*
X131720000Y-79530000D01*
X144824832Y-86096200D02*
X143748472Y-87172560D01*
%TO.N,/CARAVEL_GP16*%
X144548243Y-89628600D02*
X137751757Y-89628600D01*
X145873800Y-87258305D02*
X145873800Y-88303043D01*
X145873800Y-87258305D02*
X146390452Y-86741653D01*
X145873800Y-88303043D02*
X144548243Y-89628600D01*
X132733157Y-84610000D02*
X131720000Y-84610000D01*
X137751757Y-89628600D02*
X132733157Y-84610000D01*
X148700000Y-86600000D02*
X148630491Y-86669509D01*
X146811783Y-86669509D02*
X146739639Y-86741653D01*
X146739639Y-86741653D02*
X146390452Y-86741653D01*
X148630491Y-86669509D02*
X146811783Y-86669509D01*
%TO.N,/CARAVEL_GP15*%
X147143748Y-87148109D02*
X147099839Y-87104200D01*
X146178600Y-88429295D02*
X144674495Y-89933400D01*
X147099839Y-87104200D02*
X146458957Y-87104200D01*
X136133400Y-89933400D02*
X133350000Y-87150000D01*
X146458957Y-87104200D02*
X146178600Y-87384557D01*
X144674495Y-89933400D02*
X136133400Y-89933400D01*
X146178600Y-87384557D02*
X146178600Y-88429295D01*
X133350000Y-87150000D02*
X131720000Y-87150000D01*
%TO.N,/CARAVEL_GP19*%
X145798243Y-85321400D02*
X144878600Y-85321400D01*
X144878600Y-85321400D02*
X144325368Y-85874632D01*
X132798600Y-78068600D02*
X131720000Y-76990000D01*
X146229125Y-85752282D02*
X145798243Y-85321400D01*
X146229128Y-85972703D02*
X146229125Y-85972700D01*
X146229125Y-85972700D02*
X146229125Y-85752282D01*
X132798600Y-79821757D02*
X132798600Y-78068600D01*
X143622220Y-86867760D02*
X139844603Y-86867760D01*
X144325368Y-86164612D02*
X143622220Y-86867760D01*
X139844603Y-86867760D02*
X132798600Y-79821757D01*
X144325368Y-85874632D02*
X144325368Y-86164612D01*
%TD*%
%TA.AperFunction,Conductor*%
%TO.N,GND*%
G36*
X140291251Y-105037252D02*
G01*
X140317997Y-105044419D01*
X140340690Y-105050500D01*
X140340691Y-105050500D01*
X140428535Y-105050500D01*
X140480861Y-105072174D01*
X141128960Y-105720273D01*
X141150634Y-105772599D01*
X141150634Y-122557401D01*
X141128960Y-122609727D01*
X140388584Y-123350103D01*
X140388583Y-123350105D01*
X140352156Y-123413194D01*
X140352156Y-123413198D01*
X140333300Y-123483573D01*
X140333300Y-125371596D01*
X140311626Y-125423922D01*
X140287620Y-125439963D01*
X140253188Y-125454225D01*
X140138461Y-125530883D01*
X140040881Y-125628463D01*
X140011528Y-125672394D01*
X139964436Y-125703859D01*
X139908887Y-125692809D01*
X139888472Y-125672394D01*
X139859118Y-125628463D01*
X139859116Y-125628461D01*
X139859114Y-125628458D01*
X139761542Y-125530886D01*
X139649586Y-125456079D01*
X139618122Y-125408987D01*
X139616700Y-125394551D01*
X139616700Y-123665264D01*
X139638373Y-123612939D01*
X140378749Y-122872564D01*
X140415178Y-122809469D01*
X140434034Y-122739094D01*
X140434034Y-122666238D01*
X140434034Y-107818184D01*
X140426101Y-107788574D01*
X140421743Y-107772310D01*
X140421743Y-107772309D01*
X140415179Y-107747813D01*
X140415178Y-107747809D01*
X140378749Y-107684714D01*
X140219774Y-107525739D01*
X140198100Y-107473413D01*
X140198100Y-105108731D01*
X140219774Y-105056405D01*
X140272100Y-105034731D01*
X140291251Y-105037252D01*
G37*
%TD.AperFunction*%
%TA.AperFunction,Conductor*%
G36*
X151026826Y-112346297D02*
G01*
X153587547Y-114907018D01*
X153609221Y-114959344D01*
X153609221Y-118750107D01*
X153587547Y-118802433D01*
X153554374Y-118821585D01*
X153513372Y-118832571D01*
X153513367Y-118832573D01*
X153410645Y-118891880D01*
X153326764Y-118975761D01*
X153280483Y-119055922D01*
X153235549Y-119090400D01*
X153179396Y-119083007D01*
X153164071Y-119071247D01*
X152916508Y-118823684D01*
X152894834Y-118771358D01*
X152894834Y-116776298D01*
X152904749Y-116739297D01*
X152919906Y-116713044D01*
X152919908Y-116713041D01*
X152942226Y-116629749D01*
X152942227Y-116629749D01*
X152942227Y-115938674D01*
X152942226Y-115938673D01*
X152941503Y-115935976D01*
X152919908Y-115855382D01*
X152876792Y-115780702D01*
X152815817Y-115719727D01*
X152672174Y-115576084D01*
X152650500Y-115523758D01*
X152650500Y-115507754D01*
X152650499Y-115507753D01*
X152619800Y-115393182D01*
X152619798Y-115393177D01*
X152560491Y-115290455D01*
X152560490Y-115290454D01*
X152560489Y-115290452D01*
X152476613Y-115206576D01*
X152476610Y-115206574D01*
X152476609Y-115206573D01*
X152373887Y-115147266D01*
X152373882Y-115147264D01*
X152259311Y-115116565D01*
X152259309Y-115116565D01*
X152140691Y-115116565D01*
X152140689Y-115116565D01*
X152026117Y-115147264D01*
X152026112Y-115147266D01*
X151923390Y-115206573D01*
X151839508Y-115290455D01*
X151780201Y-115393177D01*
X151780199Y-115393182D01*
X151749500Y-115507753D01*
X151749500Y-115626376D01*
X151780199Y-115740947D01*
X151780201Y-115740952D01*
X151839508Y-115843674D01*
X151839509Y-115843675D01*
X151839511Y-115843678D01*
X151923387Y-115927554D01*
X151923389Y-115927555D01*
X151923390Y-115927556D01*
X152026112Y-115986863D01*
X152026114Y-115986864D01*
X152026115Y-115986864D01*
X152026117Y-115986865D01*
X152083402Y-116002214D01*
X152140688Y-116017564D01*
X152140689Y-116017565D01*
X152140691Y-116017565D01*
X152156693Y-116017565D01*
X152209019Y-116039239D01*
X152265553Y-116095773D01*
X152287227Y-116148099D01*
X152287227Y-116444356D01*
X152277313Y-116481355D01*
X152262152Y-116507614D01*
X152239834Y-116590905D01*
X152239834Y-118571218D01*
X152218160Y-118623544D01*
X152165834Y-118645218D01*
X152113508Y-118623544D01*
X150922174Y-117432210D01*
X150900500Y-117379884D01*
X150900500Y-112398623D01*
X150922174Y-112346297D01*
X150974500Y-112324623D01*
X151026826Y-112346297D01*
G37*
%TD.AperFunction*%
%TA.AperFunction,Conductor*%
G36*
X138309252Y-108258553D02*
G01*
X138328404Y-108291726D01*
X138333599Y-108311115D01*
X138333603Y-108311124D01*
X138392908Y-108413843D01*
X138392909Y-108413844D01*
X138392911Y-108413847D01*
X138777826Y-108798762D01*
X138799500Y-108851087D01*
X138799500Y-108947124D01*
X138840421Y-109099844D01*
X138840422Y-109099846D01*
X138840423Y-109099849D01*
X138912114Y-109224022D01*
X138919480Y-109236781D01*
X139031873Y-109349174D01*
X139053547Y-109401500D01*
X139031873Y-109453826D01*
X138998700Y-109472978D01*
X138949084Y-109486272D01*
X138949075Y-109486276D01*
X138885987Y-109522700D01*
X136079698Y-112328989D01*
X136079697Y-112328991D01*
X136043270Y-112392080D01*
X136043270Y-112392083D01*
X136043270Y-112392084D01*
X136028681Y-112446535D01*
X136024414Y-112462459D01*
X136024414Y-113307832D01*
X136002740Y-113360158D01*
X135940622Y-113422276D01*
X135881315Y-113524998D01*
X135881313Y-113525003D01*
X135850614Y-113639574D01*
X135850614Y-113758197D01*
X135881313Y-113872768D01*
X135881315Y-113872773D01*
X135940622Y-113975495D01*
X135940623Y-113975496D01*
X135940625Y-113975499D01*
X136024501Y-114059375D01*
X136024503Y-114059376D01*
X136024504Y-114059377D01*
X136111960Y-114109870D01*
X136127228Y-114118685D01*
X136127229Y-114118685D01*
X136127231Y-114118686D01*
X136184516Y-114134035D01*
X136241802Y-114149385D01*
X136241803Y-114149386D01*
X136241805Y-114149386D01*
X136360425Y-114149386D01*
X136360425Y-114149385D01*
X136475000Y-114118685D01*
X136577727Y-114059375D01*
X136661603Y-113975499D01*
X136720913Y-113872772D01*
X136751613Y-113758197D01*
X136751614Y-113758197D01*
X136751614Y-113639575D01*
X136751613Y-113639574D01*
X136720914Y-113525003D01*
X136720912Y-113524998D01*
X136661605Y-113422276D01*
X136661604Y-113422275D01*
X136661603Y-113422273D01*
X136599488Y-113360158D01*
X136577814Y-113307832D01*
X136577814Y-112644151D01*
X136599488Y-112591825D01*
X139148821Y-110042492D01*
X139201147Y-110020818D01*
X139451279Y-110020818D01*
X139488279Y-110030732D01*
X139504848Y-110040298D01*
X139504849Y-110040298D01*
X139504851Y-110040299D01*
X139562136Y-110055648D01*
X139619422Y-110070998D01*
X139619423Y-110070999D01*
X139619425Y-110070999D01*
X139738044Y-110070999D01*
X139760736Y-110064918D01*
X139787480Y-110057752D01*
X139843633Y-110065144D01*
X139878112Y-110110076D01*
X139880634Y-110129230D01*
X139880634Y-110491268D01*
X139858960Y-110543594D01*
X139806634Y-110565268D01*
X139787482Y-110562747D01*
X139738043Y-110549500D01*
X139619425Y-110549500D01*
X139619423Y-110549500D01*
X139504851Y-110580199D01*
X139504846Y-110580201D01*
X139402124Y-110639508D01*
X139318242Y-110723390D01*
X139258935Y-110826112D01*
X139258933Y-110826117D01*
X139228234Y-110940688D01*
X139228234Y-111059311D01*
X139258933Y-111173882D01*
X139258935Y-111173887D01*
X139313386Y-111268197D01*
X139323300Y-111305197D01*
X139323300Y-115308946D01*
X139301626Y-115361272D01*
X139261272Y-115401626D01*
X139217971Y-115419561D01*
X139218380Y-115422667D01*
X139213574Y-115423299D01*
X139143196Y-115442156D01*
X139143190Y-115442159D01*
X139080105Y-115478583D01*
X139080103Y-115478584D01*
X138228201Y-116330485D01*
X138175875Y-116352159D01*
X138123549Y-116330485D01*
X138101875Y-116278159D01*
X138103297Y-116263722D01*
X138122134Y-116169022D01*
X138122134Y-115961307D01*
X138117632Y-115938676D01*
X138081610Y-115757579D01*
X138074723Y-115740952D01*
X138002121Y-115565674D01*
X137974113Y-115523758D01*
X137886717Y-115392961D01*
X137739838Y-115246082D01*
X137705988Y-115223464D01*
X137567124Y-115130677D01*
X137375224Y-115051190D01*
X137375214Y-115051187D01*
X137238785Y-115024050D01*
X137171493Y-115010665D01*
X136963775Y-115010665D01*
X136906020Y-115022153D01*
X136760053Y-115051187D01*
X136760043Y-115051190D01*
X136568143Y-115130677D01*
X136395433Y-115246079D01*
X136248548Y-115392964D01*
X136133146Y-115565674D01*
X136053659Y-115757574D01*
X136053656Y-115757584D01*
X136034203Y-115855384D01*
X136018173Y-115935976D01*
X136013134Y-115961307D01*
X136013134Y-116169022D01*
X136053656Y-116372745D01*
X136053659Y-116372755D01*
X136133146Y-116564655D01*
X136236420Y-116719215D01*
X136248551Y-116737369D01*
X136395430Y-116884248D01*
X136568141Y-116999651D01*
X136568142Y-116999651D01*
X136568143Y-116999652D01*
X136590581Y-117008946D01*
X136760048Y-117079141D01*
X136963775Y-117119665D01*
X136963777Y-117119665D01*
X137171491Y-117119665D01*
X137171493Y-117119665D01*
X137266191Y-117100828D01*
X137321739Y-117111877D01*
X137353205Y-117158969D01*
X137342156Y-117214518D01*
X137332953Y-117225732D01*
X135682061Y-118876626D01*
X135629735Y-118898300D01*
X135289211Y-118898300D01*
X135236886Y-118876627D01*
X135236885Y-118876626D01*
X135206012Y-118845753D01*
X135206009Y-118845751D01*
X135206008Y-118845750D01*
X135103286Y-118786443D01*
X135103281Y-118786441D01*
X134988710Y-118755742D01*
X134988708Y-118755742D01*
X134870090Y-118755742D01*
X134870088Y-118755742D01*
X134820653Y-118768988D01*
X134764500Y-118761596D01*
X134730022Y-118716663D01*
X134727500Y-118697510D01*
X134727500Y-111766306D01*
X134749174Y-111713980D01*
X136442336Y-110020818D01*
X138204601Y-108258552D01*
X138256926Y-108236879D01*
X138309252Y-108258553D01*
G37*
%TD.AperFunction*%
%TA.AperFunction,Conductor*%
G36*
X148226052Y-97947193D02*
G01*
X148241380Y-97958954D01*
X149123026Y-98840600D01*
X149144700Y-98892925D01*
X149144700Y-99484972D01*
X149144700Y-99557828D01*
X149163556Y-99628203D01*
X149199985Y-99691298D01*
X149569176Y-100060489D01*
X149831076Y-100322389D01*
X149852750Y-100374715D01*
X149831076Y-100427041D01*
X149797905Y-100446193D01*
X149779043Y-100451247D01*
X149642109Y-100530305D01*
X149530306Y-100642108D01*
X149451250Y-100779039D01*
X149451247Y-100779045D01*
X149410326Y-100931765D01*
X149410326Y-101089884D01*
X149451247Y-101242604D01*
X149451248Y-101242606D01*
X149451249Y-101242609D01*
X149530306Y-101379541D01*
X149642110Y-101491345D01*
X149779042Y-101570402D01*
X149931766Y-101611324D01*
X149931767Y-101611325D01*
X149931769Y-101611325D01*
X149943571Y-101611325D01*
X149995897Y-101632999D01*
X151464910Y-103102012D01*
X151486584Y-103154338D01*
X151486584Y-104446365D01*
X151484063Y-104465516D01*
X151475531Y-104497360D01*
X151475531Y-105156444D01*
X151483823Y-105187391D01*
X151484062Y-105188281D01*
X151486584Y-105207435D01*
X151486584Y-110838989D01*
X151464910Y-110891315D01*
X151412584Y-110912989D01*
X151360258Y-110891315D01*
X148460373Y-107991430D01*
X148438699Y-107939104D01*
X148438699Y-100195601D01*
X148460373Y-100143275D01*
X148493546Y-100124123D01*
X148509686Y-100119799D01*
X148612413Y-100060489D01*
X148696289Y-99976613D01*
X148755599Y-99873886D01*
X148786299Y-99759311D01*
X148786300Y-99759311D01*
X148786300Y-99640689D01*
X148786299Y-99640688D01*
X148755600Y-99526117D01*
X148755598Y-99526112D01*
X148696291Y-99423390D01*
X148696290Y-99423389D01*
X148696289Y-99423387D01*
X148612413Y-99339511D01*
X148612410Y-99339509D01*
X148612409Y-99339508D01*
X148509687Y-99280201D01*
X148509682Y-99280199D01*
X148395111Y-99249500D01*
X148395109Y-99249500D01*
X148276491Y-99249500D01*
X148227052Y-99262747D01*
X148170900Y-99255354D01*
X148136421Y-99210420D01*
X148133900Y-99191268D01*
X148133900Y-98716438D01*
X148133899Y-98716437D01*
X148111582Y-98633148D01*
X148111581Y-98633146D01*
X148068465Y-98558466D01*
X148022220Y-98512221D01*
X148000546Y-98459895D01*
X148000546Y-98452275D01*
X148022219Y-98399950D01*
X148033535Y-98388635D01*
X148092845Y-98285908D01*
X148123545Y-98171333D01*
X148123546Y-98171333D01*
X148123546Y-98052712D01*
X148120843Y-98042625D01*
X148117576Y-98030433D01*
X148124967Y-97974282D01*
X148169900Y-97939802D01*
X148226052Y-97947193D01*
G37*
%TD.AperFunction*%
%TA.AperFunction,Conductor*%
G36*
X147472468Y-93733983D02*
G01*
X147494908Y-93736937D01*
X147498828Y-93742045D01*
X147504985Y-93743929D01*
X147515607Y-93763913D01*
X147529386Y-93781870D01*
X147530780Y-93792457D01*
X147531568Y-93793940D01*
X147531153Y-93795294D01*
X147531908Y-93801023D01*
X147531908Y-97098441D01*
X147531908Y-97171297D01*
X147550764Y-97241672D01*
X147587193Y-97304767D01*
X147826114Y-97543688D01*
X147847788Y-97596013D01*
X147826114Y-97648339D01*
X147773788Y-97670013D01*
X147754636Y-97667492D01*
X147732355Y-97661522D01*
X147613737Y-97661522D01*
X147613735Y-97661522D01*
X147499163Y-97692221D01*
X147499158Y-97692223D01*
X147396436Y-97751530D01*
X147312554Y-97835412D01*
X147253247Y-97938134D01*
X147253245Y-97938139D01*
X147222546Y-98052710D01*
X147222546Y-98171333D01*
X147253245Y-98285904D01*
X147253247Y-98285909D01*
X147312554Y-98388631D01*
X147312555Y-98388632D01*
X147312557Y-98388635D01*
X147323872Y-98399950D01*
X147345546Y-98452275D01*
X147345546Y-98669320D01*
X147367863Y-98752609D01*
X147410981Y-98827292D01*
X147457226Y-98873537D01*
X147478900Y-98925863D01*
X147478900Y-107837093D01*
X147457226Y-107889419D01*
X147404900Y-107911093D01*
X147352574Y-107889419D01*
X146784295Y-107321140D01*
X146762621Y-107268814D01*
X146762621Y-105952667D01*
X146784294Y-105900342D01*
X146808024Y-105876613D01*
X146867334Y-105773886D01*
X146898034Y-105659311D01*
X146898035Y-105659311D01*
X146898035Y-105540689D01*
X146898034Y-105540688D01*
X146867335Y-105426117D01*
X146867333Y-105426112D01*
X146808026Y-105323390D01*
X146808025Y-105323389D01*
X146808024Y-105323387D01*
X146724148Y-105239511D01*
X146724145Y-105239509D01*
X146724144Y-105239508D01*
X146621422Y-105180201D01*
X146621417Y-105180199D01*
X146506846Y-105149500D01*
X146506844Y-105149500D01*
X146388226Y-105149500D01*
X146388224Y-105149500D01*
X146273652Y-105180199D01*
X146273647Y-105180201D01*
X146170925Y-105239508D01*
X146087043Y-105323390D01*
X146027736Y-105426112D01*
X146027734Y-105426117D01*
X145997035Y-105540688D01*
X145997035Y-105659311D01*
X146027734Y-105773882D01*
X146027736Y-105773887D01*
X146087043Y-105876609D01*
X146087044Y-105876610D01*
X146087046Y-105876613D01*
X146170922Y-105960489D01*
X146172215Y-105961235D01*
X146172674Y-105961833D01*
X146174769Y-105963441D01*
X146174338Y-105964002D01*
X146206697Y-106006163D01*
X146209221Y-106025324D01*
X146209221Y-107377651D01*
X146209221Y-107450507D01*
X146211137Y-107457657D01*
X146203743Y-107513810D01*
X146158811Y-107548287D01*
X146065755Y-107573221D01*
X146065749Y-107573224D01*
X145928818Y-107652280D01*
X145912626Y-107668473D01*
X145860300Y-107690147D01*
X145807974Y-107668473D01*
X145786300Y-107616147D01*
X145786300Y-101955838D01*
X145807973Y-101903513D01*
X146136639Y-101574848D01*
X146173068Y-101511753D01*
X146191924Y-101441378D01*
X146191924Y-101368522D01*
X146191924Y-94859167D01*
X146213598Y-94806841D01*
X147257502Y-93762937D01*
X147302745Y-93741603D01*
X147306281Y-93741263D01*
X147322166Y-93741263D01*
X147395022Y-93741263D01*
X147444702Y-93727951D01*
X147450825Y-93727363D01*
X147472468Y-93733983D01*
G37*
%TD.AperFunction*%
%TA.AperFunction,Conductor*%
G36*
X145007250Y-94824684D02*
G01*
X145028924Y-94877010D01*
X145028924Y-101007181D01*
X145007250Y-101059507D01*
X144678584Y-101388173D01*
X144678583Y-101388175D01*
X144642159Y-101451260D01*
X144642154Y-101451271D01*
X144633660Y-101482970D01*
X144633661Y-101482971D01*
X144623300Y-101521641D01*
X144623300Y-101572414D01*
X144601626Y-101624740D01*
X144549300Y-101646414D01*
X144496974Y-101624740D01*
X144494229Y-101621842D01*
X144489071Y-101616095D01*
X144480520Y-101601284D01*
X144434240Y-101555004D01*
X144432900Y-101553511D01*
X144424104Y-101528548D01*
X144413971Y-101504083D01*
X144413971Y-97377805D01*
X144416492Y-97358653D01*
X144423100Y-97333995D01*
X144423100Y-96694667D01*
X144444774Y-96642341D01*
X144446771Y-96640344D01*
X144453120Y-96633995D01*
X144532177Y-96497063D01*
X144573099Y-96344338D01*
X144573100Y-96344338D01*
X144573100Y-96186220D01*
X144573099Y-96186219D01*
X144532178Y-96033499D01*
X144532177Y-96033495D01*
X144453120Y-95896563D01*
X144341316Y-95784759D01*
X144204384Y-95705702D01*
X144204381Y-95705701D01*
X144184013Y-95700243D01*
X144139081Y-95665762D01*
X144131690Y-95609610D01*
X144150840Y-95576441D01*
X144902599Y-94824683D01*
X144954924Y-94803010D01*
X145007250Y-94824684D01*
G37*
%TD.AperFunction*%
%TA.AperFunction,Conductor*%
G36*
X144899623Y-91146174D02*
G01*
X144921297Y-91198500D01*
X144899623Y-91250824D01*
X144862020Y-91288428D01*
X144827058Y-91323390D01*
X144767751Y-91426112D01*
X144767749Y-91426117D01*
X144737050Y-91540688D01*
X144737050Y-91659311D01*
X144767749Y-91773882D01*
X144767751Y-91773887D01*
X144827058Y-91876609D01*
X144827059Y-91876610D01*
X144827061Y-91876613D01*
X144910937Y-91960489D01*
X145013664Y-92019799D01*
X145013665Y-92019799D01*
X145013667Y-92019800D01*
X145032197Y-92024765D01*
X145128238Y-92050499D01*
X145128239Y-92050500D01*
X145128241Y-92050500D01*
X145246861Y-92050500D01*
X145246861Y-92050499D01*
X145361436Y-92019799D01*
X145464163Y-91960489D01*
X145548039Y-91876613D01*
X145607349Y-91773886D01*
X145638049Y-91659311D01*
X145638050Y-91659311D01*
X145638050Y-91650700D01*
X145659724Y-91598374D01*
X145712050Y-91576700D01*
X146831636Y-91576700D01*
X146868636Y-91586614D01*
X146926112Y-91619798D01*
X146926114Y-91619799D01*
X146926115Y-91619799D01*
X146926117Y-91619800D01*
X146948812Y-91625881D01*
X147040688Y-91650499D01*
X147040689Y-91650500D01*
X147040691Y-91650500D01*
X147159311Y-91650500D01*
X147159311Y-91650499D01*
X147251188Y-91625881D01*
X147307341Y-91633273D01*
X147341819Y-91678206D01*
X147334427Y-91734359D01*
X147322667Y-91749685D01*
X146820564Y-92251789D01*
X146768238Y-92273463D01*
X146749379Y-92273463D01*
X146747797Y-92273887D01*
X146679003Y-92292319D01*
X146678997Y-92292322D01*
X146615912Y-92328746D01*
X146615910Y-92328747D01*
X146049372Y-92895284D01*
X145997046Y-92916958D01*
X145944720Y-92895284D01*
X145923046Y-92842958D01*
X145925567Y-92823807D01*
X145938763Y-92774563D01*
X145942850Y-92759310D01*
X145942850Y-92640689D01*
X145942849Y-92640688D01*
X145912150Y-92526117D01*
X145912148Y-92526112D01*
X145852841Y-92423390D01*
X145852840Y-92423389D01*
X145852839Y-92423387D01*
X145768963Y-92339511D01*
X145768960Y-92339509D01*
X145768959Y-92339508D01*
X145666237Y-92280201D01*
X145666232Y-92280199D01*
X145551661Y-92249500D01*
X145551659Y-92249500D01*
X145433041Y-92249500D01*
X145433039Y-92249500D01*
X145318467Y-92280199D01*
X145318462Y-92280201D01*
X145215740Y-92339508D01*
X145131858Y-92423390D01*
X145072551Y-92526112D01*
X145072549Y-92526117D01*
X145041850Y-92640688D01*
X145041850Y-92759311D01*
X145072549Y-92873882D01*
X145072551Y-92873887D01*
X145131858Y-92976609D01*
X145131859Y-92976610D01*
X145131861Y-92976613D01*
X145193976Y-93038728D01*
X145215650Y-93091053D01*
X145215650Y-93267303D01*
X145193976Y-93319629D01*
X143359520Y-95154085D01*
X143307194Y-95175759D01*
X142418236Y-95175759D01*
X142381236Y-95165845D01*
X142355045Y-95150723D01*
X142355040Y-95150721D01*
X142240469Y-95120022D01*
X142240467Y-95120022D01*
X142121849Y-95120022D01*
X142121847Y-95120022D01*
X142007275Y-95150721D01*
X142007270Y-95150723D01*
X141904548Y-95210030D01*
X141820666Y-95293912D01*
X141761359Y-95396634D01*
X141761357Y-95396639D01*
X141730658Y-95511210D01*
X141730658Y-95629833D01*
X141761357Y-95744404D01*
X141761359Y-95744409D01*
X141820666Y-95847131D01*
X141820667Y-95847132D01*
X141820669Y-95847135D01*
X141904545Y-95931011D01*
X142007272Y-95990321D01*
X142007273Y-95990321D01*
X142007275Y-95990322D01*
X142096582Y-96014252D01*
X142141515Y-96048730D01*
X142148907Y-96104883D01*
X142129755Y-96138056D01*
X141969514Y-96298299D01*
X141917188Y-96319973D01*
X141171938Y-96319973D01*
X141119612Y-96298299D01*
X140248189Y-95426876D01*
X139275234Y-94453921D01*
X139836267Y-94453921D01*
X139836267Y-94572544D01*
X139866966Y-94687115D01*
X139866968Y-94687120D01*
X139926275Y-94789842D01*
X139926276Y-94789843D01*
X139926278Y-94789846D01*
X140010154Y-94873722D01*
X140010156Y-94873723D01*
X140010157Y-94873724D01*
X140112879Y-94933031D01*
X140112881Y-94933032D01*
X140112882Y-94933032D01*
X140112884Y-94933033D01*
X140152239Y-94943578D01*
X140227455Y-94963732D01*
X140227456Y-94963733D01*
X140227458Y-94963733D01*
X140346078Y-94963733D01*
X140346078Y-94963732D01*
X140460653Y-94933032D01*
X140563380Y-94873722D01*
X140647256Y-94789846D01*
X140647258Y-94789841D01*
X140647260Y-94789840D01*
X140649820Y-94786505D01*
X140657225Y-94779102D01*
X140656852Y-94778729D01*
X141693381Y-93742200D01*
X141745707Y-93720526D01*
X141761711Y-93720526D01*
X141761711Y-93720525D01*
X141876286Y-93689825D01*
X141979013Y-93630515D01*
X142062889Y-93546639D01*
X142122199Y-93443912D01*
X142152899Y-93329337D01*
X142152900Y-93329337D01*
X142152900Y-93210715D01*
X142152899Y-93210714D01*
X142122200Y-93096143D01*
X142122198Y-93096138D01*
X142062891Y-92993416D01*
X142062890Y-92993415D01*
X142062889Y-92993413D01*
X141979013Y-92909537D01*
X141979010Y-92909535D01*
X141979009Y-92909534D01*
X141876287Y-92850227D01*
X141876282Y-92850225D01*
X141761711Y-92819526D01*
X141761709Y-92819526D01*
X141643091Y-92819526D01*
X141643089Y-92819526D01*
X141528517Y-92850225D01*
X141528512Y-92850227D01*
X141425790Y-92909534D01*
X141341908Y-92993416D01*
X141282601Y-93096138D01*
X141282599Y-93096143D01*
X141251900Y-93210714D01*
X141251900Y-93226718D01*
X141230226Y-93279044D01*
X140455517Y-94053752D01*
X140403191Y-94075426D01*
X140384039Y-94072905D01*
X140346076Y-94062733D01*
X140227458Y-94062733D01*
X140227456Y-94062733D01*
X140112884Y-94093432D01*
X140112879Y-94093434D01*
X140010157Y-94152741D01*
X139926275Y-94236623D01*
X139866968Y-94339345D01*
X139866966Y-94339350D01*
X139836267Y-94453921D01*
X139275234Y-94453921D01*
X138869898Y-94048585D01*
X138844660Y-94034013D01*
X138806809Y-94012159D01*
X138806803Y-94012156D01*
X138760049Y-93999629D01*
X138736428Y-93993300D01*
X138736427Y-93993300D01*
X138293048Y-93993300D01*
X138240722Y-93971626D01*
X138224681Y-93947619D01*
X138220775Y-93938189D01*
X138144116Y-93823461D01*
X138144114Y-93823458D01*
X138046542Y-93725886D01*
X138041335Y-93722407D01*
X138002606Y-93696529D01*
X137971140Y-93649437D01*
X137982189Y-93593888D01*
X138002606Y-93573471D01*
X138046542Y-93544114D01*
X138144114Y-93446542D01*
X138220775Y-93331811D01*
X138273580Y-93204328D01*
X138300500Y-93068993D01*
X138300500Y-92931007D01*
X138273580Y-92795672D01*
X138258519Y-92759311D01*
X138220776Y-92668191D01*
X138216550Y-92661867D01*
X138144114Y-92553458D01*
X138135406Y-92544750D01*
X138113733Y-92492426D01*
X138135407Y-92440100D01*
X138173295Y-92419848D01*
X138178231Y-92418867D01*
X138244552Y-92374552D01*
X138288867Y-92308231D01*
X138300500Y-92249748D01*
X138300500Y-91210252D01*
X138300500Y-91210249D01*
X138300144Y-91206637D01*
X138302323Y-91206422D01*
X138312094Y-91157372D01*
X138359194Y-91125918D01*
X138373612Y-91124500D01*
X144847297Y-91124500D01*
X144899623Y-91146174D01*
G37*
%TD.AperFunction*%
%TA.AperFunction,Conductor*%
G36*
X155201626Y-90566181D02*
G01*
X155223300Y-90618507D01*
X155223300Y-91454735D01*
X155201626Y-91507061D01*
X154278584Y-92430103D01*
X154278583Y-92430105D01*
X154242159Y-92493190D01*
X154242156Y-92493195D01*
X154242156Y-92493197D01*
X154228343Y-92544752D01*
X154224468Y-92559215D01*
X154224466Y-92559222D01*
X154223300Y-92563569D01*
X154223300Y-93687893D01*
X154201626Y-93740219D01*
X154149300Y-93761893D01*
X154096974Y-93740219D01*
X151910581Y-91553826D01*
X151888907Y-91501500D01*
X151910581Y-91449174D01*
X151962907Y-91427500D01*
X154143118Y-91427500D01*
X154143118Y-91427499D01*
X154201663Y-91411811D01*
X154226407Y-91405182D01*
X154226407Y-91405181D01*
X154226410Y-91405181D01*
X154301090Y-91362065D01*
X155096974Y-90566181D01*
X155149300Y-90544507D01*
X155201626Y-90566181D01*
G37*
%TD.AperFunction*%
%TA.AperFunction,Conductor*%
G36*
X150278281Y-85206395D02*
G01*
X150288195Y-85207700D01*
X150315282Y-85234786D01*
X150324626Y-85250971D01*
X150324627Y-85250972D01*
X150324629Y-85250975D01*
X150408505Y-85334851D01*
X150408507Y-85334852D01*
X150408508Y-85334853D01*
X150476659Y-85374200D01*
X150511232Y-85394161D01*
X150511233Y-85394161D01*
X150511235Y-85394162D01*
X150540905Y-85402112D01*
X150625806Y-85424861D01*
X150625807Y-85424862D01*
X150625809Y-85424862D01*
X150744429Y-85424862D01*
X150744429Y-85424861D01*
X150859004Y-85394161D01*
X150956232Y-85338026D01*
X151012384Y-85330633D01*
X151057318Y-85365112D01*
X151067232Y-85402112D01*
X151067232Y-89600300D01*
X151090806Y-89688277D01*
X151089008Y-89688758D01*
X151089008Y-89738920D01*
X151048959Y-89778968D01*
X151020641Y-89784600D01*
X151011289Y-89784600D01*
X150896717Y-89815299D01*
X150896712Y-89815301D01*
X150793990Y-89874608D01*
X150710108Y-89958490D01*
X150650801Y-90061212D01*
X150650799Y-90061217D01*
X150620100Y-90175788D01*
X150620100Y-90294411D01*
X150650799Y-90408982D01*
X150650801Y-90408987D01*
X150710108Y-90511709D01*
X150710109Y-90511710D01*
X150710111Y-90511713D01*
X150793987Y-90595589D01*
X150793989Y-90595590D01*
X150793990Y-90595591D01*
X150892278Y-90652338D01*
X150896714Y-90654899D01*
X150896715Y-90654899D01*
X150896717Y-90654900D01*
X150921349Y-90661500D01*
X151011288Y-90685599D01*
X151011289Y-90685600D01*
X151011291Y-90685600D01*
X151044196Y-90685600D01*
X151096522Y-90707274D01*
X151441822Y-91052574D01*
X151463496Y-91104900D01*
X151441822Y-91157226D01*
X151389496Y-91178900D01*
X150772707Y-91178900D01*
X150720381Y-91157226D01*
X150219774Y-90656619D01*
X150198100Y-90604293D01*
X150198100Y-90163657D01*
X150198099Y-90163656D01*
X150187239Y-90123128D01*
X150175781Y-90080365D01*
X150174526Y-90075681D01*
X150175000Y-90075553D01*
X150170489Y-90052870D01*
X150170489Y-89996853D01*
X150170488Y-89996852D01*
X150170370Y-89996413D01*
X150139788Y-89882278D01*
X150139787Y-89882276D01*
X150080480Y-89779554D01*
X150080479Y-89779553D01*
X150080478Y-89779551D01*
X149996602Y-89695675D01*
X149996599Y-89695673D01*
X149996598Y-89695672D01*
X149893876Y-89636365D01*
X149893871Y-89636363D01*
X149779300Y-89605664D01*
X149779298Y-89605664D01*
X149660680Y-89605664D01*
X149660678Y-89605664D01*
X149546106Y-89636363D01*
X149546101Y-89636365D01*
X149443379Y-89695672D01*
X149359497Y-89779554D01*
X149337042Y-89818448D01*
X149321714Y-89830209D01*
X149309955Y-89845534D01*
X149300042Y-89846838D01*
X149292108Y-89852927D01*
X149253803Y-89852926D01*
X149164958Y-89829119D01*
X149120025Y-89794640D01*
X149112633Y-89738488D01*
X149131783Y-89705318D01*
X149160489Y-89676613D01*
X149219799Y-89573886D01*
X149250499Y-89459311D01*
X149250500Y-89459311D01*
X149250500Y-89340689D01*
X149250499Y-89340688D01*
X149241887Y-89308549D01*
X149219799Y-89226114D01*
X149199924Y-89191689D01*
X149160491Y-89123390D01*
X149160490Y-89123389D01*
X149160489Y-89123387D01*
X149076613Y-89039511D01*
X149076610Y-89039509D01*
X149076609Y-89039508D01*
X148973887Y-88980201D01*
X148973882Y-88980199D01*
X148859311Y-88949500D01*
X148859309Y-88949500D01*
X148740691Y-88949500D01*
X148740689Y-88949500D01*
X148626117Y-88980199D01*
X148626112Y-88980201D01*
X148523390Y-89039508D01*
X148461272Y-89101626D01*
X148408946Y-89123300D01*
X146916663Y-89123300D01*
X146864337Y-89101626D01*
X146842663Y-89049300D01*
X146864337Y-88996974D01*
X147762937Y-88098374D01*
X147815263Y-88076700D01*
X148308946Y-88076700D01*
X148361272Y-88098374D01*
X148423387Y-88160489D01*
X148423389Y-88160490D01*
X148423390Y-88160491D01*
X148474726Y-88190130D01*
X148526114Y-88219799D01*
X148526115Y-88219799D01*
X148526117Y-88219800D01*
X148550827Y-88226421D01*
X148640688Y-88250499D01*
X148640689Y-88250500D01*
X148640691Y-88250500D01*
X148759311Y-88250500D01*
X148759311Y-88250499D01*
X148873886Y-88219799D01*
X148976613Y-88160489D01*
X149060489Y-88076613D01*
X149119799Y-87973886D01*
X149150499Y-87859311D01*
X149150500Y-87859311D01*
X149150500Y-87740689D01*
X149150499Y-87740688D01*
X149148762Y-87734207D01*
X149119799Y-87626114D01*
X149091155Y-87576501D01*
X149060491Y-87523390D01*
X149060490Y-87523389D01*
X149060489Y-87523387D01*
X148976613Y-87439511D01*
X148976610Y-87439509D01*
X148976609Y-87439508D01*
X148873887Y-87380201D01*
X148873882Y-87380199D01*
X148759311Y-87349500D01*
X148759309Y-87349500D01*
X148640691Y-87349500D01*
X148640689Y-87349500D01*
X148526117Y-87380199D01*
X148526112Y-87380201D01*
X148423390Y-87439508D01*
X148361272Y-87501626D01*
X148308946Y-87523300D01*
X147706426Y-87523300D01*
X147633570Y-87523300D01*
X147585801Y-87536098D01*
X147529649Y-87528705D01*
X147495171Y-87483772D01*
X147502564Y-87427620D01*
X147563546Y-87321996D01*
X147563547Y-87321995D01*
X147594247Y-87207420D01*
X147594248Y-87207420D01*
X147594248Y-87088800D01*
X147581001Y-87039361D01*
X147588394Y-86983209D01*
X147633328Y-86948730D01*
X147652480Y-86946209D01*
X148379657Y-86946209D01*
X148418430Y-86959373D01*
X148419186Y-86958064D01*
X148526112Y-87019798D01*
X148526114Y-87019799D01*
X148526115Y-87019799D01*
X148526117Y-87019800D01*
X148573962Y-87032620D01*
X148640688Y-87050499D01*
X148640689Y-87050500D01*
X148640691Y-87050500D01*
X148759311Y-87050500D01*
X148759311Y-87050499D01*
X148873886Y-87019799D01*
X148976613Y-86960489D01*
X149060489Y-86876613D01*
X149119799Y-86773886D01*
X149150499Y-86659311D01*
X149150500Y-86659311D01*
X149150500Y-86540689D01*
X149150499Y-86540688D01*
X149149617Y-86537398D01*
X149125688Y-86448092D01*
X149119800Y-86426117D01*
X149119797Y-86426109D01*
X149091135Y-86376467D01*
X149083741Y-86320314D01*
X149102893Y-86287142D01*
X149160489Y-86229547D01*
X149219799Y-86126820D01*
X149250499Y-86012245D01*
X149250500Y-86012245D01*
X149250500Y-85893625D01*
X149237253Y-85844186D01*
X149244646Y-85788034D01*
X149289580Y-85753555D01*
X149308732Y-85751034D01*
X149377239Y-85751034D01*
X149377240Y-85751034D01*
X149447615Y-85732178D01*
X149510710Y-85695749D01*
X149720878Y-85485581D01*
X149773204Y-85463907D01*
X149854043Y-85463907D01*
X149854043Y-85463906D01*
X149968618Y-85433206D01*
X150071345Y-85373896D01*
X150155221Y-85290020D01*
X150187110Y-85234786D01*
X150202434Y-85223027D01*
X150214196Y-85207700D01*
X150224110Y-85206394D01*
X150232043Y-85200308D01*
X150251195Y-85202829D01*
X150270349Y-85200308D01*
X150278281Y-85206395D01*
G37*
%TD.AperFunction*%
%TA.AperFunction,Conductor*%
G36*
X132896826Y-81964982D02*
G01*
X138006178Y-87074334D01*
X138027852Y-87126660D01*
X138006178Y-87178986D01*
X137953852Y-87200660D01*
X137272625Y-87200660D01*
X137220299Y-87178986D01*
X132673593Y-82632280D01*
X132651919Y-82579954D01*
X132657550Y-82551640D01*
X132730130Y-82376420D01*
X132770500Y-82173465D01*
X132770500Y-82017308D01*
X132792174Y-81964982D01*
X132844500Y-81943308D01*
X132896826Y-81964982D01*
G37*
%TD.AperFunction*%
%TA.AperFunction,Conductor*%
G36*
X132688339Y-80104821D02*
G01*
X132699554Y-80114024D01*
X139355064Y-86769534D01*
X139376738Y-86821860D01*
X139355064Y-86874186D01*
X139302738Y-86895860D01*
X138640982Y-86895860D01*
X138588656Y-86874186D01*
X132256068Y-80541598D01*
X132234394Y-80489272D01*
X132256068Y-80436946D01*
X132267279Y-80427745D01*
X132389655Y-80345977D01*
X132535977Y-80199655D01*
X132585700Y-80125238D01*
X132632790Y-80093772D01*
X132688339Y-80104821D01*
G37*
%TD.AperFunction*%
%TA.AperFunction,Conductor*%
G36*
X140556272Y-85198374D02*
G01*
X140618387Y-85260489D01*
X140618389Y-85260490D01*
X140618390Y-85260491D01*
X140703544Y-85309655D01*
X140721114Y-85319799D01*
X140721115Y-85319799D01*
X140721117Y-85319800D01*
X140761547Y-85330633D01*
X140835688Y-85350499D01*
X140835689Y-85350500D01*
X140835691Y-85350500D01*
X140954311Y-85350500D01*
X140954311Y-85350499D01*
X141068886Y-85319799D01*
X141171613Y-85260489D01*
X141182928Y-85249173D01*
X141235253Y-85227500D01*
X141434355Y-85227500D01*
X141486681Y-85249174D01*
X142184867Y-85947360D01*
X142206541Y-85999686D01*
X142184867Y-86052010D01*
X142142226Y-86094652D01*
X142124328Y-86112550D01*
X142065021Y-86215272D01*
X142065019Y-86215277D01*
X142034320Y-86329848D01*
X142034320Y-86329851D01*
X142034320Y-86448469D01*
X142036267Y-86455736D01*
X142047567Y-86497908D01*
X142040174Y-86554060D01*
X141995240Y-86588539D01*
X141976088Y-86591060D01*
X139989868Y-86591060D01*
X139937542Y-86569386D01*
X138671182Y-85303026D01*
X138649508Y-85250700D01*
X138671182Y-85198374D01*
X138723508Y-85176700D01*
X140503946Y-85176700D01*
X140556272Y-85198374D01*
G37*
%TD.AperFunction*%
%TA.AperFunction,Conductor*%
G36*
X162503222Y-72688447D02*
G01*
X162524696Y-72690325D01*
X162658436Y-72702026D01*
X162671124Y-72704263D01*
X162818495Y-72743751D01*
X162830607Y-72748159D01*
X162968889Y-72812641D01*
X162980050Y-72819085D01*
X163084199Y-72892011D01*
X163105023Y-72906592D01*
X163114904Y-72914883D01*
X163222781Y-73022760D01*
X163231072Y-73032641D01*
X163318576Y-73157609D01*
X163325026Y-73168780D01*
X163389503Y-73307052D01*
X163393914Y-73319173D01*
X163433399Y-73466531D01*
X163435639Y-73479234D01*
X163449218Y-73634441D01*
X163449500Y-73640891D01*
X163449500Y-126504136D01*
X163427826Y-126556462D01*
X163375500Y-126578136D01*
X163331153Y-126563376D01*
X163282088Y-126526646D01*
X163282087Y-126526645D01*
X163147380Y-126476403D01*
X163147375Y-126476402D01*
X163087829Y-126470000D01*
X162343485Y-126470000D01*
X162291159Y-126448326D01*
X162269485Y-126396000D01*
X162291159Y-126343674D01*
X162329049Y-126323422D01*
X162348693Y-126319514D01*
X162496420Y-126290130D01*
X162687598Y-126210941D01*
X162859655Y-126095977D01*
X163005977Y-125949655D01*
X163120941Y-125777598D01*
X163200130Y-125586420D01*
X163240500Y-125383465D01*
X163240500Y-125176535D01*
X163200130Y-124973580D01*
X163120941Y-124782402D01*
X163005977Y-124610345D01*
X162859655Y-124464023D01*
X162728093Y-124376117D01*
X162687598Y-124349059D01*
X162496420Y-124269870D01*
X162496413Y-124269868D01*
X162331527Y-124237071D01*
X162293465Y-124229500D01*
X162086535Y-124229500D01*
X162048473Y-124237071D01*
X161883586Y-124269868D01*
X161883579Y-124269870D01*
X161692401Y-124349059D01*
X161520345Y-124464022D01*
X161520344Y-124464024D01*
X161374024Y-124610344D01*
X161374022Y-124610345D01*
X161259059Y-124782401D01*
X161179870Y-124973579D01*
X161179868Y-124973586D01*
X161174515Y-125000500D01*
X161139500Y-125176535D01*
X161139500Y-125383465D01*
X161147441Y-125423387D01*
X161179868Y-125586413D01*
X161179870Y-125586420D01*
X161259059Y-125777598D01*
X161321248Y-125870672D01*
X161374023Y-125949655D01*
X161520345Y-126095977D01*
X161692402Y-126210941D01*
X161883580Y-126290130D01*
X161935714Y-126300500D01*
X162050951Y-126323422D01*
X162098044Y-126354888D01*
X162109093Y-126410436D01*
X162077627Y-126457529D01*
X162036515Y-126470000D01*
X161292171Y-126470000D01*
X161232624Y-126476402D01*
X161232619Y-126476403D01*
X161097912Y-126526645D01*
X161097911Y-126526646D01*
X160982811Y-126612811D01*
X160896646Y-126727911D01*
X160896645Y-126727912D01*
X160846403Y-126862619D01*
X160846402Y-126862624D01*
X160840000Y-126922171D01*
X160840000Y-127570000D01*
X161756988Y-127570000D01*
X161724075Y-127627007D01*
X161690000Y-127754174D01*
X161690000Y-127885826D01*
X161724075Y-128012993D01*
X161756988Y-128070000D01*
X160840000Y-128070000D01*
X160840000Y-128717828D01*
X160846402Y-128777375D01*
X160846403Y-128777380D01*
X160896645Y-128912087D01*
X160896646Y-128912088D01*
X160982811Y-129027188D01*
X161097911Y-129113353D01*
X161097912Y-129113354D01*
X161232619Y-129163596D01*
X161232624Y-129163597D01*
X161292171Y-129170000D01*
X161940000Y-129170000D01*
X161940000Y-128253012D01*
X161997007Y-128285925D01*
X162124174Y-128320000D01*
X162255826Y-128320000D01*
X162382993Y-128285925D01*
X162440000Y-128253012D01*
X162440000Y-129170000D01*
X163087829Y-129170000D01*
X163147375Y-129163597D01*
X163147377Y-129163597D01*
X163252575Y-129124360D01*
X163252891Y-129124371D01*
X163253125Y-129124157D01*
X163281144Y-129125380D01*
X163309176Y-129126381D01*
X163309392Y-129126613D01*
X163309709Y-129126627D01*
X163328681Y-129147330D01*
X163347770Y-129167833D01*
X163347758Y-129168149D01*
X163347973Y-129168383D01*
X163346749Y-129196402D01*
X163345749Y-129224434D01*
X163345503Y-129224967D01*
X163325026Y-129268882D01*
X163318576Y-129280054D01*
X163231072Y-129405022D01*
X163222781Y-129414903D01*
X163114904Y-129522780D01*
X163105023Y-129531071D01*
X162980055Y-129618575D01*
X162968884Y-129625025D01*
X162830612Y-129689502D01*
X162818491Y-129693913D01*
X162671133Y-129733398D01*
X162658430Y-129735638D01*
X162503223Y-129749217D01*
X162496773Y-129749499D01*
X131403227Y-129749499D01*
X131396777Y-129749217D01*
X131241569Y-129735638D01*
X131228866Y-129733398D01*
X131081508Y-129693913D01*
X131069387Y-129689502D01*
X130931115Y-129625025D01*
X130919944Y-129618575D01*
X130794976Y-129531071D01*
X130785095Y-129522780D01*
X130677218Y-129414903D01*
X130668927Y-129405022D01*
X130668802Y-129404843D01*
X130581420Y-129280049D01*
X130574976Y-129268888D01*
X130510494Y-129130606D01*
X130506085Y-129118490D01*
X130504709Y-129113353D01*
X130466598Y-128971123D01*
X130464361Y-128958435D01*
X130450782Y-128803221D01*
X130450500Y-128796772D01*
X130450500Y-127686535D01*
X130669500Y-127686535D01*
X130669500Y-127893465D01*
X130679455Y-127943516D01*
X130709868Y-128096413D01*
X130709870Y-128096420D01*
X130789059Y-128287598D01*
X130829058Y-128347462D01*
X130904023Y-128459655D01*
X131050345Y-128605977D01*
X131222402Y-128720941D01*
X131413580Y-128800130D01*
X131616535Y-128840500D01*
X131616536Y-128840500D01*
X131823464Y-128840500D01*
X131823465Y-128840500D01*
X132026420Y-128800130D01*
X132217598Y-128720941D01*
X132389655Y-128605977D01*
X132535977Y-128459655D01*
X132610943Y-128347459D01*
X136165650Y-128347459D01*
X136165650Y-128466082D01*
X136196349Y-128580653D01*
X136196351Y-128580658D01*
X136255658Y-128683380D01*
X136255659Y-128683381D01*
X136255661Y-128683384D01*
X136339537Y-128767260D01*
X136339539Y-128767261D01*
X136339540Y-128767262D01*
X136442262Y-128826569D01*
X136442264Y-128826570D01*
X136442265Y-128826570D01*
X136442267Y-128826571D01*
X136494251Y-128840500D01*
X136556838Y-128857270D01*
X136556839Y-128857271D01*
X136556841Y-128857271D01*
X136675461Y-128857271D01*
X136675461Y-128857270D01*
X136790036Y-128826570D01*
X136892763Y-128767260D01*
X136954878Y-128705145D01*
X137007204Y-128683471D01*
X152129656Y-128683471D01*
X152129657Y-128683471D01*
X152200032Y-128664615D01*
X152263127Y-128628186D01*
X155250015Y-125641298D01*
X155286443Y-125578203D01*
X155286444Y-125578202D01*
X155305300Y-125507828D01*
X155305300Y-124490688D01*
X155749500Y-124490688D01*
X155749500Y-124609311D01*
X155780199Y-124723882D01*
X155780201Y-124723887D01*
X155839508Y-124826609D01*
X155839509Y-124826610D01*
X155839511Y-124826613D01*
X155923387Y-124910489D01*
X155923389Y-124910490D01*
X155923390Y-124910491D01*
X155980712Y-124943586D01*
X156026114Y-124969799D01*
X156026115Y-124969799D01*
X156026117Y-124969800D01*
X156040247Y-124973586D01*
X156140688Y-125000499D01*
X156140689Y-125000500D01*
X156140691Y-125000500D01*
X156259311Y-125000500D01*
X156259311Y-125000499D01*
X156373886Y-124969799D01*
X156476613Y-124910489D01*
X156560489Y-124826613D01*
X156619799Y-124723886D01*
X156650499Y-124609311D01*
X156650500Y-124609311D01*
X156650500Y-124490689D01*
X156650499Y-124490688D01*
X156643354Y-124464024D01*
X156619799Y-124376114D01*
X156586858Y-124319059D01*
X156562414Y-124276720D01*
X156552500Y-124239720D01*
X156552500Y-123240253D01*
X156574173Y-123187928D01*
X156585489Y-123176613D01*
X156644799Y-123073886D01*
X156675499Y-122959311D01*
X156675500Y-122959311D01*
X156675500Y-122840689D01*
X156675499Y-122840688D01*
X156668421Y-122814274D01*
X156648277Y-122739094D01*
X156644800Y-122726117D01*
X156644798Y-122726112D01*
X156585491Y-122623390D01*
X156585490Y-122623389D01*
X156585489Y-122623387D01*
X156501613Y-122539511D01*
X156501610Y-122539509D01*
X156501609Y-122539508D01*
X156398887Y-122480201D01*
X156398882Y-122480199D01*
X156284311Y-122449500D01*
X156284309Y-122449500D01*
X156165691Y-122449500D01*
X156165689Y-122449500D01*
X156051117Y-122480199D01*
X156051112Y-122480201D01*
X155948390Y-122539508D01*
X155864508Y-122623390D01*
X155805201Y-122726112D01*
X155805199Y-122726117D01*
X155774500Y-122840688D01*
X155774500Y-122959311D01*
X155805199Y-123073882D01*
X155805201Y-123073887D01*
X155864508Y-123176609D01*
X155864509Y-123176610D01*
X155864511Y-123176613D01*
X155875826Y-123187928D01*
X155897500Y-123240253D01*
X155897500Y-124184746D01*
X155875827Y-124237071D01*
X155839508Y-124273390D01*
X155780201Y-124376112D01*
X155780199Y-124376117D01*
X155749500Y-124490688D01*
X155305300Y-124490688D01*
X155305300Y-121892172D01*
X155286444Y-121821798D01*
X155286444Y-121821797D01*
X155286443Y-121821794D01*
X155261768Y-121779059D01*
X155250015Y-121758702D01*
X154432398Y-120941085D01*
X154407160Y-120926513D01*
X154369309Y-120904659D01*
X154369303Y-120904656D01*
X154298928Y-120885800D01*
X154298927Y-120885800D01*
X151907765Y-120885800D01*
X151855439Y-120864126D01*
X151698939Y-120707626D01*
X151677265Y-120655300D01*
X151698937Y-120602977D01*
X151726484Y-120575431D01*
X151785794Y-120472704D01*
X151816494Y-120358129D01*
X151816495Y-120358129D01*
X151816495Y-120239507D01*
X151816494Y-120239506D01*
X151785795Y-120124935D01*
X151785793Y-120124930D01*
X151726486Y-120022208D01*
X151726485Y-120022207D01*
X151726484Y-120022205D01*
X151642608Y-119938329D01*
X151642605Y-119938327D01*
X151642604Y-119938326D01*
X151539882Y-119879019D01*
X151539877Y-119879017D01*
X151425306Y-119848318D01*
X151425304Y-119848318D01*
X151306686Y-119848318D01*
X151306684Y-119848318D01*
X151192112Y-119879017D01*
X151192107Y-119879019D01*
X151089385Y-119938326D01*
X151005503Y-120022208D01*
X150946196Y-120124930D01*
X150946194Y-120124935D01*
X150915495Y-120239506D01*
X150915495Y-120358129D01*
X150946194Y-120472700D01*
X150946196Y-120472705D01*
X151005503Y-120575427D01*
X151005504Y-120575428D01*
X151005506Y-120575431D01*
X151067621Y-120637546D01*
X151089295Y-120689871D01*
X151089295Y-120729567D01*
X151089295Y-120802423D01*
X151107309Y-120869654D01*
X151108151Y-120872798D01*
X151108154Y-120872804D01*
X151130008Y-120910655D01*
X151144580Y-120935893D01*
X151592602Y-121383915D01*
X151655697Y-121420344D01*
X151726072Y-121439200D01*
X154117235Y-121439200D01*
X154169561Y-121460874D01*
X154730226Y-122021539D01*
X154751900Y-122073865D01*
X154751900Y-125326135D01*
X154730226Y-125378461D01*
X152000290Y-128108397D01*
X151947964Y-128130071D01*
X137007204Y-128130071D01*
X136954878Y-128108397D01*
X136942894Y-128096413D01*
X136892763Y-128046282D01*
X136892760Y-128046280D01*
X136892759Y-128046279D01*
X136790037Y-127986972D01*
X136790032Y-127986970D01*
X136675461Y-127956271D01*
X136675459Y-127956271D01*
X136556841Y-127956271D01*
X136556839Y-127956271D01*
X136442267Y-127986970D01*
X136442262Y-127986972D01*
X136339540Y-128046279D01*
X136255658Y-128130161D01*
X136196351Y-128232883D01*
X136196349Y-128232888D01*
X136165650Y-128347459D01*
X132610943Y-128347459D01*
X132650941Y-128287598D01*
X132730130Y-128096420D01*
X132770500Y-127893465D01*
X132770500Y-127686535D01*
X132730130Y-127483580D01*
X132650941Y-127292402D01*
X132535977Y-127120345D01*
X132389655Y-126974023D01*
X132312052Y-126922171D01*
X132217598Y-126859059D01*
X132026420Y-126779870D01*
X132026413Y-126779868D01*
X131873516Y-126749455D01*
X131823465Y-126739500D01*
X131616535Y-126739500D01*
X131576385Y-126747486D01*
X131413586Y-126779868D01*
X131413579Y-126779870D01*
X131222401Y-126859059D01*
X131050345Y-126974022D01*
X131050344Y-126974024D01*
X130904024Y-127120344D01*
X130904022Y-127120345D01*
X130789059Y-127292401D01*
X130709870Y-127483579D01*
X130709868Y-127483586D01*
X130688369Y-127591674D01*
X130669500Y-127686535D01*
X130450500Y-127686535D01*
X130450500Y-125146535D01*
X130669500Y-125146535D01*
X130669500Y-125353465D01*
X130673684Y-125374500D01*
X130709868Y-125556413D01*
X130709870Y-125556420D01*
X130789059Y-125747598D01*
X130873438Y-125873882D01*
X130904023Y-125919655D01*
X131050345Y-126065977D01*
X131222402Y-126180941D01*
X131413580Y-126260130D01*
X131616535Y-126300500D01*
X131616536Y-126300500D01*
X131823464Y-126300500D01*
X131823465Y-126300500D01*
X132026420Y-126260130D01*
X132217598Y-126180941D01*
X132389655Y-126065977D01*
X132535977Y-125919655D01*
X132650941Y-125747598D01*
X132730130Y-125556420D01*
X132770500Y-125353465D01*
X132770500Y-125146535D01*
X132730130Y-124943580D01*
X132650941Y-124752402D01*
X132535977Y-124580345D01*
X132389655Y-124434023D01*
X132302987Y-124376114D01*
X132217598Y-124319059D01*
X132026420Y-124239870D01*
X132026413Y-124239868D01*
X131873516Y-124209455D01*
X131823465Y-124199500D01*
X131616535Y-124199500D01*
X131576385Y-124207486D01*
X131413586Y-124239868D01*
X131413579Y-124239870D01*
X131222401Y-124319059D01*
X131050345Y-124434022D01*
X131050344Y-124434024D01*
X130904024Y-124580344D01*
X130904022Y-124580345D01*
X130789059Y-124752401D01*
X130709870Y-124943579D01*
X130709868Y-124943586D01*
X130671515Y-125136407D01*
X130669500Y-125146535D01*
X130450500Y-125146535D01*
X130450500Y-122606535D01*
X130669500Y-122606535D01*
X130669500Y-122813464D01*
X130709868Y-123016413D01*
X130709870Y-123016420D01*
X130789059Y-123207598D01*
X130904023Y-123379655D01*
X131050345Y-123525977D01*
X131222402Y-123640941D01*
X131413580Y-123720130D01*
X131616535Y-123760500D01*
X131616536Y-123760500D01*
X131823464Y-123760500D01*
X131823465Y-123760500D01*
X132026420Y-123720130D01*
X132217598Y-123640941D01*
X132389655Y-123525977D01*
X132535977Y-123379655D01*
X132650941Y-123207598D01*
X132730130Y-123016420D01*
X132770500Y-122813465D01*
X132770500Y-122606535D01*
X132730130Y-122403580D01*
X132650941Y-122212402D01*
X132535977Y-122040345D01*
X132389655Y-121894023D01*
X132386886Y-121892173D01*
X132217598Y-121779059D01*
X132026420Y-121699870D01*
X132026413Y-121699868D01*
X131873516Y-121669455D01*
X131823465Y-121659500D01*
X131616535Y-121659500D01*
X131576385Y-121667486D01*
X131413586Y-121699868D01*
X131413579Y-121699870D01*
X131222401Y-121779059D01*
X131050345Y-121894022D01*
X131050344Y-121894024D01*
X130904024Y-122040344D01*
X130904022Y-122040345D01*
X130789059Y-122212401D01*
X130709870Y-122403579D01*
X130709868Y-122403586D01*
X130669500Y-122606535D01*
X130450500Y-122606535D01*
X130450500Y-120066535D01*
X130669500Y-120066535D01*
X130669500Y-120273464D01*
X130709868Y-120476413D01*
X130709870Y-120476420D01*
X130789059Y-120667598D01*
X130879145Y-120802423D01*
X130904023Y-120839655D01*
X131050345Y-120985977D01*
X131222402Y-121100941D01*
X131413580Y-121180130D01*
X131616535Y-121220500D01*
X131616536Y-121220500D01*
X131823464Y-121220500D01*
X131823465Y-121220500D01*
X132026420Y-121180130D01*
X132217598Y-121100941D01*
X132389655Y-120985977D01*
X132535977Y-120839655D01*
X132650941Y-120667598D01*
X132730130Y-120476420D01*
X132770500Y-120273465D01*
X132770500Y-120066535D01*
X132730130Y-119863580D01*
X132650941Y-119672402D01*
X132535977Y-119500345D01*
X132389655Y-119354023D01*
X132262496Y-119269059D01*
X132217598Y-119239059D01*
X132026420Y-119159870D01*
X132026413Y-119159868D01*
X131873516Y-119129455D01*
X131823465Y-119119500D01*
X131616535Y-119119500D01*
X131576385Y-119127486D01*
X131413586Y-119159868D01*
X131413579Y-119159870D01*
X131222401Y-119239059D01*
X131050345Y-119354022D01*
X131050344Y-119354024D01*
X130904024Y-119500344D01*
X130904022Y-119500345D01*
X130789059Y-119672401D01*
X130709870Y-119863579D01*
X130709868Y-119863586D01*
X130669500Y-120066535D01*
X130450500Y-120066535D01*
X130450500Y-117526535D01*
X130669500Y-117526535D01*
X130669500Y-117733465D01*
X130676972Y-117771030D01*
X130709868Y-117936413D01*
X130709870Y-117936420D01*
X130789059Y-118127598D01*
X130890538Y-118279474D01*
X130904023Y-118299655D01*
X131050345Y-118445977D01*
X131222402Y-118560941D01*
X131413580Y-118640130D01*
X131616535Y-118680500D01*
X131616536Y-118680500D01*
X131823464Y-118680500D01*
X131823465Y-118680500D01*
X132026420Y-118640130D01*
X132217598Y-118560941D01*
X132389655Y-118445977D01*
X132535977Y-118299655D01*
X132650941Y-118127598D01*
X132730130Y-117936420D01*
X132770500Y-117733465D01*
X132770500Y-117526535D01*
X132730130Y-117323580D01*
X132650941Y-117132402D01*
X132535977Y-116960345D01*
X132389655Y-116814023D01*
X132274933Y-116737369D01*
X132217598Y-116699059D01*
X132026420Y-116619870D01*
X132026413Y-116619868D01*
X131854856Y-116585744D01*
X131823465Y-116579500D01*
X131616535Y-116579500D01*
X131585144Y-116585744D01*
X131413586Y-116619868D01*
X131413579Y-116619870D01*
X131222401Y-116699059D01*
X131050345Y-116814022D01*
X131050344Y-116814024D01*
X130904024Y-116960344D01*
X130904022Y-116960345D01*
X130789059Y-117132401D01*
X130709870Y-117323579D01*
X130709868Y-117323586D01*
X130669500Y-117526535D01*
X130450500Y-117526535D01*
X130450500Y-114986535D01*
X130669500Y-114986535D01*
X130669500Y-115193464D01*
X130709868Y-115396413D01*
X130709870Y-115396420D01*
X130789059Y-115587598D01*
X130902632Y-115757574D01*
X130904023Y-115759655D01*
X131050345Y-115905977D01*
X131222402Y-116020941D01*
X131413580Y-116100130D01*
X131616535Y-116140500D01*
X131616536Y-116140500D01*
X131823464Y-116140500D01*
X131823465Y-116140500D01*
X132026420Y-116100130D01*
X132217598Y-116020941D01*
X132389655Y-115905977D01*
X132535977Y-115759655D01*
X132650941Y-115587598D01*
X132730130Y-115396420D01*
X132770500Y-115193465D01*
X132770500Y-114986535D01*
X132730130Y-114783580D01*
X132650941Y-114592402D01*
X132535977Y-114420345D01*
X132389655Y-114274023D01*
X132262496Y-114189059D01*
X132217598Y-114159059D01*
X132026420Y-114079870D01*
X132026413Y-114079868D01*
X131873516Y-114049455D01*
X131823465Y-114039500D01*
X131616535Y-114039500D01*
X131576385Y-114047486D01*
X131413586Y-114079868D01*
X131413579Y-114079870D01*
X131222401Y-114159059D01*
X131050345Y-114274022D01*
X131050344Y-114274024D01*
X130904024Y-114420344D01*
X130904022Y-114420345D01*
X130789059Y-114592401D01*
X130709870Y-114783579D01*
X130709868Y-114783586D01*
X130669500Y-114986535D01*
X130450500Y-114986535D01*
X130450500Y-112446535D01*
X130669500Y-112446535D01*
X130669500Y-112653464D01*
X130709868Y-112856413D01*
X130709870Y-112856420D01*
X130789059Y-113047598D01*
X130904023Y-113219655D01*
X131050345Y-113365977D01*
X131222402Y-113480941D01*
X131413580Y-113560130D01*
X131616535Y-113600500D01*
X131616536Y-113600500D01*
X131823464Y-113600500D01*
X131823465Y-113600500D01*
X132026420Y-113560130D01*
X132217598Y-113480941D01*
X132389655Y-113365977D01*
X132535977Y-113219655D01*
X132650941Y-113047598D01*
X132730130Y-112856420D01*
X132770500Y-112653465D01*
X132770500Y-112446535D01*
X132730130Y-112243580D01*
X132650941Y-112052402D01*
X132535977Y-111880345D01*
X132389655Y-111734023D01*
X132359658Y-111713980D01*
X132217598Y-111619059D01*
X132026420Y-111539870D01*
X132026413Y-111539868D01*
X131873516Y-111509455D01*
X131823465Y-111499500D01*
X131616535Y-111499500D01*
X131576385Y-111507486D01*
X131413586Y-111539868D01*
X131413579Y-111539870D01*
X131222401Y-111619059D01*
X131050345Y-111734022D01*
X131050344Y-111734024D01*
X130904024Y-111880344D01*
X130904022Y-111880345D01*
X130789059Y-112052401D01*
X130709870Y-112243579D01*
X130709868Y-112243586D01*
X130669500Y-112446535D01*
X130450500Y-112446535D01*
X130450500Y-92126535D01*
X130669500Y-92126535D01*
X130669500Y-92333464D01*
X130709868Y-92536413D01*
X130709870Y-92536420D01*
X130789059Y-92727598D01*
X130888303Y-92876129D01*
X130904023Y-92899655D01*
X131050345Y-93045977D01*
X131222402Y-93160941D01*
X131413580Y-93240130D01*
X131616535Y-93280500D01*
X131616536Y-93280500D01*
X131823464Y-93280500D01*
X131823465Y-93280500D01*
X132026420Y-93240130D01*
X132217598Y-93160941D01*
X132389655Y-93045977D01*
X132535977Y-92899655D01*
X132650941Y-92727598D01*
X132730130Y-92536420D01*
X132770500Y-92333465D01*
X132770500Y-92126535D01*
X132730130Y-91923580D01*
X132650941Y-91732402D01*
X132535977Y-91560345D01*
X132389655Y-91414023D01*
X132376423Y-91405182D01*
X132217598Y-91299059D01*
X132026420Y-91219870D01*
X132026413Y-91219868D01*
X131873516Y-91189455D01*
X131823465Y-91179500D01*
X131616535Y-91179500D01*
X131576385Y-91187486D01*
X131413586Y-91219868D01*
X131413579Y-91219870D01*
X131222401Y-91299059D01*
X131050345Y-91414022D01*
X131050344Y-91414024D01*
X130904024Y-91560344D01*
X130904022Y-91560345D01*
X130789059Y-91732401D01*
X130709870Y-91923579D01*
X130709868Y-91923586D01*
X130669500Y-92126535D01*
X130450500Y-92126535D01*
X130450500Y-76886535D01*
X130669500Y-76886535D01*
X130669500Y-77093464D01*
X130709868Y-77296413D01*
X130709870Y-77296420D01*
X130789059Y-77487598D01*
X130881797Y-77626392D01*
X130904023Y-77659655D01*
X131050345Y-77805977D01*
X131222402Y-77920941D01*
X131413580Y-78000130D01*
X131616535Y-78040500D01*
X131616536Y-78040500D01*
X131823464Y-78040500D01*
X131823465Y-78040500D01*
X132026420Y-78000130D01*
X132201638Y-77927552D01*
X132258272Y-77927552D01*
X132282280Y-77943593D01*
X132500226Y-78161539D01*
X132521900Y-78213865D01*
X132521900Y-78667616D01*
X132500226Y-78719942D01*
X132447900Y-78741616D01*
X132395574Y-78719942D01*
X132389654Y-78714022D01*
X132217598Y-78599059D01*
X132026420Y-78519870D01*
X132026413Y-78519868D01*
X131873516Y-78489455D01*
X131823465Y-78479500D01*
X131616535Y-78479500D01*
X131576385Y-78487486D01*
X131413586Y-78519868D01*
X131413579Y-78519870D01*
X131222401Y-78599059D01*
X131050345Y-78714022D01*
X131050344Y-78714024D01*
X130904024Y-78860344D01*
X130904022Y-78860345D01*
X130789059Y-79032401D01*
X130709870Y-79223579D01*
X130709868Y-79223586D01*
X130669500Y-79426535D01*
X130669500Y-79633464D01*
X130709868Y-79836413D01*
X130709870Y-79836420D01*
X130789059Y-80027598D01*
X130904019Y-80199650D01*
X130904023Y-80199655D01*
X131050345Y-80345977D01*
X131222402Y-80460941D01*
X131413580Y-80540130D01*
X131413584Y-80540130D01*
X131413588Y-80540132D01*
X131444693Y-80546318D01*
X131464455Y-80550249D01*
X131502343Y-80570499D01*
X131738750Y-80806906D01*
X131825018Y-80893174D01*
X131846692Y-80945500D01*
X131825018Y-80997826D01*
X131772692Y-81019500D01*
X131616535Y-81019500D01*
X131592856Y-81024210D01*
X131413586Y-81059868D01*
X131413579Y-81059870D01*
X131222401Y-81139059D01*
X131050345Y-81254022D01*
X131050344Y-81254024D01*
X130904024Y-81400344D01*
X130904022Y-81400345D01*
X130789059Y-81572401D01*
X130709870Y-81763579D01*
X130709868Y-81763586D01*
X130669500Y-81966535D01*
X130669500Y-82173464D01*
X130709868Y-82376413D01*
X130709870Y-82376420D01*
X130789059Y-82567598D01*
X130897030Y-82729190D01*
X130904023Y-82739655D01*
X131050345Y-82885977D01*
X131222402Y-83000941D01*
X131413580Y-83080130D01*
X131616535Y-83120500D01*
X131616536Y-83120500D01*
X131823464Y-83120500D01*
X131823465Y-83120500D01*
X132026420Y-83080130D01*
X132201638Y-83007552D01*
X132258272Y-83007552D01*
X132282280Y-83023593D01*
X136957462Y-87698775D01*
X137020557Y-87735204D01*
X137090932Y-87754060D01*
X137090933Y-87754060D01*
X142753866Y-87754060D01*
X142806192Y-87775734D01*
X142827866Y-87828060D01*
X142806192Y-87880386D01*
X142768302Y-87900638D01*
X142578317Y-87938427D01*
X142578306Y-87938430D01*
X142396322Y-88013810D01*
X142360979Y-88037425D01*
X142360979Y-88037426D01*
X142869999Y-88546446D01*
X143379019Y-88037426D01*
X143379019Y-88037425D01*
X143343675Y-88013809D01*
X143161693Y-87938430D01*
X143161682Y-87938427D01*
X142971698Y-87900638D01*
X142924605Y-87869172D01*
X142913556Y-87813624D01*
X142945022Y-87766531D01*
X142986134Y-87754060D01*
X143911151Y-87754060D01*
X143911152Y-87754060D01*
X143981527Y-87735204D01*
X144044622Y-87698775D01*
X144461455Y-87281940D01*
X144513780Y-87260267D01*
X144550780Y-87270181D01*
X144565252Y-87278537D01*
X144565254Y-87278537D01*
X144565255Y-87278538D01*
X144583643Y-87283465D01*
X144679826Y-87309237D01*
X144679827Y-87309238D01*
X144679829Y-87309238D01*
X144798449Y-87309238D01*
X144798449Y-87309237D01*
X144913024Y-87278537D01*
X145015751Y-87219227D01*
X145099627Y-87135351D01*
X145158937Y-87032624D01*
X145189637Y-86918049D01*
X145189638Y-86918049D01*
X145189638Y-86799427D01*
X145189637Y-86799426D01*
X145158938Y-86684855D01*
X145158936Y-86684850D01*
X145127125Y-86629752D01*
X145119732Y-86573600D01*
X145154211Y-86528666D01*
X145172054Y-86521275D01*
X145191747Y-86515999D01*
X145294474Y-86456689D01*
X145378350Y-86372813D01*
X145437660Y-86270086D01*
X145445853Y-86239508D01*
X145468361Y-86155510D01*
X145468361Y-86036889D01*
X145468360Y-86036888D01*
X145467053Y-86032012D01*
X145444371Y-85947360D01*
X145437661Y-85922317D01*
X145437659Y-85922312D01*
X145378352Y-85819590D01*
X145378351Y-85819589D01*
X145378350Y-85819587D01*
X145294474Y-85735711D01*
X145294471Y-85735709D01*
X145294469Y-85735707D01*
X145290620Y-85732753D01*
X145291641Y-85731422D01*
X145260818Y-85691248D01*
X145268214Y-85635096D01*
X145313150Y-85600620D01*
X145332298Y-85598100D01*
X145652978Y-85598100D01*
X145705304Y-85619774D01*
X145796636Y-85711106D01*
X145818310Y-85763432D01*
X145810149Y-85793905D01*
X145811186Y-85794335D01*
X145809327Y-85798821D01*
X145778628Y-85913391D01*
X145778628Y-86032014D01*
X145809327Y-86146585D01*
X145809329Y-86146590D01*
X145868636Y-86249312D01*
X145868637Y-86249313D01*
X145868639Y-86249316D01*
X145952515Y-86333192D01*
X145952517Y-86333193D01*
X145952518Y-86333194D01*
X146037551Y-86382288D01*
X146055242Y-86392502D01*
X146055243Y-86392502D01*
X146055245Y-86392503D01*
X146162557Y-86421258D01*
X146207490Y-86455736D01*
X146214882Y-86511889D01*
X146195730Y-86545062D01*
X145652384Y-87088408D01*
X145652383Y-87088410D01*
X145615959Y-87151495D01*
X145615954Y-87151506D01*
X145601877Y-87204042D01*
X145601878Y-87204043D01*
X145597100Y-87221876D01*
X145597100Y-88157778D01*
X145575426Y-88210104D01*
X144455304Y-89330226D01*
X144402978Y-89351900D01*
X143875958Y-89351900D01*
X143823632Y-89330226D01*
X143801958Y-89277900D01*
X143807591Y-89249581D01*
X143831570Y-89191689D01*
X143831572Y-89191682D01*
X143870000Y-88998490D01*
X143870000Y-88801509D01*
X143831572Y-88608317D01*
X143831569Y-88608306D01*
X143756189Y-88426323D01*
X143732572Y-88390979D01*
X143195000Y-88928551D01*
X143195000Y-88857213D01*
X143172851Y-88774555D01*
X143130064Y-88700446D01*
X143069554Y-88639936D01*
X142995445Y-88597149D01*
X142912787Y-88575000D01*
X142827213Y-88575000D01*
X142744555Y-88597149D01*
X142670446Y-88639936D01*
X142609936Y-88700446D01*
X142567149Y-88774555D01*
X142545000Y-88857213D01*
X142545000Y-88928553D01*
X142256737Y-88640290D01*
X142240696Y-88616282D01*
X142220776Y-88568191D01*
X142206246Y-88546446D01*
X142144114Y-88453458D01*
X142046542Y-88355886D01*
X141995482Y-88321769D01*
X141931808Y-88279223D01*
X141804332Y-88226421D01*
X141804322Y-88226418D01*
X141713694Y-88208391D01*
X141668993Y-88199500D01*
X141531007Y-88199500D01*
X141492642Y-88207131D01*
X141395677Y-88226418D01*
X141395667Y-88226421D01*
X141268191Y-88279223D01*
X141153461Y-88355883D01*
X141153458Y-88355885D01*
X141144750Y-88364594D01*
X141092423Y-88386266D01*
X141040098Y-88364590D01*
X141019848Y-88326701D01*
X141018867Y-88321769D01*
X140974552Y-88255448D01*
X140952343Y-88240608D01*
X140908232Y-88211133D01*
X140908233Y-88211133D01*
X140878989Y-88205316D01*
X140849748Y-88199500D01*
X139810252Y-88199500D01*
X139781010Y-88205316D01*
X139751767Y-88211133D01*
X139685449Y-88255447D01*
X139685447Y-88255449D01*
X139641133Y-88321767D01*
X139629500Y-88380253D01*
X139629500Y-89277900D01*
X139607826Y-89330226D01*
X139555500Y-89351900D01*
X137897022Y-89351900D01*
X137844696Y-89330226D01*
X135387770Y-86873300D01*
X132903055Y-84388585D01*
X132872094Y-84370709D01*
X132839966Y-84352159D01*
X132839962Y-84352157D01*
X132839960Y-84352156D01*
X132839958Y-84352155D01*
X132839955Y-84352154D01*
X132774300Y-84334562D01*
X132729367Y-84300084D01*
X132725086Y-84291403D01*
X132653731Y-84119138D01*
X132650941Y-84112402D01*
X132535977Y-83940345D01*
X132389655Y-83794023D01*
X132382161Y-83789016D01*
X132217598Y-83679059D01*
X132026420Y-83599870D01*
X132026413Y-83599868D01*
X131870164Y-83568789D01*
X131823465Y-83559500D01*
X131616535Y-83559500D01*
X131592841Y-83564213D01*
X131413586Y-83599868D01*
X131413579Y-83599870D01*
X131222401Y-83679059D01*
X131050345Y-83794022D01*
X131050344Y-83794024D01*
X130904024Y-83940344D01*
X130904022Y-83940345D01*
X130789059Y-84112401D01*
X130709870Y-84303579D01*
X130709868Y-84303586D01*
X130674738Y-84480201D01*
X130669500Y-84506535D01*
X130669500Y-84713465D01*
X130675467Y-84743464D01*
X130709868Y-84916413D01*
X130709870Y-84916420D01*
X130789059Y-85107598D01*
X130891216Y-85260489D01*
X130904023Y-85279655D01*
X131050345Y-85425977D01*
X131222402Y-85540941D01*
X131413580Y-85620130D01*
X131616535Y-85660500D01*
X131616536Y-85660500D01*
X131823464Y-85660500D01*
X131823465Y-85660500D01*
X132026420Y-85620130D01*
X132217598Y-85540941D01*
X132389655Y-85425977D01*
X132535977Y-85279655D01*
X132650941Y-85107598D01*
X132663769Y-85076626D01*
X132703815Y-85036578D01*
X132760452Y-85036576D01*
X132784462Y-85052618D01*
X137262218Y-89530374D01*
X137283892Y-89582700D01*
X137262218Y-89635026D01*
X137209892Y-89656700D01*
X136278665Y-89656700D01*
X136226339Y-89635026D01*
X134913080Y-88321767D01*
X133519898Y-86928585D01*
X133494660Y-86914013D01*
X133456809Y-86892159D01*
X133456803Y-86892156D01*
X133386428Y-86873300D01*
X133386427Y-86873300D01*
X132791885Y-86873300D01*
X132739559Y-86851626D01*
X132723519Y-86827621D01*
X132650941Y-86652402D01*
X132535977Y-86480345D01*
X132389655Y-86334023D01*
X132388414Y-86333194D01*
X132217598Y-86219059D01*
X132026420Y-86139870D01*
X132026413Y-86139868D01*
X131873516Y-86109455D01*
X131823465Y-86099500D01*
X131616535Y-86099500D01*
X131576385Y-86107486D01*
X131413586Y-86139868D01*
X131413579Y-86139870D01*
X131222401Y-86219059D01*
X131050345Y-86334022D01*
X131050344Y-86334024D01*
X130904024Y-86480344D01*
X130904022Y-86480345D01*
X130789059Y-86652401D01*
X130709870Y-86843579D01*
X130709868Y-86843586D01*
X130669500Y-87046535D01*
X130669500Y-87253464D01*
X130709868Y-87456413D01*
X130709870Y-87456420D01*
X130789059Y-87647598D01*
X130902976Y-87818089D01*
X130904023Y-87819655D01*
X131050345Y-87965977D01*
X131222402Y-88080941D01*
X131413580Y-88160130D01*
X131616535Y-88200500D01*
X131616536Y-88200500D01*
X131823464Y-88200500D01*
X131823465Y-88200500D01*
X132026420Y-88160130D01*
X132217598Y-88080941D01*
X132389655Y-87965977D01*
X132535977Y-87819655D01*
X132650941Y-87647598D01*
X132723519Y-87472379D01*
X132763566Y-87432333D01*
X132791885Y-87426700D01*
X133204735Y-87426700D01*
X133257061Y-87448374D01*
X135095661Y-89286974D01*
X135117335Y-89339300D01*
X135095661Y-89391626D01*
X135043335Y-89413300D01*
X132791885Y-89413300D01*
X132739559Y-89391626D01*
X132723519Y-89367621D01*
X132650941Y-89192402D01*
X132535977Y-89020345D01*
X132389655Y-88874023D01*
X132281129Y-88801509D01*
X132217598Y-88759059D01*
X132026420Y-88679870D01*
X132026413Y-88679868D01*
X131873516Y-88649455D01*
X131823465Y-88639500D01*
X131616535Y-88639500D01*
X131576385Y-88647486D01*
X131413586Y-88679868D01*
X131413579Y-88679870D01*
X131222401Y-88759059D01*
X131050345Y-88874022D01*
X131050344Y-88874024D01*
X130904024Y-89020344D01*
X130904022Y-89020345D01*
X130789059Y-89192401D01*
X130709870Y-89383579D01*
X130709868Y-89383586D01*
X130694806Y-89459311D01*
X130669500Y-89586535D01*
X130669500Y-89793465D01*
X130674738Y-89819798D01*
X130709868Y-89996413D01*
X130709870Y-89996420D01*
X130789059Y-90187598D01*
X130898345Y-90351158D01*
X130904023Y-90359655D01*
X131050345Y-90505977D01*
X131222402Y-90620941D01*
X131413580Y-90700130D01*
X131616535Y-90740500D01*
X131616536Y-90740500D01*
X131823464Y-90740500D01*
X131823465Y-90740500D01*
X132026420Y-90700130D01*
X132217598Y-90620941D01*
X132389655Y-90505977D01*
X132535977Y-90359655D01*
X132650941Y-90187598D01*
X132723519Y-90012379D01*
X132763566Y-89972333D01*
X132791885Y-89966700D01*
X135027578Y-89966700D01*
X135079904Y-89988374D01*
X135551145Y-90459615D01*
X135556969Y-90462977D01*
X135591448Y-90507908D01*
X135584057Y-90564061D01*
X135572296Y-90579389D01*
X132678584Y-93473103D01*
X132678583Y-93473105D01*
X132642156Y-93536194D01*
X132642156Y-93536198D01*
X132623300Y-93606573D01*
X132623300Y-94009016D01*
X132601626Y-94061342D01*
X132549300Y-94083016D01*
X132496974Y-94061342D01*
X132389654Y-93954022D01*
X132217598Y-93839059D01*
X132026420Y-93759870D01*
X132026413Y-93759868D01*
X131862995Y-93727363D01*
X131823465Y-93719500D01*
X131616535Y-93719500D01*
X131584445Y-93725883D01*
X131413586Y-93759868D01*
X131413579Y-93759870D01*
X131222401Y-93839059D01*
X131050345Y-93954022D01*
X131050344Y-93954024D01*
X130904024Y-94100344D01*
X130904022Y-94100345D01*
X130789059Y-94272401D01*
X130709870Y-94463579D01*
X130709868Y-94463586D01*
X130682374Y-94601811D01*
X130669500Y-94666535D01*
X130669500Y-94873465D01*
X130679455Y-94923516D01*
X130709868Y-95076413D01*
X130709870Y-95076420D01*
X130789059Y-95267598D01*
X130895485Y-95426878D01*
X130904023Y-95439655D01*
X131050345Y-95585977D01*
X131222402Y-95700941D01*
X131413580Y-95780130D01*
X131616535Y-95820500D01*
X131616536Y-95820500D01*
X131823464Y-95820500D01*
X131823465Y-95820500D01*
X132026420Y-95780130D01*
X132217598Y-95700941D01*
X132389655Y-95585977D01*
X132496974Y-95478658D01*
X132549300Y-95456984D01*
X132601626Y-95478658D01*
X132623300Y-95530984D01*
X132623300Y-96549016D01*
X132601626Y-96601342D01*
X132549300Y-96623016D01*
X132496974Y-96601342D01*
X132389654Y-96494022D01*
X132217598Y-96379059D01*
X132026420Y-96299870D01*
X132026413Y-96299868D01*
X131873516Y-96269455D01*
X131823465Y-96259500D01*
X131616535Y-96259500D01*
X131576385Y-96267486D01*
X131413586Y-96299868D01*
X131413579Y-96299870D01*
X131222401Y-96379059D01*
X131050345Y-96494022D01*
X131050344Y-96494024D01*
X130904024Y-96640344D01*
X130904022Y-96640345D01*
X130789059Y-96812401D01*
X130709870Y-97003579D01*
X130709868Y-97003586D01*
X130669500Y-97206535D01*
X130669500Y-97413464D01*
X130709868Y-97616413D01*
X130709870Y-97616420D01*
X130789059Y-97807598D01*
X130900024Y-97973671D01*
X130904023Y-97979655D01*
X131050345Y-98125977D01*
X131222402Y-98240941D01*
X131413580Y-98320130D01*
X131616535Y-98360500D01*
X131616536Y-98360500D01*
X131823464Y-98360500D01*
X131823465Y-98360500D01*
X132026420Y-98320130D01*
X132217598Y-98240941D01*
X132389655Y-98125977D01*
X132496974Y-98018658D01*
X132549300Y-97996984D01*
X132601626Y-98018658D01*
X132623300Y-98070984D01*
X132623300Y-99089016D01*
X132601626Y-99141342D01*
X132549300Y-99163016D01*
X132496974Y-99141342D01*
X132389654Y-99034022D01*
X132217598Y-98919059D01*
X132026420Y-98839870D01*
X132026413Y-98839868D01*
X131873516Y-98809455D01*
X131823465Y-98799500D01*
X131616535Y-98799500D01*
X131576385Y-98807486D01*
X131413586Y-98839868D01*
X131413579Y-98839870D01*
X131222401Y-98919059D01*
X131050345Y-99034022D01*
X131050344Y-99034024D01*
X130904024Y-99180344D01*
X130904022Y-99180345D01*
X130789059Y-99352401D01*
X130709870Y-99543579D01*
X130709868Y-99543586D01*
X130680487Y-99691298D01*
X130669500Y-99746535D01*
X130669500Y-99953465D01*
X130675467Y-99983464D01*
X130709868Y-100156413D01*
X130709870Y-100156420D01*
X130789059Y-100347598D01*
X130858314Y-100451247D01*
X130904023Y-100519655D01*
X131050345Y-100665977D01*
X131222402Y-100780941D01*
X131413580Y-100860130D01*
X131616535Y-100900500D01*
X131616536Y-100900500D01*
X131823464Y-100900500D01*
X131823465Y-100900500D01*
X132026420Y-100860130D01*
X132217598Y-100780941D01*
X132389655Y-100665977D01*
X132496974Y-100558658D01*
X132549300Y-100536984D01*
X132601626Y-100558658D01*
X132623300Y-100610984D01*
X132623300Y-101629016D01*
X132601626Y-101681342D01*
X132549300Y-101703016D01*
X132496974Y-101681342D01*
X132389654Y-101574022D01*
X132217598Y-101459059D01*
X132026420Y-101379870D01*
X132026413Y-101379868D01*
X131873516Y-101349455D01*
X131823465Y-101339500D01*
X131616535Y-101339500D01*
X131576385Y-101347486D01*
X131413586Y-101379868D01*
X131413579Y-101379870D01*
X131222401Y-101459059D01*
X131050345Y-101574022D01*
X131050344Y-101574024D01*
X130904024Y-101720344D01*
X130904022Y-101720345D01*
X130789059Y-101892401D01*
X130709870Y-102083579D01*
X130709868Y-102083586D01*
X130669500Y-102286535D01*
X130669500Y-102493464D01*
X130709868Y-102696413D01*
X130709870Y-102696420D01*
X130789059Y-102887598D01*
X130903417Y-103058749D01*
X130904023Y-103059655D01*
X131050345Y-103205977D01*
X131222402Y-103320941D01*
X131413580Y-103400130D01*
X131616535Y-103440500D01*
X131616536Y-103440500D01*
X131823464Y-103440500D01*
X131823465Y-103440500D01*
X132026420Y-103400130D01*
X132217598Y-103320941D01*
X132389655Y-103205977D01*
X132496974Y-103098658D01*
X132549300Y-103076984D01*
X132601626Y-103098658D01*
X132623300Y-103150984D01*
X132623300Y-104169016D01*
X132601626Y-104221342D01*
X132549300Y-104243016D01*
X132496974Y-104221342D01*
X132389654Y-104114022D01*
X132217598Y-103999059D01*
X132026420Y-103919870D01*
X132026413Y-103919868D01*
X131873516Y-103889455D01*
X131823465Y-103879500D01*
X131616535Y-103879500D01*
X131590463Y-103884686D01*
X131413586Y-103919868D01*
X131413579Y-103919870D01*
X131222401Y-103999059D01*
X131050345Y-104114022D01*
X131050344Y-104114024D01*
X130904024Y-104260344D01*
X130904022Y-104260345D01*
X130789059Y-104432401D01*
X130709870Y-104623579D01*
X130709868Y-104623586D01*
X130681224Y-104767593D01*
X130669500Y-104826535D01*
X130669500Y-105033465D01*
X130674063Y-105056405D01*
X130709868Y-105236413D01*
X130709870Y-105236420D01*
X130789059Y-105427598D01*
X130876648Y-105558686D01*
X130904023Y-105599655D01*
X131050345Y-105745977D01*
X131222402Y-105860941D01*
X131413580Y-105940130D01*
X131616535Y-105980500D01*
X131616536Y-105980500D01*
X131823464Y-105980500D01*
X131823465Y-105980500D01*
X132026420Y-105940130D01*
X132217598Y-105860941D01*
X132389655Y-105745977D01*
X132496974Y-105638658D01*
X132549300Y-105616984D01*
X132601626Y-105638658D01*
X132623300Y-105690984D01*
X132623300Y-106144734D01*
X132601626Y-106197060D01*
X132282280Y-106516406D01*
X132229954Y-106538080D01*
X132201635Y-106532447D01*
X132026420Y-106459870D01*
X132026413Y-106459868D01*
X131856706Y-106426112D01*
X131823465Y-106419500D01*
X131616535Y-106419500D01*
X131583294Y-106426112D01*
X131413586Y-106459868D01*
X131413579Y-106459870D01*
X131222401Y-106539059D01*
X131050345Y-106654022D01*
X131050344Y-106654024D01*
X130904024Y-106800344D01*
X130904022Y-106800345D01*
X130789059Y-106972401D01*
X130709870Y-107163579D01*
X130709868Y-107163586D01*
X130669500Y-107366535D01*
X130669500Y-107573465D01*
X130675467Y-107603464D01*
X130709868Y-107776413D01*
X130709870Y-107776420D01*
X130789059Y-107967598D01*
X130821229Y-108015745D01*
X130904023Y-108139655D01*
X131050345Y-108285977D01*
X131222402Y-108400941D01*
X131413580Y-108480130D01*
X131616535Y-108520500D01*
X131616536Y-108520500D01*
X131823464Y-108520500D01*
X131823465Y-108520500D01*
X132026420Y-108480130D01*
X132217598Y-108400941D01*
X132389655Y-108285977D01*
X132535977Y-108139655D01*
X132650941Y-107967598D01*
X132730130Y-107776420D01*
X132770500Y-107573465D01*
X132770500Y-107366535D01*
X132730130Y-107163580D01*
X132657552Y-106988362D01*
X132657552Y-106931726D01*
X132673590Y-106907721D01*
X132801774Y-106779537D01*
X132854100Y-106757864D01*
X132906426Y-106779538D01*
X132928100Y-106831864D01*
X132928100Y-108379934D01*
X132906426Y-108432260D01*
X132282280Y-109056405D01*
X132229954Y-109078079D01*
X132201636Y-109072446D01*
X132026424Y-108999871D01*
X132026413Y-108999868D01*
X131873516Y-108969455D01*
X131823465Y-108959500D01*
X131616535Y-108959500D01*
X131576385Y-108967486D01*
X131413586Y-108999868D01*
X131413579Y-108999870D01*
X131222401Y-109079059D01*
X131050345Y-109194022D01*
X131050344Y-109194024D01*
X130904024Y-109340344D01*
X130904022Y-109340345D01*
X130789059Y-109512401D01*
X130709870Y-109703579D01*
X130709868Y-109703586D01*
X130669500Y-109906535D01*
X130669500Y-110113464D01*
X130709868Y-110316413D01*
X130709870Y-110316420D01*
X130789059Y-110507598D01*
X130827592Y-110565268D01*
X130904023Y-110679655D01*
X131050345Y-110825977D01*
X131222402Y-110940941D01*
X131413580Y-111020130D01*
X131616535Y-111060500D01*
X131616536Y-111060500D01*
X131823464Y-111060500D01*
X131823465Y-111060500D01*
X132026420Y-111020130D01*
X132217598Y-110940941D01*
X132389655Y-110825977D01*
X132535977Y-110679655D01*
X132650941Y-110507598D01*
X132730130Y-110316420D01*
X132770500Y-110113465D01*
X132770500Y-109906535D01*
X132730130Y-109703580D01*
X132657552Y-109528362D01*
X132657552Y-109471726D01*
X132673590Y-109447721D01*
X133426215Y-108695098D01*
X133462643Y-108632003D01*
X133462644Y-108632002D01*
X133481500Y-108561628D01*
X133481500Y-93914517D01*
X133503174Y-93862191D01*
X136219191Y-91146174D01*
X136271517Y-91124500D01*
X136826388Y-91124500D01*
X136878714Y-91146174D01*
X136900388Y-91198500D01*
X136899590Y-91206610D01*
X136899856Y-91206637D01*
X136899500Y-91210249D01*
X136899500Y-91210252D01*
X136899500Y-92249748D01*
X136907255Y-92288736D01*
X136911133Y-92308232D01*
X136924842Y-92328748D01*
X136955448Y-92374552D01*
X136999560Y-92404027D01*
X137021767Y-92418866D01*
X137021769Y-92418867D01*
X137026696Y-92419847D01*
X137026701Y-92419848D01*
X137073794Y-92451313D01*
X137084844Y-92506861D01*
X137064594Y-92544750D01*
X137055885Y-92553458D01*
X137055883Y-92553461D01*
X136979223Y-92668191D01*
X136926421Y-92795667D01*
X136926418Y-92795677D01*
X136905736Y-92899655D01*
X136899500Y-92931007D01*
X136899500Y-93068993D01*
X136903888Y-93091053D01*
X136926418Y-93204322D01*
X136926421Y-93204332D01*
X136979223Y-93331808D01*
X137054128Y-93443912D01*
X137055886Y-93446542D01*
X137153458Y-93544114D01*
X137153461Y-93544116D01*
X137153463Y-93544118D01*
X137197394Y-93573472D01*
X137228859Y-93620564D01*
X137217809Y-93676113D01*
X137197394Y-93696528D01*
X137153463Y-93725881D01*
X137055883Y-93823461D01*
X136979223Y-93938191D01*
X136926421Y-94065667D01*
X136926418Y-94065677D01*
X136909101Y-94152741D01*
X136899500Y-94201007D01*
X136899500Y-94338993D01*
X136906562Y-94374495D01*
X136926418Y-94474322D01*
X136926421Y-94474332D01*
X136979223Y-94601808D01*
X137042517Y-94696535D01*
X137055886Y-94716542D01*
X137153458Y-94814114D01*
X137268189Y-94890775D01*
X137395672Y-94943580D01*
X137531007Y-94970500D01*
X137531009Y-94970500D01*
X137668991Y-94970500D01*
X137668993Y-94970500D01*
X137804328Y-94943580D01*
X137931811Y-94890775D01*
X138046542Y-94814114D01*
X138144114Y-94716542D01*
X138220775Y-94601811D01*
X138224681Y-94592380D01*
X138264730Y-94552333D01*
X138293048Y-94546700D01*
X138554735Y-94546700D01*
X138607061Y-94568374D01*
X140805258Y-96766571D01*
X140805257Y-96766571D01*
X140844477Y-96805790D01*
X140856775Y-96818088D01*
X140919871Y-96854517D01*
X140990245Y-96873373D01*
X140990246Y-96873373D01*
X142098880Y-96873373D01*
X142098881Y-96873373D01*
X142169256Y-96854517D01*
X142232351Y-96818088D01*
X142296975Y-96753463D01*
X142349300Y-96731790D01*
X142401626Y-96753464D01*
X142423300Y-96805790D01*
X142423300Y-97135423D01*
X142401626Y-97187749D01*
X142349300Y-97209423D01*
X142312300Y-97199509D01*
X142212309Y-97141779D01*
X142212304Y-97141777D01*
X142097733Y-97111078D01*
X142097731Y-97111078D01*
X141979113Y-97111078D01*
X141979111Y-97111078D01*
X141864539Y-97141777D01*
X141864534Y-97141779D01*
X141761812Y-97201086D01*
X141699694Y-97263204D01*
X141647368Y-97284878D01*
X138652632Y-97284878D01*
X138600307Y-97263205D01*
X138600306Y-97263204D01*
X138576613Y-97239511D01*
X138576610Y-97239509D01*
X138576609Y-97239508D01*
X138473887Y-97180201D01*
X138473882Y-97180199D01*
X138359311Y-97149500D01*
X138359309Y-97149500D01*
X138240691Y-97149500D01*
X138240689Y-97149500D01*
X138126117Y-97180199D01*
X138126112Y-97180201D01*
X138023390Y-97239508D01*
X137939508Y-97323390D01*
X137880201Y-97426112D01*
X137880199Y-97426117D01*
X137849500Y-97540688D01*
X137849500Y-97659311D01*
X137880199Y-97773882D01*
X137880201Y-97773887D01*
X137939508Y-97876609D01*
X137939509Y-97876610D01*
X137939511Y-97876613D01*
X138023387Y-97960489D01*
X138023389Y-97960490D01*
X138023390Y-97960491D01*
X138126112Y-98019798D01*
X138126114Y-98019799D01*
X138126115Y-98019799D01*
X138126117Y-98019800D01*
X138165804Y-98030434D01*
X138240688Y-98050499D01*
X138240689Y-98050500D01*
X138240691Y-98050500D01*
X138359311Y-98050500D01*
X138359311Y-98050499D01*
X138473886Y-98019799D01*
X138576613Y-97960489D01*
X138660489Y-97876613D01*
X138661259Y-97875280D01*
X138661874Y-97874807D01*
X138663447Y-97872759D01*
X138663995Y-97873180D01*
X138706191Y-97840800D01*
X138725346Y-97838278D01*
X141647368Y-97838278D01*
X141699694Y-97859952D01*
X141761809Y-97922067D01*
X141761811Y-97922068D01*
X141761812Y-97922069D01*
X141862499Y-97980201D01*
X141864536Y-97981377D01*
X141864537Y-97981377D01*
X141864539Y-97981378D01*
X141888253Y-97987732D01*
X141979110Y-98012077D01*
X141979111Y-98012078D01*
X141979113Y-98012078D01*
X142097733Y-98012078D01*
X142097733Y-98012077D01*
X142212308Y-97981377D01*
X142312300Y-97923645D01*
X142368452Y-97916253D01*
X142413386Y-97950732D01*
X142423300Y-97987732D01*
X142423300Y-103115260D01*
X142423300Y-103188116D01*
X142442156Y-103258491D01*
X142478585Y-103321586D01*
X142989360Y-103832361D01*
X143011034Y-103884686D01*
X143011034Y-105406471D01*
X143024733Y-105457598D01*
X143029890Y-105476845D01*
X143029892Y-105476849D01*
X143066317Y-105539938D01*
X143069267Y-105543782D01*
X143067278Y-105545308D01*
X143085834Y-105590107D01*
X143085834Y-119307416D01*
X143064160Y-119359742D01*
X143030991Y-119378893D01*
X143026116Y-119380199D01*
X142923390Y-119439508D01*
X142839508Y-119523390D01*
X142780201Y-119626112D01*
X142780199Y-119626117D01*
X142749500Y-119740688D01*
X142749500Y-119859311D01*
X142780199Y-119973882D01*
X142780201Y-119973887D01*
X142839508Y-120076609D01*
X142839509Y-120076610D01*
X142839511Y-120076613D01*
X142923387Y-120160489D01*
X142923389Y-120160490D01*
X142923390Y-120160491D01*
X143026112Y-120219798D01*
X143026114Y-120219799D01*
X143026115Y-120219799D01*
X143026117Y-120219800D01*
X143083402Y-120235149D01*
X143140688Y-120250499D01*
X143140689Y-120250500D01*
X143140691Y-120250500D01*
X143259311Y-120250500D01*
X143259311Y-120250499D01*
X143373886Y-120219799D01*
X143476613Y-120160489D01*
X143560489Y-120076613D01*
X143619799Y-119973886D01*
X143650499Y-119859311D01*
X143650500Y-119859311D01*
X143650500Y-119747331D01*
X143672174Y-119695005D01*
X143724500Y-119673331D01*
X143776826Y-119695005D01*
X145242928Y-121161107D01*
X145264602Y-121213433D01*
X145242928Y-121265759D01*
X144198584Y-122310103D01*
X144198583Y-122310105D01*
X144162159Y-122373190D01*
X144162156Y-122373196D01*
X144162156Y-122373197D01*
X144145977Y-122433580D01*
X144145977Y-122433581D01*
X144145976Y-122433580D01*
X144143300Y-122443567D01*
X144143300Y-125371596D01*
X144121626Y-125423922D01*
X144097620Y-125439963D01*
X144063188Y-125454225D01*
X143948461Y-125530883D01*
X143850881Y-125628463D01*
X143821528Y-125672394D01*
X143774436Y-125703859D01*
X143718887Y-125692809D01*
X143698472Y-125672394D01*
X143669118Y-125628463D01*
X143669116Y-125628461D01*
X143669114Y-125628458D01*
X143571542Y-125530886D01*
X143564400Y-125526114D01*
X143456808Y-125454223D01*
X143329332Y-125401421D01*
X143329322Y-125401418D01*
X143238694Y-125383391D01*
X143193993Y-125374500D01*
X143056007Y-125374500D01*
X143017642Y-125382131D01*
X142920677Y-125401418D01*
X142920667Y-125401421D01*
X142793191Y-125454223D01*
X142678461Y-125530883D01*
X142580881Y-125628463D01*
X142551528Y-125672394D01*
X142504436Y-125703859D01*
X142448887Y-125692809D01*
X142428472Y-125672394D01*
X142399118Y-125628463D01*
X142399116Y-125628461D01*
X142399114Y-125628458D01*
X142301542Y-125530886D01*
X142294400Y-125526114D01*
X142186808Y-125454223D01*
X142059332Y-125401421D01*
X142059322Y-125401418D01*
X141968694Y-125383391D01*
X141923993Y-125374500D01*
X141786007Y-125374500D01*
X141747642Y-125382131D01*
X141650677Y-125401418D01*
X141650667Y-125401421D01*
X141523191Y-125454223D01*
X141408461Y-125530883D01*
X141310881Y-125628463D01*
X141281528Y-125672394D01*
X141234436Y-125703859D01*
X141178887Y-125692809D01*
X141158472Y-125672394D01*
X141129118Y-125628463D01*
X141129116Y-125628461D01*
X141129114Y-125628458D01*
X141031542Y-125530886D01*
X140919586Y-125456079D01*
X140888122Y-125408987D01*
X140886700Y-125394551D01*
X140886700Y-123665264D01*
X140908373Y-123612939D01*
X141648749Y-122872564D01*
X141685178Y-122809469D01*
X141704034Y-122739094D01*
X141704034Y-122666238D01*
X141704034Y-105590906D01*
X141695401Y-105558687D01*
X141691816Y-105545308D01*
X141685178Y-105520531D01*
X141655405Y-105468965D01*
X141648749Y-105457436D01*
X140872174Y-104680861D01*
X140850500Y-104628535D01*
X140850500Y-104540689D01*
X140850499Y-104540688D01*
X140819800Y-104426117D01*
X140819798Y-104426112D01*
X140760490Y-104323389D01*
X140760489Y-104323387D01*
X140760486Y-104323384D01*
X140757541Y-104319546D01*
X140759786Y-104317822D01*
X140741551Y-104273798D01*
X140759783Y-104229779D01*
X140757538Y-104228056D01*
X140760489Y-104224210D01*
X140762145Y-104221342D01*
X140819799Y-104121483D01*
X140850499Y-104006908D01*
X140850500Y-104006908D01*
X140850500Y-103888286D01*
X140850499Y-103888285D01*
X140819800Y-103773714D01*
X140819798Y-103773709D01*
X140760491Y-103670987D01*
X140760490Y-103670986D01*
X140760489Y-103670984D01*
X140676613Y-103587108D01*
X140676610Y-103587106D01*
X140676609Y-103587105D01*
X140573887Y-103527798D01*
X140573882Y-103527796D01*
X140459311Y-103497097D01*
X140459309Y-103497097D01*
X140340691Y-103497097D01*
X140340689Y-103497097D01*
X140226117Y-103527796D01*
X140226112Y-103527798D01*
X140123390Y-103587105D01*
X140039508Y-103670987D01*
X139980201Y-103773709D01*
X139980199Y-103773714D01*
X139949500Y-103888285D01*
X139949500Y-103951692D01*
X139927826Y-104004018D01*
X139699984Y-104231860D01*
X139699983Y-104231862D01*
X139663559Y-104294947D01*
X139663554Y-104294958D01*
X139655960Y-104323298D01*
X139655961Y-104323299D01*
X139655938Y-104323387D01*
X139644700Y-104365329D01*
X139644700Y-107582250D01*
X139644700Y-107655106D01*
X139663556Y-107725481D01*
X139699985Y-107788576D01*
X139858960Y-107947551D01*
X139880634Y-107999876D01*
X139880634Y-108323989D01*
X139858960Y-108376315D01*
X139806634Y-108397989D01*
X139769634Y-108388075D01*
X139631781Y-108308486D01*
X139555279Y-108287988D01*
X139522106Y-108268836D01*
X139225574Y-107972304D01*
X139203900Y-107919978D01*
X139203900Y-107320041D01*
X139203899Y-107320040D01*
X139175721Y-107214877D01*
X139175720Y-107214874D01*
X139175720Y-107214875D01*
X139173199Y-107205466D01*
X139173199Y-107205465D01*
X139113889Y-107102738D01*
X137423706Y-105412555D01*
X137402032Y-105360229D01*
X137402032Y-95992221D01*
X137402031Y-95992220D01*
X137401522Y-95990322D01*
X137374761Y-95890446D01*
X137373853Y-95887057D01*
X137373852Y-95887054D01*
X137373852Y-95887055D01*
X137371331Y-95877646D01*
X137371331Y-95877645D01*
X137312021Y-95774918D01*
X137180836Y-95643733D01*
X137159162Y-95591407D01*
X137159162Y-95579603D01*
X137159161Y-95579602D01*
X137158313Y-95576439D01*
X137118239Y-95426878D01*
X137039182Y-95289946D01*
X136927378Y-95178142D01*
X136790446Y-95099085D01*
X136790443Y-95099084D01*
X136790441Y-95099083D01*
X136637721Y-95058162D01*
X136637719Y-95058162D01*
X136479605Y-95058162D01*
X136479603Y-95058162D01*
X136326882Y-95099083D01*
X136326876Y-95099086D01*
X136189945Y-95178142D01*
X136078142Y-95289945D01*
X135999086Y-95426876D01*
X135999083Y-95426882D01*
X135958162Y-95579602D01*
X135958162Y-95737721D01*
X135999083Y-95890441D01*
X135999084Y-95890443D01*
X135999085Y-95890446D01*
X136078142Y-96027378D01*
X136189946Y-96139182D01*
X136326878Y-96218239D01*
X136446185Y-96250207D01*
X136491118Y-96284685D01*
X136501032Y-96321685D01*
X136501032Y-105636795D01*
X136518688Y-105702686D01*
X136518688Y-105702687D01*
X136531731Y-105751366D01*
X136531735Y-105751375D01*
X136591040Y-105854094D01*
X136591041Y-105854095D01*
X136591043Y-105854098D01*
X136707074Y-105970129D01*
X136815633Y-106078688D01*
X136837307Y-106131014D01*
X136815633Y-106183340D01*
X136800307Y-106195100D01*
X136723390Y-106239508D01*
X136639508Y-106323390D01*
X136580201Y-106426112D01*
X136580199Y-106426117D01*
X136549500Y-106540688D01*
X136549500Y-106659311D01*
X136580199Y-106773882D01*
X136580201Y-106773887D01*
X136639508Y-106876609D01*
X136639509Y-106876610D01*
X136639511Y-106876613D01*
X136723387Y-106960489D01*
X136723389Y-106960490D01*
X136723390Y-106960491D01*
X136826112Y-107019798D01*
X136826114Y-107019799D01*
X136826115Y-107019799D01*
X136826117Y-107019800D01*
X136835164Y-107022224D01*
X136940688Y-107050499D01*
X136940689Y-107050500D01*
X136940691Y-107050500D01*
X136956693Y-107050500D01*
X137009019Y-107072174D01*
X137628113Y-107691268D01*
X137649787Y-107743594D01*
X137649787Y-107856405D01*
X137628113Y-107908731D01*
X134198910Y-111337935D01*
X134137935Y-111398909D01*
X134094817Y-111473592D01*
X134072500Y-111556881D01*
X134072500Y-125359746D01*
X134050828Y-125412070D01*
X134039508Y-125423389D01*
X133980201Y-125526112D01*
X133980199Y-125526117D01*
X133949500Y-125640688D01*
X133949500Y-125759311D01*
X133980199Y-125873882D01*
X133980201Y-125873887D01*
X134039508Y-125976609D01*
X134039509Y-125976610D01*
X134039511Y-125976613D01*
X134123387Y-126060489D01*
X134123389Y-126060490D01*
X134123390Y-126060491D01*
X134184853Y-126095977D01*
X134226114Y-126119799D01*
X134226115Y-126119799D01*
X134226117Y-126119800D01*
X134283402Y-126135149D01*
X134340688Y-126150499D01*
X134340689Y-126150500D01*
X134340691Y-126150500D01*
X134459311Y-126150500D01*
X134459311Y-126150499D01*
X134573886Y-126119799D01*
X134676613Y-126060489D01*
X134760489Y-125976613D01*
X134819799Y-125873886D01*
X134850499Y-125759311D01*
X134850500Y-125759311D01*
X134850500Y-125640689D01*
X134850499Y-125640688D01*
X134819800Y-125526117D01*
X134819798Y-125526112D01*
X134760491Y-125423389D01*
X134749172Y-125412070D01*
X134727500Y-125359746D01*
X134727500Y-119714973D01*
X134749174Y-119662647D01*
X134801500Y-119640973D01*
X134820649Y-119643494D01*
X134854536Y-119652574D01*
X134870089Y-119656742D01*
X134870090Y-119656742D01*
X134988710Y-119656742D01*
X134988710Y-119656741D01*
X135103285Y-119626041D01*
X135206012Y-119566731D01*
X135289888Y-119482855D01*
X135289894Y-119482843D01*
X135291577Y-119480652D01*
X135292790Y-119479951D01*
X135293317Y-119479425D01*
X135293457Y-119479565D01*
X135340626Y-119452333D01*
X135350286Y-119451700D01*
X135811427Y-119451700D01*
X135811428Y-119451700D01*
X135881803Y-119432844D01*
X135944898Y-119396415D01*
X139256252Y-116085059D01*
X139308577Y-116063386D01*
X139345574Y-116073299D01*
X139426114Y-116119799D01*
X139426116Y-116119799D01*
X139426117Y-116119800D01*
X139464673Y-116130131D01*
X139540688Y-116150499D01*
X139540689Y-116150500D01*
X139540691Y-116150500D01*
X139659311Y-116150500D01*
X139659311Y-116150499D01*
X139773886Y-116119799D01*
X139773890Y-116119796D01*
X139778313Y-116117965D01*
X139834950Y-116117963D01*
X139875000Y-116158010D01*
X139880634Y-116186331D01*
X139880634Y-122557401D01*
X139858960Y-122609727D01*
X139118584Y-123350103D01*
X139118583Y-123350105D01*
X139082156Y-123413194D01*
X139082156Y-123413198D01*
X139063300Y-123483573D01*
X139063300Y-125371596D01*
X139041626Y-125423922D01*
X139017620Y-125439963D01*
X138983188Y-125454225D01*
X138868461Y-125530883D01*
X138770883Y-125628461D01*
X138694223Y-125743191D01*
X138641421Y-125870667D01*
X138641418Y-125870677D01*
X138631676Y-125919656D01*
X138614500Y-126006007D01*
X138614500Y-126143993D01*
X138623391Y-126188694D01*
X138641418Y-126279322D01*
X138641421Y-126279332D01*
X138694223Y-126406808D01*
X138759255Y-126504136D01*
X138770886Y-126521542D01*
X138868458Y-126619114D01*
X138983189Y-126695775D01*
X139110672Y-126748580D01*
X139246007Y-126775500D01*
X139246009Y-126775500D01*
X139383991Y-126775500D01*
X139383993Y-126775500D01*
X139519328Y-126748580D01*
X139646811Y-126695775D01*
X139761542Y-126619114D01*
X139859114Y-126521542D01*
X139888471Y-126477605D01*
X139935563Y-126446140D01*
X139991112Y-126457189D01*
X140011528Y-126477605D01*
X140040886Y-126521542D01*
X140138458Y-126619114D01*
X140253189Y-126695775D01*
X140380672Y-126748580D01*
X140516007Y-126775500D01*
X140516009Y-126775500D01*
X140653991Y-126775500D01*
X140653993Y-126775500D01*
X140789328Y-126748580D01*
X140916811Y-126695775D01*
X141031542Y-126619114D01*
X141129114Y-126521542D01*
X141158471Y-126477605D01*
X141205563Y-126446140D01*
X141261112Y-126457189D01*
X141281528Y-126477605D01*
X141310886Y-126521542D01*
X141408458Y-126619114D01*
X141523189Y-126695775D01*
X141650672Y-126748580D01*
X141786007Y-126775500D01*
X141786009Y-126775500D01*
X141923991Y-126775500D01*
X141923993Y-126775500D01*
X142059328Y-126748580D01*
X142186811Y-126695775D01*
X142301542Y-126619114D01*
X142399114Y-126521542D01*
X142428471Y-126477605D01*
X142475563Y-126446140D01*
X142531112Y-126457189D01*
X142551528Y-126477605D01*
X142580886Y-126521542D01*
X142678458Y-126619114D01*
X142793189Y-126695775D01*
X142920672Y-126748580D01*
X143056007Y-126775500D01*
X143056009Y-126775500D01*
X143193991Y-126775500D01*
X143193993Y-126775500D01*
X143329328Y-126748580D01*
X143456811Y-126695775D01*
X143571542Y-126619114D01*
X143669114Y-126521542D01*
X143698471Y-126477605D01*
X143745563Y-126446140D01*
X143801112Y-126457189D01*
X143821528Y-126477605D01*
X143850886Y-126521542D01*
X143948458Y-126619114D01*
X144063189Y-126695775D01*
X144190672Y-126748580D01*
X144326007Y-126775500D01*
X144326009Y-126775500D01*
X144463991Y-126775500D01*
X144463993Y-126775500D01*
X144599328Y-126748580D01*
X144726811Y-126695775D01*
X144841542Y-126619114D01*
X144850248Y-126610407D01*
X144902570Y-126588733D01*
X144954897Y-126610405D01*
X144975150Y-126648293D01*
X144976132Y-126653229D01*
X144976133Y-126653232D01*
X144999249Y-126687826D01*
X145020448Y-126719552D01*
X145050302Y-126739500D01*
X145086767Y-126763866D01*
X145086768Y-126763866D01*
X145086769Y-126763867D01*
X145145252Y-126775500D01*
X145145254Y-126775500D01*
X146184746Y-126775500D01*
X146184748Y-126775500D01*
X146243231Y-126763867D01*
X146309552Y-126719552D01*
X146353867Y-126653231D01*
X146365500Y-126594748D01*
X146365500Y-126425700D01*
X146387174Y-126373374D01*
X146439500Y-126351700D01*
X150266426Y-126351700D01*
X150266427Y-126351700D01*
X150336802Y-126332844D01*
X150399897Y-126296415D01*
X153686473Y-123009839D01*
X153738799Y-122988165D01*
X153826645Y-122988165D01*
X153826645Y-122988164D01*
X153941220Y-122957464D01*
X154043947Y-122898154D01*
X154127823Y-122814278D01*
X154187133Y-122711551D01*
X154217833Y-122596976D01*
X154217834Y-122596976D01*
X154217834Y-122478354D01*
X154217833Y-122478353D01*
X154205836Y-122433581D01*
X154197798Y-122403580D01*
X154187134Y-122363782D01*
X154187132Y-122363777D01*
X154127825Y-122261055D01*
X154127824Y-122261054D01*
X154127823Y-122261052D01*
X154043947Y-122177176D01*
X154043944Y-122177174D01*
X154043943Y-122177173D01*
X153941221Y-122117866D01*
X153941216Y-122117864D01*
X153826645Y-122087165D01*
X153826643Y-122087165D01*
X153708025Y-122087165D01*
X153708023Y-122087165D01*
X153593451Y-122117864D01*
X153593446Y-122117866D01*
X153490724Y-122177173D01*
X153406842Y-122261055D01*
X153347535Y-122363777D01*
X153347533Y-122363782D01*
X153316834Y-122478353D01*
X153316834Y-122566200D01*
X153295160Y-122618526D01*
X150137060Y-125776626D01*
X150084734Y-125798300D01*
X146439500Y-125798300D01*
X146387174Y-125776626D01*
X146365500Y-125724300D01*
X146365500Y-125555253D01*
X146360653Y-125530886D01*
X146353867Y-125496769D01*
X146309552Y-125430448D01*
X146266111Y-125401421D01*
X146243232Y-125386133D01*
X146243233Y-125386133D01*
X146204661Y-125378461D01*
X146184748Y-125374500D01*
X145145252Y-125374500D01*
X145125339Y-125378461D01*
X145086767Y-125386133D01*
X145020449Y-125430447D01*
X145020447Y-125430449D01*
X144976133Y-125496767D01*
X144976132Y-125496770D01*
X144975150Y-125501707D01*
X144943682Y-125548797D01*
X144888132Y-125559843D01*
X144850249Y-125539593D01*
X144841542Y-125530886D01*
X144729586Y-125456079D01*
X144698122Y-125408987D01*
X144696700Y-125394551D01*
X144696700Y-122625265D01*
X144718374Y-122572939D01*
X145634241Y-121657072D01*
X145686567Y-121635398D01*
X145738893Y-121657072D01*
X146751719Y-122669898D01*
X146751718Y-122669898D01*
X146793368Y-122711547D01*
X146803236Y-122721415D01*
X146866332Y-122757844D01*
X146936706Y-122776700D01*
X151426580Y-122776700D01*
X151478906Y-122798374D01*
X151541021Y-122860489D01*
X151541023Y-122860490D01*
X151541024Y-122860491D01*
X151643746Y-122919798D01*
X151643748Y-122919799D01*
X151643749Y-122919799D01*
X151643751Y-122919800D01*
X151701036Y-122935149D01*
X151758322Y-122950499D01*
X151758323Y-122950500D01*
X151758325Y-122950500D01*
X151876945Y-122950500D01*
X151876945Y-122950499D01*
X151991520Y-122919799D01*
X152094247Y-122860489D01*
X152178123Y-122776613D01*
X152237433Y-122673886D01*
X152268133Y-122559311D01*
X152268134Y-122559311D01*
X152268134Y-122440689D01*
X152268133Y-122440688D01*
X152266228Y-122433580D01*
X152237433Y-122326114D01*
X152228189Y-122310103D01*
X152178125Y-122223390D01*
X152178124Y-122223389D01*
X152178123Y-122223387D01*
X152094247Y-122139511D01*
X152094244Y-122139509D01*
X152094243Y-122139508D01*
X151991521Y-122080201D01*
X151991516Y-122080199D01*
X151876945Y-122049500D01*
X151876943Y-122049500D01*
X151758325Y-122049500D01*
X151758323Y-122049500D01*
X151643751Y-122080199D01*
X151643746Y-122080201D01*
X151541024Y-122139508D01*
X151478906Y-122201626D01*
X151426580Y-122223300D01*
X147118399Y-122223300D01*
X147066073Y-122201626D01*
X143965708Y-119101261D01*
X143944034Y-119048935D01*
X143944034Y-107115929D01*
X143965705Y-107063606D01*
X143995214Y-107034097D01*
X144011431Y-107023284D01*
X144010819Y-107022224D01*
X144015018Y-107019799D01*
X144015020Y-107019799D01*
X144117747Y-106960489D01*
X144201623Y-106876613D01*
X144260933Y-106773886D01*
X144291633Y-106659311D01*
X144291634Y-106659311D01*
X144291634Y-106540689D01*
X144291633Y-106540688D01*
X144260934Y-106426117D01*
X144260932Y-106426112D01*
X144201625Y-106323390D01*
X144201624Y-106323389D01*
X144201623Y-106323387D01*
X144117747Y-106239511D01*
X144117744Y-106239509D01*
X144117743Y-106239508D01*
X144015021Y-106180201D01*
X144015016Y-106180199D01*
X143900445Y-106149500D01*
X143900443Y-106149500D01*
X143781825Y-106149500D01*
X143732386Y-106162747D01*
X143676234Y-106155354D01*
X143641755Y-106110420D01*
X143639234Y-106091268D01*
X143639234Y-105408417D01*
X143638712Y-105406469D01*
X143620378Y-105338042D01*
X143583949Y-105274946D01*
X143583946Y-105274943D01*
X143581001Y-105271105D01*
X143582982Y-105269583D01*
X143564434Y-105224779D01*
X143564434Y-103702995D01*
X143555857Y-103670984D01*
X143545578Y-103632620D01*
X143509149Y-103569524D01*
X143509148Y-103569523D01*
X143457632Y-103518006D01*
X143457632Y-103518007D01*
X142998374Y-103058749D01*
X142976700Y-103006423D01*
X142976700Y-96781234D01*
X142998373Y-96728909D01*
X143283762Y-96443520D01*
X143336086Y-96421847D01*
X143388412Y-96443521D01*
X143407564Y-96476692D01*
X143413022Y-96497060D01*
X143413023Y-96497063D01*
X143428589Y-96524024D01*
X143492080Y-96633995D01*
X143500426Y-96642341D01*
X143522100Y-96694667D01*
X143522100Y-97180691D01*
X143519579Y-97199842D01*
X143512971Y-97224504D01*
X143512971Y-101592729D01*
X143503057Y-101629728D01*
X143440425Y-101738211D01*
X143440421Y-101738220D01*
X143399500Y-101890940D01*
X143399500Y-102049059D01*
X143440421Y-102201779D01*
X143440422Y-102201781D01*
X143440423Y-102201784D01*
X143519480Y-102338716D01*
X143631284Y-102450520D01*
X143768216Y-102529577D01*
X143920940Y-102570499D01*
X143920941Y-102570500D01*
X143920943Y-102570500D01*
X144079059Y-102570500D01*
X144079059Y-102570499D01*
X144231784Y-102529577D01*
X144368716Y-102450520D01*
X144480520Y-102338716D01*
X144485214Y-102330584D01*
X144530146Y-102296107D01*
X144586299Y-102303498D01*
X144620778Y-102348431D01*
X144623300Y-102367585D01*
X144623300Y-114587525D01*
X144620779Y-114606677D01*
X144612095Y-114639088D01*
X144607109Y-114657696D01*
X144607109Y-116304502D01*
X144585435Y-116356828D01*
X144356518Y-116585745D01*
X144356517Y-116585747D01*
X144320090Y-116648837D01*
X144318775Y-116653747D01*
X144301234Y-116719214D01*
X144301234Y-117064663D01*
X144301234Y-117137519D01*
X144307901Y-117162401D01*
X144320090Y-117207894D01*
X144320093Y-117207900D01*
X144330611Y-117226117D01*
X144356519Y-117270989D01*
X144874160Y-117788630D01*
X145365004Y-118279474D01*
X145386678Y-118331800D01*
X145376765Y-118368799D01*
X145357042Y-118402960D01*
X145326343Y-118517531D01*
X145326343Y-118636154D01*
X145357042Y-118750725D01*
X145357044Y-118750730D01*
X145416351Y-118853452D01*
X145416352Y-118853453D01*
X145416354Y-118853456D01*
X145500230Y-118937332D01*
X145602957Y-118996642D01*
X145602958Y-118996642D01*
X145602960Y-118996643D01*
X145660245Y-119011992D01*
X145717531Y-119027342D01*
X145717532Y-119027343D01*
X145717534Y-119027343D01*
X145836154Y-119027343D01*
X145836154Y-119027342D01*
X145950729Y-118996642D01*
X146053456Y-118937332D01*
X146137332Y-118853456D01*
X146196642Y-118750729D01*
X146227342Y-118636154D01*
X146227343Y-118636154D01*
X146227343Y-118517532D01*
X146227342Y-118517531D01*
X146216207Y-118475976D01*
X146196642Y-118402957D01*
X146137332Y-118300230D01*
X146053456Y-118216354D01*
X146053453Y-118216352D01*
X146050026Y-118212925D01*
X146050595Y-118212355D01*
X146036402Y-118196168D01*
X145998259Y-118130104D01*
X145998257Y-118130101D01*
X145946741Y-118078584D01*
X145946741Y-118078585D01*
X145773198Y-117905042D01*
X145751524Y-117852716D01*
X145773198Y-117800390D01*
X145788524Y-117788630D01*
X145801716Y-117781013D01*
X145837265Y-117760489D01*
X145921141Y-117676613D01*
X145980451Y-117573886D01*
X146011151Y-117459311D01*
X146011152Y-117459311D01*
X146011152Y-117340689D01*
X146011151Y-117340688D01*
X145980452Y-117226117D01*
X145980450Y-117226112D01*
X145921143Y-117123390D01*
X145921142Y-117123389D01*
X145921141Y-117123387D01*
X145859026Y-117061272D01*
X145837352Y-117008946D01*
X145837352Y-116693697D01*
X145836378Y-116690063D01*
X145825333Y-116648839D01*
X145825332Y-116648837D01*
X145818497Y-116623325D01*
X145818496Y-116623321D01*
X145796801Y-116585745D01*
X145791415Y-116576416D01*
X145781500Y-116539415D01*
X145781500Y-114994523D01*
X145784022Y-114975370D01*
X145786299Y-114966868D01*
X145786300Y-114966868D01*
X145786300Y-108649453D01*
X145807974Y-108597127D01*
X145860300Y-108575453D01*
X145912626Y-108597127D01*
X145928819Y-108613320D01*
X146065751Y-108692377D01*
X146218475Y-108733299D01*
X146218476Y-108733300D01*
X146218478Y-108733300D01*
X146265545Y-108733300D01*
X146317871Y-108754974D01*
X149977826Y-112414929D01*
X149999500Y-112467255D01*
X149999500Y-117656450D01*
X150020136Y-117733463D01*
X150020136Y-117733464D01*
X150030199Y-117771021D01*
X150030203Y-117771030D01*
X150089508Y-117873749D01*
X150089509Y-117873750D01*
X150089511Y-117873753D01*
X151838310Y-119622552D01*
X151838312Y-119622553D01*
X151838313Y-119622554D01*
X151897528Y-119656742D01*
X151941037Y-119681862D01*
X151953148Y-119685107D01*
X151960824Y-119687164D01*
X151960827Y-119687164D01*
X151960829Y-119687165D01*
X152055612Y-119712562D01*
X152055613Y-119712563D01*
X152055615Y-119712563D01*
X152174234Y-119712563D01*
X152212154Y-119702402D01*
X152269019Y-119687165D01*
X152288811Y-119681862D01*
X152391538Y-119622552D01*
X152475413Y-119538677D01*
X152511298Y-119476521D01*
X152556231Y-119442044D01*
X152612384Y-119449436D01*
X152627710Y-119461196D01*
X153505269Y-120338755D01*
X153566244Y-120399730D01*
X153640924Y-120442846D01*
X153640926Y-120442847D01*
X153699471Y-120458534D01*
X153724215Y-120465164D01*
X153724216Y-120465165D01*
X153724218Y-120465165D01*
X154974652Y-120465165D01*
X154974652Y-120465164D01*
X155033197Y-120449476D01*
X155057941Y-120442847D01*
X155057941Y-120442846D01*
X155057944Y-120442846D01*
X155132624Y-120399730D01*
X155447108Y-120085246D01*
X155499434Y-120063572D01*
X155551760Y-120085246D01*
X155595160Y-120128646D01*
X155616834Y-120180972D01*
X155616834Y-120196976D01*
X155647533Y-120311547D01*
X155647535Y-120311552D01*
X155706842Y-120414274D01*
X155706843Y-120414275D01*
X155706845Y-120414278D01*
X155790721Y-120498154D01*
X155790723Y-120498155D01*
X155790724Y-120498156D01*
X155805038Y-120506420D01*
X155893448Y-120557464D01*
X155893449Y-120557464D01*
X155893451Y-120557465D01*
X155950736Y-120572814D01*
X156008022Y-120588164D01*
X156008023Y-120588165D01*
X156008025Y-120588165D01*
X156126645Y-120588165D01*
X156126645Y-120588164D01*
X156241220Y-120557464D01*
X156343947Y-120498154D01*
X156427823Y-120414278D01*
X156487133Y-120311551D01*
X156517833Y-120196976D01*
X156517834Y-120196976D01*
X156517834Y-120078354D01*
X156517833Y-120078353D01*
X156514666Y-120066535D01*
X156502483Y-120021067D01*
X156487134Y-119963782D01*
X156487132Y-119963777D01*
X156427825Y-119861055D01*
X156427824Y-119861054D01*
X156427823Y-119861052D01*
X156343947Y-119777176D01*
X156343944Y-119777174D01*
X156343943Y-119777173D01*
X156241221Y-119717866D01*
X156241216Y-119717864D01*
X156126645Y-119687165D01*
X156126643Y-119687165D01*
X156110641Y-119687165D01*
X156058315Y-119665491D01*
X155971608Y-119578784D01*
X155949934Y-119526458D01*
X155949934Y-114540123D01*
X155949933Y-114540122D01*
X155921755Y-114434959D01*
X155921754Y-114434956D01*
X155921754Y-114434957D01*
X155919233Y-114425548D01*
X155919233Y-114425547D01*
X155859924Y-114322820D01*
X152409258Y-110872154D01*
X152387584Y-110819828D01*
X152387584Y-105338595D01*
X152409258Y-105286269D01*
X152461584Y-105264595D01*
X152480737Y-105267117D01*
X152489941Y-105269583D01*
X152519119Y-105277401D01*
X152519120Y-105277402D01*
X152519122Y-105277402D01*
X152637742Y-105277402D01*
X152637742Y-105277401D01*
X152752317Y-105246701D01*
X152855044Y-105187391D01*
X152938920Y-105103515D01*
X152998230Y-105000788D01*
X153028930Y-104886213D01*
X153028931Y-104886213D01*
X153028931Y-104767591D01*
X153028930Y-104767590D01*
X152998231Y-104653019D01*
X152998229Y-104653014D01*
X152938921Y-104550291D01*
X152938919Y-104550288D01*
X152898374Y-104509742D01*
X152876700Y-104457417D01*
X152876700Y-102663573D01*
X152876700Y-102663572D01*
X152857844Y-102593198D01*
X152821415Y-102530102D01*
X152814777Y-102523464D01*
X152769898Y-102478584D01*
X152769898Y-102478585D01*
X150194339Y-99903026D01*
X150172665Y-99850700D01*
X150194339Y-99798374D01*
X150246665Y-99776700D01*
X152348500Y-99776700D01*
X152400826Y-99798374D01*
X152422500Y-99850700D01*
X152422500Y-101033251D01*
X152444817Y-101116540D01*
X152487935Y-101191223D01*
X157850826Y-106554114D01*
X157872500Y-106606440D01*
X157872500Y-115577724D01*
X157850826Y-115630050D01*
X157798500Y-115651724D01*
X157746174Y-115630050D01*
X157736971Y-115618837D01*
X157692530Y-115552326D01*
X157580473Y-115440269D01*
X157559736Y-115426413D01*
X157448705Y-115352224D01*
X157302302Y-115291582D01*
X157302291Y-115291579D01*
X157185198Y-115268288D01*
X157146870Y-115260665D01*
X156988398Y-115260665D01*
X156957651Y-115266780D01*
X156832976Y-115291579D01*
X156832965Y-115291582D01*
X156686562Y-115352224D01*
X156554798Y-115440266D01*
X156442735Y-115552329D01*
X156354693Y-115684093D01*
X156294051Y-115830496D01*
X156294048Y-115830507D01*
X156263134Y-115985929D01*
X156263134Y-116144400D01*
X156294048Y-116299822D01*
X156294051Y-116299833D01*
X156354693Y-116446236D01*
X156416953Y-116539415D01*
X156442738Y-116578004D01*
X156554795Y-116690061D01*
X156686560Y-116778104D01*
X156686561Y-116778104D01*
X156686562Y-116778105D01*
X156832965Y-116838747D01*
X156832970Y-116838749D01*
X156988398Y-116869665D01*
X156988399Y-116869665D01*
X157146869Y-116869665D01*
X157146870Y-116869665D01*
X157302298Y-116838749D01*
X157448708Y-116778104D01*
X157580473Y-116690061D01*
X157692530Y-116578004D01*
X157736971Y-116511492D01*
X157784063Y-116480027D01*
X157839612Y-116491076D01*
X157871078Y-116538168D01*
X157872500Y-116552605D01*
X157872500Y-124843693D01*
X157850826Y-124896019D01*
X156059019Y-126687826D01*
X156006693Y-126709500D01*
X155990689Y-126709500D01*
X155876117Y-126740199D01*
X155876112Y-126740201D01*
X155773390Y-126799508D01*
X155689508Y-126883390D01*
X155630201Y-126986112D01*
X155630199Y-126986117D01*
X155599500Y-127100688D01*
X155599500Y-127219311D01*
X155630199Y-127333882D01*
X155630201Y-127333887D01*
X155689508Y-127436609D01*
X155689509Y-127436610D01*
X155689511Y-127436613D01*
X155773387Y-127520489D01*
X155773389Y-127520490D01*
X155773390Y-127520491D01*
X155876112Y-127579798D01*
X155876114Y-127579799D01*
X155876115Y-127579799D01*
X155876117Y-127579800D01*
X155920432Y-127591674D01*
X155990688Y-127610499D01*
X155990689Y-127610500D01*
X155990691Y-127610500D01*
X156109311Y-127610500D01*
X156109311Y-127610499D01*
X156223886Y-127579799D01*
X156326613Y-127520489D01*
X156410489Y-127436613D01*
X156469799Y-127333886D01*
X156500499Y-127219311D01*
X156500500Y-127219311D01*
X156500500Y-127203307D01*
X156522174Y-127150981D01*
X157462215Y-126210940D01*
X158462065Y-125211090D01*
X158505181Y-125136410D01*
X158527499Y-125053118D01*
X158527500Y-125053118D01*
X158527500Y-122636535D01*
X161139500Y-122636535D01*
X161139500Y-122843464D01*
X161179868Y-123046413D01*
X161179870Y-123046420D01*
X161259059Y-123237598D01*
X161374023Y-123409655D01*
X161520345Y-123555977D01*
X161692402Y-123670941D01*
X161883580Y-123750130D01*
X162086535Y-123790500D01*
X162086536Y-123790500D01*
X162293464Y-123790500D01*
X162293465Y-123790500D01*
X162496420Y-123750130D01*
X162687598Y-123670941D01*
X162859655Y-123555977D01*
X163005977Y-123409655D01*
X163120941Y-123237598D01*
X163200130Y-123046420D01*
X163240500Y-122843465D01*
X163240500Y-122636535D01*
X163200130Y-122433580D01*
X163120941Y-122242402D01*
X163005977Y-122070345D01*
X162859655Y-121924023D01*
X162811986Y-121892172D01*
X162687598Y-121809059D01*
X162496420Y-121729870D01*
X162496413Y-121729868D01*
X162343516Y-121699455D01*
X162293465Y-121689500D01*
X162086535Y-121689500D01*
X162046385Y-121697486D01*
X161883586Y-121729868D01*
X161883579Y-121729870D01*
X161692401Y-121809059D01*
X161520345Y-121924022D01*
X161520344Y-121924024D01*
X161374024Y-122070344D01*
X161374022Y-122070345D01*
X161259059Y-122242401D01*
X161204882Y-122373196D01*
X161192297Y-122403580D01*
X161179871Y-122433578D01*
X161179868Y-122433586D01*
X161139500Y-122636535D01*
X158527500Y-122636535D01*
X158527500Y-120096535D01*
X161139500Y-120096535D01*
X161139500Y-120303465D01*
X161141109Y-120311552D01*
X161179868Y-120506413D01*
X161179870Y-120506420D01*
X161259059Y-120697598D01*
X161370328Y-120864126D01*
X161374023Y-120869655D01*
X161520345Y-121015977D01*
X161692402Y-121130941D01*
X161883580Y-121210130D01*
X162086535Y-121250500D01*
X162086536Y-121250500D01*
X162293464Y-121250500D01*
X162293465Y-121250500D01*
X162496420Y-121210130D01*
X162687598Y-121130941D01*
X162859655Y-121015977D01*
X163005977Y-120869655D01*
X163120941Y-120697598D01*
X163200130Y-120506420D01*
X163240500Y-120303465D01*
X163240500Y-120096535D01*
X163200130Y-119893580D01*
X163120941Y-119702402D01*
X163005977Y-119530345D01*
X162859655Y-119384023D01*
X162851977Y-119378893D01*
X162687598Y-119269059D01*
X162496420Y-119189870D01*
X162496413Y-119189868D01*
X162343516Y-119159455D01*
X162293465Y-119149500D01*
X162086535Y-119149500D01*
X162046385Y-119157486D01*
X161883586Y-119189868D01*
X161883579Y-119189870D01*
X161692401Y-119269059D01*
X161520345Y-119384022D01*
X161520344Y-119384024D01*
X161374024Y-119530344D01*
X161374022Y-119530345D01*
X161259059Y-119702401D01*
X161179870Y-119893579D01*
X161179868Y-119893586D01*
X161139500Y-120096535D01*
X158527500Y-120096535D01*
X158527500Y-117556535D01*
X161139500Y-117556535D01*
X161139500Y-117763464D01*
X161179868Y-117966413D01*
X161179870Y-117966420D01*
X161259059Y-118157598D01*
X161374023Y-118329655D01*
X161520345Y-118475977D01*
X161692402Y-118590941D01*
X161883580Y-118670130D01*
X162086535Y-118710500D01*
X162086536Y-118710500D01*
X162293464Y-118710500D01*
X162293465Y-118710500D01*
X162496420Y-118670130D01*
X162687598Y-118590941D01*
X162859655Y-118475977D01*
X163005977Y-118329655D01*
X163120941Y-118157598D01*
X163200130Y-117966420D01*
X163240500Y-117763465D01*
X163240500Y-117556535D01*
X163200130Y-117353580D01*
X163120941Y-117162402D01*
X163005977Y-116990345D01*
X162859655Y-116844023D01*
X162851763Y-116838750D01*
X162687598Y-116729059D01*
X162496420Y-116649870D01*
X162496413Y-116649868D01*
X162343516Y-116619455D01*
X162293465Y-116609500D01*
X162086535Y-116609500D01*
X162046385Y-116617486D01*
X161883586Y-116649868D01*
X161883579Y-116649870D01*
X161692401Y-116729059D01*
X161520345Y-116844022D01*
X161520344Y-116844024D01*
X161374024Y-116990344D01*
X161374022Y-116990345D01*
X161259059Y-117162401D01*
X161179870Y-117353579D01*
X161179868Y-117353586D01*
X161139500Y-117556535D01*
X158527500Y-117556535D01*
X158527500Y-115016535D01*
X161139500Y-115016535D01*
X161139500Y-115223465D01*
X161149455Y-115273516D01*
X161179868Y-115426413D01*
X161179870Y-115426420D01*
X161259059Y-115617598D01*
X161352590Y-115757579D01*
X161374023Y-115789655D01*
X161520345Y-115935977D01*
X161692402Y-116050941D01*
X161883580Y-116130130D01*
X162086535Y-116170500D01*
X162086536Y-116170500D01*
X162293464Y-116170500D01*
X162293465Y-116170500D01*
X162496420Y-116130130D01*
X162687598Y-116050941D01*
X162859655Y-115935977D01*
X163005977Y-115789655D01*
X163120941Y-115617598D01*
X163200130Y-115426420D01*
X163240500Y-115223465D01*
X163240500Y-115016535D01*
X163200130Y-114813580D01*
X163120941Y-114622402D01*
X163005977Y-114450345D01*
X162859655Y-114304023D01*
X162687598Y-114189059D01*
X162496420Y-114109870D01*
X162496413Y-114109868D01*
X162343516Y-114079455D01*
X162293465Y-114069500D01*
X162086535Y-114069500D01*
X162046385Y-114077486D01*
X161883586Y-114109868D01*
X161883579Y-114109870D01*
X161692401Y-114189059D01*
X161520345Y-114304022D01*
X161520344Y-114304024D01*
X161374024Y-114450344D01*
X161374022Y-114450345D01*
X161259059Y-114622401D01*
X161179870Y-114813579D01*
X161179868Y-114813586D01*
X161161284Y-114907018D01*
X161139500Y-115016535D01*
X158527500Y-115016535D01*
X158527500Y-112476535D01*
X161139500Y-112476535D01*
X161139500Y-112683464D01*
X161179868Y-112886413D01*
X161179870Y-112886420D01*
X161259059Y-113077598D01*
X161374023Y-113249655D01*
X161520345Y-113395977D01*
X161692402Y-113510941D01*
X161883580Y-113590130D01*
X162086535Y-113630500D01*
X162086536Y-113630500D01*
X162293464Y-113630500D01*
X162293465Y-113630500D01*
X162496420Y-113590130D01*
X162687598Y-113510941D01*
X162859655Y-113395977D01*
X163005977Y-113249655D01*
X163120941Y-113077598D01*
X163200130Y-112886420D01*
X163240500Y-112683465D01*
X163240500Y-112476535D01*
X163200130Y-112273580D01*
X163120941Y-112082402D01*
X163005977Y-111910345D01*
X162859655Y-111764023D01*
X162817197Y-111735654D01*
X162687598Y-111649059D01*
X162496420Y-111569870D01*
X162496413Y-111569868D01*
X162343516Y-111539455D01*
X162293465Y-111529500D01*
X162086535Y-111529500D01*
X162046385Y-111537486D01*
X161883586Y-111569868D01*
X161883579Y-111569870D01*
X161692401Y-111649059D01*
X161520345Y-111764022D01*
X161520344Y-111764024D01*
X161374024Y-111910344D01*
X161374022Y-111910345D01*
X161259059Y-112082401D01*
X161179870Y-112273579D01*
X161179868Y-112273586D01*
X161139500Y-112476535D01*
X158527500Y-112476535D01*
X158527500Y-109936535D01*
X161139500Y-109936535D01*
X161139500Y-110143464D01*
X161179868Y-110346413D01*
X161179870Y-110346420D01*
X161259059Y-110537598D01*
X161327154Y-110639511D01*
X161374023Y-110709655D01*
X161520345Y-110855977D01*
X161692402Y-110970941D01*
X161883580Y-111050130D01*
X162086535Y-111090500D01*
X162086536Y-111090500D01*
X162293464Y-111090500D01*
X162293465Y-111090500D01*
X162496420Y-111050130D01*
X162687598Y-110970941D01*
X162859655Y-110855977D01*
X163005977Y-110709655D01*
X163120941Y-110537598D01*
X163200130Y-110346420D01*
X163240500Y-110143465D01*
X163240500Y-109936535D01*
X163200130Y-109733580D01*
X163120941Y-109542402D01*
X163005977Y-109370345D01*
X162859655Y-109224023D01*
X162687598Y-109109059D01*
X162496420Y-109029870D01*
X162496413Y-109029868D01*
X162343516Y-108999455D01*
X162293465Y-108989500D01*
X162086535Y-108989500D01*
X162046385Y-108997486D01*
X161883586Y-109029868D01*
X161883579Y-109029870D01*
X161692401Y-109109059D01*
X161520345Y-109224022D01*
X161520344Y-109224024D01*
X161374024Y-109370344D01*
X161374022Y-109370345D01*
X161259059Y-109542401D01*
X161179870Y-109733579D01*
X161179868Y-109733586D01*
X161139500Y-109936535D01*
X158527500Y-109936535D01*
X158527500Y-107396535D01*
X161139500Y-107396535D01*
X161139500Y-107603464D01*
X161179868Y-107806413D01*
X161179870Y-107806420D01*
X161259059Y-107997598D01*
X161374023Y-108169655D01*
X161520345Y-108315977D01*
X161692402Y-108430941D01*
X161883580Y-108510130D01*
X162086535Y-108550500D01*
X162086536Y-108550500D01*
X162293464Y-108550500D01*
X162293465Y-108550500D01*
X162496420Y-108510130D01*
X162687598Y-108430941D01*
X162859655Y-108315977D01*
X163005977Y-108169655D01*
X163120941Y-107997598D01*
X163200130Y-107806420D01*
X163240500Y-107603465D01*
X163240500Y-107396535D01*
X163200130Y-107193580D01*
X163120941Y-107002402D01*
X163005977Y-106830345D01*
X162859655Y-106684023D01*
X162813544Y-106653213D01*
X162687598Y-106569059D01*
X162496420Y-106489870D01*
X162496413Y-106489868D01*
X162343516Y-106459455D01*
X162293465Y-106449500D01*
X162086535Y-106449500D01*
X162046385Y-106457486D01*
X161883586Y-106489868D01*
X161883579Y-106489870D01*
X161692401Y-106569059D01*
X161520345Y-106684022D01*
X161520344Y-106684024D01*
X161374024Y-106830344D01*
X161374022Y-106830345D01*
X161259059Y-107002401D01*
X161179870Y-107193579D01*
X161179868Y-107193586D01*
X161139500Y-107396535D01*
X158527500Y-107396535D01*
X158527500Y-106397015D01*
X158527499Y-106397014D01*
X158505182Y-106313725D01*
X158462064Y-106239042D01*
X157079557Y-104856535D01*
X161139500Y-104856535D01*
X161139500Y-105063464D01*
X161179868Y-105266413D01*
X161179870Y-105266420D01*
X161259059Y-105457598D01*
X161365556Y-105616984D01*
X161374023Y-105629655D01*
X161520345Y-105775977D01*
X161692402Y-105890941D01*
X161883580Y-105970130D01*
X162086535Y-106010500D01*
X162086536Y-106010500D01*
X162293464Y-106010500D01*
X162293465Y-106010500D01*
X162496420Y-105970130D01*
X162687598Y-105890941D01*
X162859655Y-105775977D01*
X163005977Y-105629655D01*
X163120941Y-105457598D01*
X163200130Y-105266420D01*
X163240500Y-105063465D01*
X163240500Y-104856535D01*
X163200130Y-104653580D01*
X163120941Y-104462402D01*
X163005977Y-104290345D01*
X162859655Y-104144023D01*
X162825921Y-104121483D01*
X162687598Y-104029059D01*
X162496420Y-103949870D01*
X162496413Y-103949868D01*
X162343516Y-103919455D01*
X162293465Y-103909500D01*
X162086535Y-103909500D01*
X162046385Y-103917486D01*
X161883586Y-103949868D01*
X161883579Y-103949870D01*
X161692401Y-104029059D01*
X161520345Y-104144022D01*
X161520344Y-104144024D01*
X161374024Y-104290344D01*
X161374022Y-104290345D01*
X161259059Y-104462401D01*
X161179870Y-104653579D01*
X161179868Y-104653586D01*
X161139500Y-104856535D01*
X157079557Y-104856535D01*
X154539557Y-102316535D01*
X161139500Y-102316535D01*
X161139500Y-102523465D01*
X161140716Y-102529577D01*
X161179868Y-102726413D01*
X161179870Y-102726420D01*
X161259059Y-102917598D01*
X161365556Y-103076984D01*
X161374023Y-103089655D01*
X161520345Y-103235977D01*
X161692402Y-103350941D01*
X161883580Y-103430130D01*
X162086535Y-103470500D01*
X162086536Y-103470500D01*
X162293464Y-103470500D01*
X162293465Y-103470500D01*
X162496420Y-103430130D01*
X162687598Y-103350941D01*
X162859655Y-103235977D01*
X163005977Y-103089655D01*
X163120941Y-102917598D01*
X163200130Y-102726420D01*
X163240500Y-102523465D01*
X163240500Y-102316535D01*
X163200130Y-102113580D01*
X163120941Y-101922402D01*
X163005977Y-101750345D01*
X162859655Y-101604023D01*
X162842752Y-101592729D01*
X162687598Y-101489059D01*
X162496420Y-101409870D01*
X162496413Y-101409868D01*
X162343516Y-101379455D01*
X162293465Y-101369500D01*
X162086535Y-101369500D01*
X162046385Y-101377486D01*
X161883586Y-101409868D01*
X161883579Y-101409870D01*
X161692401Y-101489059D01*
X161520345Y-101604022D01*
X161520344Y-101604024D01*
X161374024Y-101750344D01*
X161374022Y-101750345D01*
X161259059Y-101922401D01*
X161179870Y-102113579D01*
X161179868Y-102113586D01*
X161162326Y-102201779D01*
X161139500Y-102316535D01*
X154539557Y-102316535D01*
X153099174Y-100876152D01*
X153077500Y-100823826D01*
X153077500Y-100405388D01*
X153099174Y-100353062D01*
X153151500Y-100331388D01*
X153203826Y-100353062D01*
X153231284Y-100380520D01*
X153368216Y-100459577D01*
X153520940Y-100500499D01*
X153520941Y-100500500D01*
X153520943Y-100500500D01*
X153679059Y-100500500D01*
X153679059Y-100500499D01*
X153831784Y-100459577D01*
X153968716Y-100380520D01*
X153977062Y-100372174D01*
X154029388Y-100350500D01*
X155359309Y-100350500D01*
X155424542Y-100333021D01*
X155443694Y-100330500D01*
X161190105Y-100330500D01*
X161242431Y-100352174D01*
X161257288Y-100374410D01*
X161257340Y-100374383D01*
X161257620Y-100374907D01*
X161258473Y-100376183D01*
X161259059Y-100377598D01*
X161313836Y-100459578D01*
X161365556Y-100536984D01*
X161374023Y-100549655D01*
X161520345Y-100695977D01*
X161692402Y-100810941D01*
X161883580Y-100890130D01*
X162086535Y-100930500D01*
X162086536Y-100930500D01*
X162293464Y-100930500D01*
X162293465Y-100930500D01*
X162496420Y-100890130D01*
X162687598Y-100810941D01*
X162859655Y-100695977D01*
X163005977Y-100549655D01*
X163120941Y-100377598D01*
X163200130Y-100186420D01*
X163240500Y-99983465D01*
X163240500Y-99776535D01*
X163200130Y-99573580D01*
X163120941Y-99382402D01*
X163005977Y-99210345D01*
X162859655Y-99064023D01*
X162824321Y-99040414D01*
X162687598Y-98949059D01*
X162496420Y-98869870D01*
X162496413Y-98869868D01*
X162301071Y-98831013D01*
X162293465Y-98829500D01*
X162086535Y-98829500D01*
X162078929Y-98831013D01*
X161883586Y-98869868D01*
X161883579Y-98869870D01*
X161692401Y-98949059D01*
X161520345Y-99064022D01*
X161520344Y-99064024D01*
X161374024Y-99210344D01*
X161374022Y-99210345D01*
X161288213Y-99338770D01*
X161275383Y-99357972D01*
X161259058Y-99382404D01*
X161258474Y-99383815D01*
X161258107Y-99384181D01*
X161257340Y-99385617D01*
X161256904Y-99385384D01*
X161218427Y-99423866D01*
X161190105Y-99429500D01*
X156983016Y-99429500D01*
X156930690Y-99407826D01*
X156909016Y-99355500D01*
X156918930Y-99318500D01*
X156945301Y-99272822D01*
X156962078Y-99243765D01*
X156992778Y-99129190D01*
X156992779Y-99129190D01*
X156992779Y-99010568D01*
X156992778Y-99010567D01*
X156990936Y-99003694D01*
X156979950Y-98962692D01*
X156974849Y-98943653D01*
X156982241Y-98887500D01*
X157027174Y-98853022D01*
X157046327Y-98850500D01*
X157159311Y-98850500D01*
X157159311Y-98850499D01*
X157273886Y-98819799D01*
X157376613Y-98760489D01*
X157460489Y-98676613D01*
X157519799Y-98573886D01*
X157550499Y-98459311D01*
X157550500Y-98459311D01*
X157550500Y-98340689D01*
X157550499Y-98340688D01*
X157519800Y-98226117D01*
X157519798Y-98226112D01*
X157460491Y-98123390D01*
X157460490Y-98123389D01*
X157460489Y-98123387D01*
X157376613Y-98039511D01*
X157376610Y-98039509D01*
X157376609Y-98039508D01*
X157273887Y-97980201D01*
X157273882Y-97980199D01*
X157159311Y-97949500D01*
X157159309Y-97949500D01*
X157071465Y-97949500D01*
X157019139Y-97927826D01*
X156712774Y-97621461D01*
X156691100Y-97569135D01*
X156691100Y-97236535D01*
X161139500Y-97236535D01*
X161139500Y-97443464D01*
X161179868Y-97646413D01*
X161179870Y-97646420D01*
X161259059Y-97837598D01*
X161366569Y-97998500D01*
X161374023Y-98009655D01*
X161520345Y-98155977D01*
X161692402Y-98270941D01*
X161883580Y-98350130D01*
X162086535Y-98390500D01*
X162086536Y-98390500D01*
X162293464Y-98390500D01*
X162293465Y-98390500D01*
X162496420Y-98350130D01*
X162687598Y-98270941D01*
X162859655Y-98155977D01*
X163005977Y-98009655D01*
X163120941Y-97837598D01*
X163200130Y-97646420D01*
X163240500Y-97443465D01*
X163240500Y-97236535D01*
X163200130Y-97033580D01*
X163120941Y-96842402D01*
X163005977Y-96670345D01*
X162859655Y-96524023D01*
X162819306Y-96497063D01*
X162687598Y-96409059D01*
X162496420Y-96329870D01*
X162496413Y-96329868D01*
X162337701Y-96298299D01*
X162293465Y-96289500D01*
X162086535Y-96289500D01*
X162046385Y-96297486D01*
X161883586Y-96329868D01*
X161883579Y-96329870D01*
X161692401Y-96409059D01*
X161520345Y-96524022D01*
X161520344Y-96524024D01*
X161374024Y-96670344D01*
X161374022Y-96670345D01*
X161259059Y-96842401D01*
X161179870Y-97033579D01*
X161179868Y-97033586D01*
X161139500Y-97236535D01*
X156691100Y-97236535D01*
X156691100Y-94698942D01*
X156691100Y-94696535D01*
X161139500Y-94696535D01*
X161139500Y-94903464D01*
X161179868Y-95106413D01*
X161179870Y-95106420D01*
X161259059Y-95297598D01*
X161365556Y-95456984D01*
X161374023Y-95469655D01*
X161520345Y-95615977D01*
X161692402Y-95730941D01*
X161883580Y-95810130D01*
X162086535Y-95850500D01*
X162086536Y-95850500D01*
X162293464Y-95850500D01*
X162293465Y-95850500D01*
X162496420Y-95810130D01*
X162687598Y-95730941D01*
X162859655Y-95615977D01*
X163005977Y-95469655D01*
X163120941Y-95297598D01*
X163200130Y-95106420D01*
X163240500Y-94903465D01*
X163240500Y-94696535D01*
X163200130Y-94493580D01*
X163120941Y-94302402D01*
X163005977Y-94130345D01*
X162859655Y-93984023D01*
X162857688Y-93982709D01*
X162687598Y-93869059D01*
X162496420Y-93789870D01*
X162496413Y-93789868D01*
X162343516Y-93759455D01*
X162293465Y-93749500D01*
X162086535Y-93749500D01*
X162046385Y-93757486D01*
X161883586Y-93789868D01*
X161883579Y-93789870D01*
X161692401Y-93869059D01*
X161520345Y-93984022D01*
X161520344Y-93984024D01*
X161374024Y-94130344D01*
X161374022Y-94130345D01*
X161259059Y-94302401D01*
X161179870Y-94493579D01*
X161179868Y-94493586D01*
X161139500Y-94696535D01*
X156691100Y-94696535D01*
X156691100Y-94684816D01*
X156686047Y-94665958D01*
X156672244Y-94614441D01*
X156635815Y-94551346D01*
X156136424Y-94051955D01*
X156114750Y-93999629D01*
X156114750Y-92269318D01*
X156126038Y-92242066D01*
X156849500Y-92242066D01*
X156849500Y-92360689D01*
X156880199Y-92475260D01*
X156880201Y-92475265D01*
X156939508Y-92577987D01*
X156939509Y-92577988D01*
X156939511Y-92577991D01*
X157023387Y-92661867D01*
X157023389Y-92661868D01*
X157023390Y-92661869D01*
X157126112Y-92721176D01*
X157126114Y-92721177D01*
X157126115Y-92721177D01*
X157126117Y-92721178D01*
X157150077Y-92727598D01*
X157240688Y-92751877D01*
X157240689Y-92751878D01*
X157240691Y-92751878D01*
X157359311Y-92751878D01*
X157359311Y-92751877D01*
X157473886Y-92721177D01*
X157576613Y-92661867D01*
X157638728Y-92599752D01*
X157691054Y-92578078D01*
X161135254Y-92578078D01*
X161187580Y-92599752D01*
X161203620Y-92623758D01*
X161222025Y-92668191D01*
X161259059Y-92757598D01*
X161360580Y-92909537D01*
X161374023Y-92929655D01*
X161520345Y-93075977D01*
X161692402Y-93190941D01*
X161883580Y-93270130D01*
X162086535Y-93310500D01*
X162086536Y-93310500D01*
X162293464Y-93310500D01*
X162293465Y-93310500D01*
X162496420Y-93270130D01*
X162687598Y-93190941D01*
X162859655Y-93075977D01*
X163005977Y-92929655D01*
X163120941Y-92757598D01*
X163200130Y-92566420D01*
X163240500Y-92363465D01*
X163240500Y-92156535D01*
X163200130Y-91953580D01*
X163120941Y-91762402D01*
X163005977Y-91590345D01*
X162859655Y-91444023D01*
X162853619Y-91439990D01*
X162687598Y-91329059D01*
X162496420Y-91249870D01*
X162496413Y-91249868D01*
X162316626Y-91214107D01*
X162293465Y-91209500D01*
X162086535Y-91209500D01*
X162063374Y-91214107D01*
X161883586Y-91249868D01*
X161883579Y-91249870D01*
X161692401Y-91329059D01*
X161520345Y-91444022D01*
X161520344Y-91444024D01*
X161374024Y-91590344D01*
X161374022Y-91590345D01*
X161259059Y-91762401D01*
X161185127Y-91940889D01*
X161179870Y-91953580D01*
X161177575Y-91965113D01*
X161146112Y-92012205D01*
X161104998Y-92024678D01*
X160455287Y-92024678D01*
X160402961Y-92003004D01*
X160381287Y-91950678D01*
X160402961Y-91898352D01*
X160702939Y-91598374D01*
X161627719Y-90673592D01*
X161680044Y-90651919D01*
X161708361Y-90657551D01*
X161883580Y-90730130D01*
X162086535Y-90770500D01*
X162086536Y-90770500D01*
X162293464Y-90770500D01*
X162293465Y-90770500D01*
X162496420Y-90730130D01*
X162687598Y-90650941D01*
X162859655Y-90535977D01*
X163005977Y-90389655D01*
X163120941Y-90217598D01*
X163200130Y-90026420D01*
X163240500Y-89823465D01*
X163240500Y-89616535D01*
X163200130Y-89413580D01*
X163120941Y-89222402D01*
X163005977Y-89050345D01*
X162859655Y-88904023D01*
X162853634Y-88900000D01*
X162687598Y-88789059D01*
X162496420Y-88709870D01*
X162496413Y-88709868D01*
X162343516Y-88679455D01*
X162293465Y-88669500D01*
X162086535Y-88669500D01*
X162046385Y-88677486D01*
X161883586Y-88709868D01*
X161883579Y-88709870D01*
X161692401Y-88789059D01*
X161520345Y-88904022D01*
X161520344Y-88904024D01*
X161374024Y-89050344D01*
X161374022Y-89050345D01*
X161259059Y-89222401D01*
X161179870Y-89413579D01*
X161179868Y-89413586D01*
X161159882Y-89514066D01*
X161139500Y-89616535D01*
X161139500Y-89823465D01*
X161143057Y-89841349D01*
X161179868Y-90026413D01*
X161179871Y-90026424D01*
X161252446Y-90201636D01*
X161252446Y-90258273D01*
X161236405Y-90282280D01*
X160014719Y-91503968D01*
X159962393Y-91525642D01*
X158109107Y-91525642D01*
X158056781Y-91503968D01*
X158029426Y-91476613D01*
X157984645Y-91431832D01*
X157984642Y-91431830D01*
X157984641Y-91431829D01*
X157881919Y-91372522D01*
X157881914Y-91372520D01*
X157767343Y-91341821D01*
X157767341Y-91341821D01*
X157648723Y-91341821D01*
X157648721Y-91341821D01*
X157534149Y-91372520D01*
X157534144Y-91372522D01*
X157431422Y-91431829D01*
X157347540Y-91515711D01*
X157288233Y-91618433D01*
X157288231Y-91618438D01*
X157257532Y-91733009D01*
X157257532Y-91789583D01*
X157235858Y-91841909D01*
X157202685Y-91861061D01*
X157126117Y-91881577D01*
X157126112Y-91881579D01*
X157023390Y-91940886D01*
X156939508Y-92024768D01*
X156880201Y-92127490D01*
X156880199Y-92127495D01*
X156849500Y-92242066D01*
X156126038Y-92242066D01*
X156136423Y-92216993D01*
X156331015Y-92022402D01*
X156367444Y-91959307D01*
X156386300Y-91888932D01*
X156386300Y-91816076D01*
X156386300Y-87607152D01*
X156407973Y-87554827D01*
X157021415Y-86941386D01*
X157057844Y-86878291D01*
X157076700Y-86807916D01*
X157076700Y-86735060D01*
X157076700Y-85962485D01*
X157898737Y-85962485D01*
X157898737Y-86081108D01*
X157929436Y-86195679D01*
X157929438Y-86195684D01*
X157988745Y-86298406D01*
X157988746Y-86298407D01*
X157988748Y-86298410D01*
X158072624Y-86382286D01*
X158072626Y-86382287D01*
X158072627Y-86382288D01*
X158166198Y-86436312D01*
X158200677Y-86481246D01*
X158193284Y-86537398D01*
X158166198Y-86564484D01*
X158072627Y-86618507D01*
X157988745Y-86702389D01*
X157929438Y-86805111D01*
X157929436Y-86805116D01*
X157898737Y-86919687D01*
X157898737Y-87038310D01*
X157929436Y-87152881D01*
X157929438Y-87152886D01*
X157988745Y-87255608D01*
X157988746Y-87255609D01*
X157988748Y-87255612D01*
X158072624Y-87339488D01*
X158175351Y-87398798D01*
X158287253Y-87428782D01*
X158332186Y-87463260D01*
X158342100Y-87500260D01*
X158342100Y-87516909D01*
X158372799Y-87631480D01*
X158372801Y-87631485D01*
X158432108Y-87734207D01*
X158432109Y-87734208D01*
X158432111Y-87734211D01*
X158515987Y-87818087D01*
X158515989Y-87818088D01*
X158515990Y-87818089D01*
X158587385Y-87859309D01*
X158618714Y-87877397D01*
X158618715Y-87877397D01*
X158618717Y-87877398D01*
X158652989Y-87886581D01*
X158733288Y-87908097D01*
X158733289Y-87908098D01*
X158733291Y-87908098D01*
X158851911Y-87908098D01*
X158851911Y-87908097D01*
X158966486Y-87877397D01*
X159069213Y-87818087D01*
X159131328Y-87755972D01*
X159183654Y-87734298D01*
X161257390Y-87734298D01*
X161309716Y-87755972D01*
X161318919Y-87767186D01*
X161359593Y-87828060D01*
X161374023Y-87849655D01*
X161520345Y-87995977D01*
X161692402Y-88110941D01*
X161883580Y-88190130D01*
X162086535Y-88230500D01*
X162086536Y-88230500D01*
X162293464Y-88230500D01*
X162293465Y-88230500D01*
X162496420Y-88190130D01*
X162687598Y-88110941D01*
X162859655Y-87995977D01*
X163005977Y-87849655D01*
X163120941Y-87677598D01*
X163200130Y-87486420D01*
X163240500Y-87283465D01*
X163240500Y-87076535D01*
X163200130Y-86873580D01*
X163120941Y-86682402D01*
X163005977Y-86510345D01*
X162859655Y-86364023D01*
X162798838Y-86323387D01*
X162687598Y-86249059D01*
X162496420Y-86169870D01*
X162496413Y-86169868D01*
X162343516Y-86139455D01*
X162293465Y-86129500D01*
X162086535Y-86129500D01*
X162046385Y-86137486D01*
X161883586Y-86169868D01*
X161883579Y-86169870D01*
X161692401Y-86249059D01*
X161520345Y-86364022D01*
X161520344Y-86364024D01*
X161374024Y-86510344D01*
X161374022Y-86510345D01*
X161259059Y-86682401D01*
X161179870Y-86873579D01*
X161179868Y-86873586D01*
X161139500Y-87076535D01*
X161139500Y-87106898D01*
X161117826Y-87159224D01*
X161065500Y-87180898D01*
X160219067Y-87180898D01*
X160166741Y-87159224D01*
X160145067Y-87106898D01*
X160166741Y-87054572D01*
X160528116Y-86693197D01*
X161627719Y-85593592D01*
X161680044Y-85571919D01*
X161708361Y-85577551D01*
X161883580Y-85650130D01*
X162086535Y-85690500D01*
X162086536Y-85690500D01*
X162293464Y-85690500D01*
X162293465Y-85690500D01*
X162496420Y-85650130D01*
X162687598Y-85570941D01*
X162859655Y-85455977D01*
X163005977Y-85309655D01*
X163120941Y-85137598D01*
X163200130Y-84946420D01*
X163240500Y-84743465D01*
X163240500Y-84536535D01*
X163200130Y-84333580D01*
X163120941Y-84142402D01*
X163005977Y-83970345D01*
X162859655Y-83824023D01*
X162830146Y-83804306D01*
X162687598Y-83709059D01*
X162496420Y-83629870D01*
X162496413Y-83629868D01*
X162325625Y-83595897D01*
X162293465Y-83589500D01*
X162086535Y-83589500D01*
X162054375Y-83595897D01*
X161883586Y-83629868D01*
X161883579Y-83629870D01*
X161692401Y-83709059D01*
X161520345Y-83824022D01*
X161520344Y-83824024D01*
X161503026Y-83841342D01*
X161450700Y-83863016D01*
X161398374Y-83841342D01*
X161376700Y-83789016D01*
X161376700Y-83335264D01*
X161398373Y-83282939D01*
X161627719Y-83053592D01*
X161680044Y-83031919D01*
X161708361Y-83037551D01*
X161883580Y-83110130D01*
X162086535Y-83150500D01*
X162086536Y-83150500D01*
X162293464Y-83150500D01*
X162293465Y-83150500D01*
X162496420Y-83110130D01*
X162687598Y-83030941D01*
X162859655Y-82915977D01*
X163005977Y-82769655D01*
X163120941Y-82597598D01*
X163200130Y-82406420D01*
X163240500Y-82203465D01*
X163240500Y-81996535D01*
X163200130Y-81793580D01*
X163120941Y-81602402D01*
X163005977Y-81430345D01*
X162859655Y-81284023D01*
X162687598Y-81169059D01*
X162496420Y-81089870D01*
X162496413Y-81089868D01*
X162343516Y-81059455D01*
X162293465Y-81049500D01*
X162086535Y-81049500D01*
X162046385Y-81057486D01*
X161883586Y-81089868D01*
X161883579Y-81089870D01*
X161692401Y-81169059D01*
X161520345Y-81284022D01*
X161520344Y-81284024D01*
X161374024Y-81430344D01*
X161374022Y-81430345D01*
X161259059Y-81602401D01*
X161214267Y-81710539D01*
X161174218Y-81750587D01*
X161117581Y-81750587D01*
X161077533Y-81710538D01*
X161071900Y-81682220D01*
X161071900Y-81100064D01*
X161093573Y-81047739D01*
X161627719Y-80513592D01*
X161680044Y-80491919D01*
X161708361Y-80497551D01*
X161883580Y-80570130D01*
X162086535Y-80610500D01*
X162086536Y-80610500D01*
X162293464Y-80610500D01*
X162293465Y-80610500D01*
X162496420Y-80570130D01*
X162687598Y-80490941D01*
X162859655Y-80375977D01*
X163005977Y-80229655D01*
X163120941Y-80057598D01*
X163200130Y-79866420D01*
X163240500Y-79663465D01*
X163240500Y-79456535D01*
X163200130Y-79253580D01*
X163120941Y-79062402D01*
X163005977Y-78890345D01*
X162859655Y-78744023D01*
X162784770Y-78693987D01*
X162687598Y-78629059D01*
X162496420Y-78549870D01*
X162496413Y-78549868D01*
X162343516Y-78519455D01*
X162293465Y-78509500D01*
X162086535Y-78509500D01*
X162046385Y-78517486D01*
X161883586Y-78549868D01*
X161883579Y-78549870D01*
X161692401Y-78629059D01*
X161520345Y-78744022D01*
X161520344Y-78744024D01*
X161374024Y-78890344D01*
X161374022Y-78890345D01*
X161259059Y-79062401D01*
X161179870Y-79253579D01*
X161179868Y-79253586D01*
X161139500Y-79456535D01*
X161139500Y-79663464D01*
X161179868Y-79866413D01*
X161179871Y-79866424D01*
X161252446Y-80041636D01*
X161252446Y-80098273D01*
X161236405Y-80122280D01*
X160893426Y-80465260D01*
X160841100Y-80486934D01*
X160788774Y-80465260D01*
X160767100Y-80412934D01*
X160767100Y-78864864D01*
X160788773Y-78812539D01*
X161627719Y-77973592D01*
X161680044Y-77951919D01*
X161708361Y-77957551D01*
X161883580Y-78030130D01*
X162086535Y-78070500D01*
X162086536Y-78070500D01*
X162293464Y-78070500D01*
X162293465Y-78070500D01*
X162496420Y-78030130D01*
X162687598Y-77950941D01*
X162859655Y-77835977D01*
X163005977Y-77689655D01*
X163120941Y-77517598D01*
X163200130Y-77326420D01*
X163240500Y-77123465D01*
X163240500Y-76916535D01*
X163200130Y-76713580D01*
X163120941Y-76522402D01*
X163005977Y-76350345D01*
X162859655Y-76204023D01*
X162826367Y-76181781D01*
X162687598Y-76089059D01*
X162496420Y-76009870D01*
X162496413Y-76009868D01*
X162343516Y-75979455D01*
X162293465Y-75969500D01*
X162086535Y-75969500D01*
X162046385Y-75977486D01*
X161883586Y-76009868D01*
X161883579Y-76009870D01*
X161692401Y-76089059D01*
X161520345Y-76204022D01*
X161520344Y-76204024D01*
X161374024Y-76350344D01*
X161374022Y-76350345D01*
X161259059Y-76522401D01*
X161179870Y-76713579D01*
X161179868Y-76713586D01*
X161139500Y-76916535D01*
X161139500Y-77123464D01*
X161179868Y-77326413D01*
X161179871Y-77326424D01*
X161252446Y-77501636D01*
X161252446Y-77558273D01*
X161236405Y-77582280D01*
X160268984Y-78549703D01*
X160268983Y-78549705D01*
X160232556Y-78612794D01*
X160232556Y-78612798D01*
X160213700Y-78683173D01*
X160213700Y-84901179D01*
X160192026Y-84953505D01*
X159900707Y-85244824D01*
X159848381Y-85266498D01*
X159183654Y-85266498D01*
X159131328Y-85244824D01*
X159109531Y-85223027D01*
X159069213Y-85182709D01*
X159069210Y-85182707D01*
X159069209Y-85182706D01*
X158966487Y-85123399D01*
X158966482Y-85123397D01*
X158851911Y-85092698D01*
X158851909Y-85092698D01*
X158733291Y-85092698D01*
X158733289Y-85092698D01*
X158618717Y-85123397D01*
X158618712Y-85123399D01*
X158515990Y-85182706D01*
X158432108Y-85266588D01*
X158372801Y-85369310D01*
X158372799Y-85369315D01*
X158342100Y-85483886D01*
X158342100Y-85500535D01*
X158320426Y-85552861D01*
X158287253Y-85572013D01*
X158175354Y-85601996D01*
X158175349Y-85601998D01*
X158072627Y-85661305D01*
X157988745Y-85745187D01*
X157929438Y-85847909D01*
X157929436Y-85847914D01*
X157898737Y-85962485D01*
X157076700Y-85962485D01*
X157076700Y-84422107D01*
X157098373Y-84369782D01*
X157400015Y-84068141D01*
X157421977Y-84030102D01*
X157436444Y-84005045D01*
X157455300Y-83934671D01*
X157455300Y-83465329D01*
X157446643Y-83433019D01*
X157446643Y-83433018D01*
X157446643Y-83433017D01*
X157436445Y-83394958D01*
X157436444Y-83394954D01*
X157400015Y-83331859D01*
X157035163Y-82967007D01*
X156992121Y-82942156D01*
X156972074Y-82930581D01*
X156972068Y-82930578D01*
X156945244Y-82923391D01*
X156901693Y-82911722D01*
X156051993Y-82911722D01*
X156036113Y-82915977D01*
X155981618Y-82930578D01*
X155981612Y-82930581D01*
X155961567Y-82942155D01*
X155961566Y-82942156D01*
X155918525Y-82967005D01*
X154983904Y-83901626D01*
X154931578Y-83923300D01*
X154895100Y-83923300D01*
X154842774Y-83901626D01*
X154821100Y-83849300D01*
X154821100Y-83524021D01*
X154842773Y-83471696D01*
X155742815Y-82571655D01*
X155779244Y-82508560D01*
X155798100Y-82438185D01*
X155798100Y-82365329D01*
X155798100Y-78124500D01*
X155819774Y-78072174D01*
X155872100Y-78050500D01*
X157569746Y-78050500D01*
X157569748Y-78050500D01*
X157628231Y-78038867D01*
X157694552Y-77994552D01*
X157738867Y-77928231D01*
X157750500Y-77869748D01*
X157750500Y-76130252D01*
X157738867Y-76071769D01*
X157694552Y-76005448D01*
X157672343Y-75990608D01*
X157628232Y-75961133D01*
X157628233Y-75961133D01*
X157598989Y-75955316D01*
X157569748Y-75949500D01*
X155872100Y-75949500D01*
X155819774Y-75927826D01*
X155798100Y-75875500D01*
X155798100Y-75783864D01*
X155819773Y-75731539D01*
X156137719Y-75413592D01*
X156190044Y-75391919D01*
X156218361Y-75397551D01*
X156393580Y-75470130D01*
X156596535Y-75510500D01*
X156596536Y-75510500D01*
X156803464Y-75510500D01*
X156803465Y-75510500D01*
X157006420Y-75470130D01*
X157197598Y-75390941D01*
X157369655Y-75275977D01*
X157515977Y-75129655D01*
X157630941Y-74957598D01*
X157710130Y-74766420D01*
X157750500Y-74563465D01*
X157750500Y-74376535D01*
X161139500Y-74376535D01*
X161139500Y-74583464D01*
X161179868Y-74786413D01*
X161179870Y-74786420D01*
X161259059Y-74977598D01*
X161360659Y-75129655D01*
X161374023Y-75149655D01*
X161520345Y-75295977D01*
X161692402Y-75410941D01*
X161883580Y-75490130D01*
X162086535Y-75530500D01*
X162086536Y-75530500D01*
X162293464Y-75530500D01*
X162293465Y-75530500D01*
X162496420Y-75490130D01*
X162687598Y-75410941D01*
X162859655Y-75295977D01*
X163005977Y-75149655D01*
X163120941Y-74977598D01*
X163200130Y-74786420D01*
X163240500Y-74583465D01*
X163240500Y-74376535D01*
X163200130Y-74173580D01*
X163120941Y-73982402D01*
X163005977Y-73810345D01*
X162859655Y-73664023D01*
X162829724Y-73644024D01*
X162687598Y-73549059D01*
X162496420Y-73469870D01*
X162496413Y-73469868D01*
X162343516Y-73439455D01*
X162293465Y-73429500D01*
X162086535Y-73429500D01*
X162046385Y-73437486D01*
X161883586Y-73469868D01*
X161883579Y-73469870D01*
X161692401Y-73549059D01*
X161520345Y-73664022D01*
X161520344Y-73664024D01*
X161374024Y-73810344D01*
X161374022Y-73810345D01*
X161259059Y-73982401D01*
X161179870Y-74173579D01*
X161179868Y-74173586D01*
X161139500Y-74376535D01*
X157750500Y-74376535D01*
X157750500Y-74356535D01*
X157710130Y-74153580D01*
X157630941Y-73962402D01*
X157515977Y-73790345D01*
X157369655Y-73644023D01*
X157355314Y-73634441D01*
X157197598Y-73529059D01*
X157006420Y-73449870D01*
X157006413Y-73449868D01*
X156853516Y-73419455D01*
X156803465Y-73409500D01*
X156596535Y-73409500D01*
X156556385Y-73417486D01*
X156393586Y-73449868D01*
X156393579Y-73449870D01*
X156202401Y-73529059D01*
X156030345Y-73644022D01*
X156030344Y-73644024D01*
X155884024Y-73790344D01*
X155884022Y-73790345D01*
X155769059Y-73962401D01*
X155689870Y-74153579D01*
X155689868Y-74153586D01*
X155649500Y-74356535D01*
X155649500Y-74563464D01*
X155689868Y-74766413D01*
X155689870Y-74766420D01*
X155762447Y-74941635D01*
X155762447Y-74998272D01*
X155746406Y-75022280D01*
X155299984Y-75468703D01*
X155299983Y-75468705D01*
X155263556Y-75531794D01*
X155263556Y-75531798D01*
X155244700Y-75602173D01*
X155244700Y-82256492D01*
X155223026Y-82308818D01*
X154322984Y-83208860D01*
X154322983Y-83208862D01*
X154286559Y-83271947D01*
X154286556Y-83271953D01*
X154273549Y-83320500D01*
X154267700Y-83342329D01*
X154267700Y-90007441D01*
X154246026Y-90059767D01*
X154204429Y-90101364D01*
X154152103Y-90123038D01*
X153591053Y-90123038D01*
X153538727Y-90101364D01*
X153508561Y-90071198D01*
X153476612Y-90039249D01*
X153476609Y-90039247D01*
X153476608Y-90039246D01*
X153373886Y-89979939D01*
X153373881Y-89979937D01*
X153259310Y-89949238D01*
X153259308Y-89949238D01*
X153140690Y-89949238D01*
X153140688Y-89949238D01*
X153026116Y-89979937D01*
X153026111Y-89979939D01*
X152923389Y-90039246D01*
X152839507Y-90123128D01*
X152780200Y-90225850D01*
X152780198Y-90225855D01*
X152749499Y-90340426D01*
X152749499Y-90459049D01*
X152780198Y-90573620D01*
X152780200Y-90573625D01*
X152830935Y-90661500D01*
X152838327Y-90717653D01*
X152803849Y-90762586D01*
X152766849Y-90772500D01*
X152464501Y-90772500D01*
X152412175Y-90750826D01*
X152390501Y-90698500D01*
X152412174Y-90646175D01*
X152489888Y-90568462D01*
X152549198Y-90465735D01*
X152579898Y-90351160D01*
X152579899Y-90351160D01*
X152579899Y-90232538D01*
X152579898Y-90232537D01*
X152549199Y-90117966D01*
X152549197Y-90117961D01*
X152489890Y-90015239D01*
X152489889Y-90015238D01*
X152489888Y-90015236D01*
X152406012Y-89931360D01*
X152406009Y-89931358D01*
X152406008Y-89931357D01*
X152303286Y-89872050D01*
X152303281Y-89872048D01*
X152188710Y-89841349D01*
X152188708Y-89841349D01*
X152172706Y-89841349D01*
X152120380Y-89819675D01*
X151743906Y-89443201D01*
X151722232Y-89390875D01*
X151722232Y-85415211D01*
X151743906Y-85362885D01*
X151796232Y-85341211D01*
X152664164Y-85341211D01*
X152716488Y-85362884D01*
X152727804Y-85374200D01*
X152727806Y-85374201D01*
X152727807Y-85374202D01*
X152830004Y-85433206D01*
X152830531Y-85433510D01*
X152830532Y-85433510D01*
X152830534Y-85433511D01*
X152887819Y-85448860D01*
X152945105Y-85464210D01*
X152945106Y-85464211D01*
X152945108Y-85464211D01*
X153063728Y-85464211D01*
X153063728Y-85464210D01*
X153178303Y-85433510D01*
X153281030Y-85374200D01*
X153364906Y-85290324D01*
X153424216Y-85187597D01*
X153454916Y-85073022D01*
X153454917Y-85073022D01*
X153454917Y-84954400D01*
X153454916Y-84954399D01*
X153454676Y-84953505D01*
X153426317Y-84847666D01*
X153424217Y-84839828D01*
X153424215Y-84839823D01*
X153364908Y-84737101D01*
X153364907Y-84737100D01*
X153364906Y-84737098D01*
X153281030Y-84653222D01*
X153281027Y-84653220D01*
X153281026Y-84653219D01*
X153178304Y-84593912D01*
X153178299Y-84593910D01*
X153063728Y-84563211D01*
X153063726Y-84563211D01*
X152945108Y-84563211D01*
X152945106Y-84563211D01*
X152830534Y-84593910D01*
X152830529Y-84593912D01*
X152727807Y-84653219D01*
X152727804Y-84653221D01*
X152727804Y-84653222D01*
X152716488Y-84664537D01*
X152664164Y-84686211D01*
X151735289Y-84686211D01*
X151682964Y-84664537D01*
X151671345Y-84652918D01*
X151671342Y-84652916D01*
X151671341Y-84652915D01*
X151568619Y-84593608D01*
X151568614Y-84593606D01*
X151454043Y-84562907D01*
X151454041Y-84562907D01*
X151335423Y-84562907D01*
X151335421Y-84562907D01*
X151220849Y-84593606D01*
X151220844Y-84593608D01*
X151118117Y-84652918D01*
X151111770Y-84659266D01*
X151059443Y-84680937D01*
X151007122Y-84659263D01*
X150961731Y-84613873D01*
X150961728Y-84613871D01*
X150859005Y-84554563D01*
X150859000Y-84554561D01*
X150744429Y-84523862D01*
X150744427Y-84523862D01*
X150656583Y-84523862D01*
X150604257Y-84502188D01*
X149621670Y-83519601D01*
X148637397Y-82535328D01*
X148612159Y-82520756D01*
X148574308Y-82498902D01*
X148574302Y-82498899D01*
X148503927Y-82480043D01*
X148503926Y-82480043D01*
X148310449Y-82480043D01*
X148258123Y-82458369D01*
X148237937Y-82438183D01*
X148196008Y-82396254D01*
X148196005Y-82396252D01*
X148196004Y-82396251D01*
X148093282Y-82336944D01*
X148093277Y-82336942D01*
X147978706Y-82306243D01*
X147978704Y-82306243D01*
X147860086Y-82306243D01*
X147860084Y-82306243D01*
X147745512Y-82336942D01*
X147745507Y-82336944D01*
X147642785Y-82396251D01*
X147558903Y-82480133D01*
X147499596Y-82582855D01*
X147499594Y-82582860D01*
X147468895Y-82697431D01*
X147468895Y-82816051D01*
X147472672Y-82830148D01*
X147465279Y-82886300D01*
X147420345Y-82920779D01*
X147401193Y-82923300D01*
X143591054Y-82923300D01*
X143538728Y-82901626D01*
X143509393Y-82872291D01*
X143476613Y-82839511D01*
X143476610Y-82839509D01*
X143476609Y-82839508D01*
X143373887Y-82780201D01*
X143373882Y-82780199D01*
X143259311Y-82749500D01*
X143259309Y-82749500D01*
X143140691Y-82749500D01*
X143140689Y-82749500D01*
X143026117Y-82780199D01*
X143026112Y-82780201D01*
X142923390Y-82839508D01*
X142839507Y-82923391D01*
X142839507Y-82923392D01*
X142813918Y-82967712D01*
X142768984Y-83002190D01*
X142712832Y-82994796D01*
X142697507Y-82983037D01*
X142419774Y-82705304D01*
X142398100Y-82652978D01*
X142398100Y-82447021D01*
X142419773Y-82394696D01*
X144216179Y-80598289D01*
X144231494Y-80586537D01*
X144276613Y-80560489D01*
X144360489Y-80476613D01*
X144419799Y-80373886D01*
X144448842Y-80265495D01*
X144483320Y-80220563D01*
X144539472Y-80213170D01*
X144584406Y-80247649D01*
X144588687Y-80256330D01*
X144606558Y-80299475D01*
X144657675Y-80375977D01*
X144683220Y-80414207D01*
X144780792Y-80511779D01*
X144895523Y-80588440D01*
X144895524Y-80588440D01*
X144895525Y-80588441D01*
X145023001Y-80641243D01*
X145023006Y-80641245D01*
X145158341Y-80668165D01*
X145158343Y-80668165D01*
X145296325Y-80668165D01*
X145296327Y-80668165D01*
X145431662Y-80641245D01*
X145559145Y-80588440D01*
X145673876Y-80511779D01*
X145771448Y-80414207D01*
X145848109Y-80299476D01*
X145900914Y-80171993D01*
X145927834Y-80036658D01*
X145927834Y-78798672D01*
X145900914Y-78663337D01*
X145879980Y-78612797D01*
X145848110Y-78535856D01*
X145771450Y-78421126D01*
X145771448Y-78421123D01*
X145673876Y-78323551D01*
X145559145Y-78246890D01*
X145559144Y-78246889D01*
X145559142Y-78246888D01*
X145431666Y-78194086D01*
X145431656Y-78194083D01*
X145341028Y-78176056D01*
X145296327Y-78167165D01*
X145158341Y-78167165D01*
X145119976Y-78174796D01*
X145023011Y-78194083D01*
X145023001Y-78194086D01*
X144895525Y-78246888D01*
X144780795Y-78323548D01*
X144683217Y-78421126D01*
X144606557Y-78535856D01*
X144553755Y-78663332D01*
X144553752Y-78663342D01*
X144526834Y-78798673D01*
X144526834Y-79935332D01*
X144505160Y-79987658D01*
X144452834Y-80009332D01*
X144400508Y-79987658D01*
X144388748Y-79972332D01*
X144360491Y-79923390D01*
X144360490Y-79923389D01*
X144360489Y-79923387D01*
X144276613Y-79839511D01*
X144276610Y-79839509D01*
X144276609Y-79839508D01*
X144173887Y-79780201D01*
X144173882Y-79780199D01*
X144059311Y-79749500D01*
X144059309Y-79749500D01*
X143940691Y-79749500D01*
X143940689Y-79749500D01*
X143826117Y-79780199D01*
X143826112Y-79780201D01*
X143723390Y-79839508D01*
X143639508Y-79923390D01*
X143580201Y-80026112D01*
X143580199Y-80026117D01*
X143549500Y-80140688D01*
X143549500Y-80259313D01*
X143555210Y-80280626D01*
X143547815Y-80336778D01*
X143536057Y-80352101D01*
X142003026Y-81885133D01*
X141950700Y-81906807D01*
X141898374Y-81885133D01*
X141876700Y-81832807D01*
X141876700Y-77678718D01*
X141898373Y-77626393D01*
X141960489Y-77564278D01*
X142019799Y-77461551D01*
X142050499Y-77346976D01*
X142050500Y-77346976D01*
X142050500Y-77228354D01*
X142050499Y-77228353D01*
X142019800Y-77113782D01*
X142019798Y-77113777D01*
X141960491Y-77011055D01*
X141960490Y-77011054D01*
X141960489Y-77011052D01*
X141876613Y-76927176D01*
X141876610Y-76927174D01*
X141876609Y-76927173D01*
X141773887Y-76867866D01*
X141773882Y-76867864D01*
X141659311Y-76837165D01*
X141659309Y-76837165D01*
X141540691Y-76837165D01*
X141540689Y-76837165D01*
X141426117Y-76867864D01*
X141426112Y-76867866D01*
X141323390Y-76927173D01*
X141239508Y-77011055D01*
X141180201Y-77113777D01*
X141180199Y-77113782D01*
X141149500Y-77228353D01*
X141149500Y-77346976D01*
X141180199Y-77461547D01*
X141180201Y-77461552D01*
X141239508Y-77564274D01*
X141239509Y-77564275D01*
X141239511Y-77564278D01*
X141301626Y-77626393D01*
X141323300Y-77678718D01*
X141323300Y-83163572D01*
X141323300Y-83236428D01*
X141332819Y-83271954D01*
X141342156Y-83306803D01*
X141342159Y-83306809D01*
X141356623Y-83331860D01*
X141378585Y-83369898D01*
X142127826Y-84119139D01*
X142149500Y-84171464D01*
X142149500Y-84259311D01*
X142180199Y-84373882D01*
X142180201Y-84373887D01*
X142187998Y-84387391D01*
X142195391Y-84443544D01*
X142160912Y-84488477D01*
X142104759Y-84495870D01*
X142071586Y-84476717D01*
X140812375Y-83217506D01*
X140790701Y-83165180D01*
X140790701Y-83077334D01*
X140790700Y-83077333D01*
X140760001Y-82962762D01*
X140759999Y-82962757D01*
X140700692Y-82860035D01*
X140700691Y-82860034D01*
X140700690Y-82860032D01*
X140616814Y-82776156D01*
X140616811Y-82776154D01*
X140616810Y-82776153D01*
X140514088Y-82716846D01*
X140514083Y-82716844D01*
X140399512Y-82686145D01*
X140399510Y-82686145D01*
X140280892Y-82686145D01*
X140280890Y-82686145D01*
X140166318Y-82716844D01*
X140166313Y-82716846D01*
X140063591Y-82776153D01*
X140001473Y-82838271D01*
X139949147Y-82859945D01*
X138818909Y-82859945D01*
X138766584Y-82838271D01*
X138716814Y-82788502D01*
X138716811Y-82788500D01*
X138614088Y-82729192D01*
X138614083Y-82729190D01*
X138499512Y-82698491D01*
X138499510Y-82698491D01*
X138380892Y-82698491D01*
X138380890Y-82698491D01*
X138266318Y-82729190D01*
X138266313Y-82729192D01*
X138163591Y-82788499D01*
X138101473Y-82850617D01*
X138049147Y-82872291D01*
X137594256Y-82872291D01*
X137541930Y-82850617D01*
X136772174Y-82080861D01*
X136750500Y-82028535D01*
X136750500Y-81940689D01*
X136750499Y-81940688D01*
X136719800Y-81826117D01*
X136719798Y-81826112D01*
X136660491Y-81723390D01*
X136660490Y-81723389D01*
X136660489Y-81723387D01*
X136576613Y-81639511D01*
X136576610Y-81639509D01*
X136576609Y-81639508D01*
X136473887Y-81580201D01*
X136473882Y-81580199D01*
X136359311Y-81549500D01*
X136359309Y-81549500D01*
X136240691Y-81549500D01*
X136240689Y-81549500D01*
X136126117Y-81580199D01*
X136126112Y-81580201D01*
X136023387Y-81639510D01*
X136022202Y-81640420D01*
X136021473Y-81640615D01*
X136019186Y-81641936D01*
X136018832Y-81641323D01*
X135967496Y-81655080D01*
X135928503Y-81635852D01*
X135928082Y-81636401D01*
X135925325Y-81634285D01*
X135924827Y-81634039D01*
X135924241Y-81633453D01*
X135924238Y-81633451D01*
X135924237Y-81633450D01*
X135821515Y-81574143D01*
X135821510Y-81574141D01*
X135706939Y-81543442D01*
X135706937Y-81543442D01*
X135588319Y-81543442D01*
X135588317Y-81543442D01*
X135473745Y-81574141D01*
X135473740Y-81574143D01*
X135371018Y-81633450D01*
X135287135Y-81717333D01*
X135287135Y-81717334D01*
X135261546Y-81761654D01*
X135216612Y-81796132D01*
X135160460Y-81788738D01*
X135145135Y-81776979D01*
X133096974Y-79728818D01*
X133075300Y-79676492D01*
X133075300Y-78032173D01*
X133074752Y-78030129D01*
X133056444Y-77961798D01*
X133056444Y-77961797D01*
X133056443Y-77961794D01*
X133032854Y-77920940D01*
X133020015Y-77898702D01*
X132673593Y-77552280D01*
X132651919Y-77499954D01*
X132657550Y-77471640D01*
X132730130Y-77296420D01*
X132770500Y-77093465D01*
X132770500Y-76886535D01*
X132730130Y-76683580D01*
X132670942Y-76540688D01*
X144049500Y-76540688D01*
X144049500Y-76659311D01*
X144080199Y-76773882D01*
X144080201Y-76773887D01*
X144139508Y-76876609D01*
X144139509Y-76876610D01*
X144139511Y-76876613D01*
X144223387Y-76960489D01*
X144326114Y-77019799D01*
X144326115Y-77019799D01*
X144326117Y-77019800D01*
X144383402Y-77035149D01*
X144440688Y-77050499D01*
X144440689Y-77050500D01*
X144440691Y-77050500D01*
X144559311Y-77050500D01*
X144559311Y-77050499D01*
X144673886Y-77019799D01*
X144776613Y-76960489D01*
X144838728Y-76898374D01*
X144891054Y-76876700D01*
X145120997Y-76876700D01*
X145173323Y-76898374D01*
X146515705Y-78240756D01*
X146537379Y-78293082D01*
X146515705Y-78345408D01*
X146482532Y-78364560D01*
X146433659Y-78377655D01*
X146433654Y-78377657D01*
X146301512Y-78453950D01*
X146193619Y-78561843D01*
X146117326Y-78693985D01*
X146117324Y-78693990D01*
X146077834Y-78841369D01*
X146077834Y-78993960D01*
X146117324Y-79141339D01*
X146117326Y-79141344D01*
X146164809Y-79223586D01*
X146193619Y-79273486D01*
X146301513Y-79381380D01*
X146433656Y-79457673D01*
X146433657Y-79457673D01*
X146433659Y-79457674D01*
X146507348Y-79477419D01*
X146581038Y-79497164D01*
X146581039Y-79497165D01*
X146581041Y-79497165D01*
X146733629Y-79497165D01*
X146733629Y-79497164D01*
X146881012Y-79457673D01*
X147013155Y-79381380D01*
X147121049Y-79273486D01*
X147197342Y-79141343D01*
X147210438Y-79092465D01*
X147244915Y-79047534D01*
X147301067Y-79040140D01*
X147334242Y-79059293D01*
X147501626Y-79226677D01*
X147523300Y-79279003D01*
X147523300Y-80356543D01*
X147501626Y-80408869D01*
X147439508Y-80470987D01*
X147380201Y-80573709D01*
X147380199Y-80573714D01*
X147349500Y-80688285D01*
X147349500Y-80806908D01*
X147380199Y-80921479D01*
X147380201Y-80921484D01*
X147439508Y-81024206D01*
X147439509Y-81024207D01*
X147439511Y-81024210D01*
X147523387Y-81108086D01*
X147626114Y-81167396D01*
X147626115Y-81167396D01*
X147626117Y-81167397D01*
X147632320Y-81169059D01*
X147740688Y-81198096D01*
X147740689Y-81198097D01*
X147740691Y-81198097D01*
X147859311Y-81198097D01*
X147859311Y-81198096D01*
X147973886Y-81167396D01*
X148076613Y-81108086D01*
X148160489Y-81024210D01*
X148219799Y-80921483D01*
X148250499Y-80806908D01*
X148250500Y-80806908D01*
X148250500Y-80688286D01*
X148250499Y-80688285D01*
X148219800Y-80573714D01*
X148219798Y-80573709D01*
X148160491Y-80470987D01*
X148160490Y-80470986D01*
X148160489Y-80470984D01*
X148098374Y-80408869D01*
X148076700Y-80356543D01*
X148076700Y-79097311D01*
X148075402Y-79092468D01*
X148057844Y-79026936D01*
X148057844Y-79026935D01*
X148057843Y-79026932D01*
X148038804Y-78993958D01*
X148021415Y-78963840D01*
X147898944Y-78841369D01*
X151857834Y-78841369D01*
X151857834Y-78993960D01*
X151897324Y-79141339D01*
X151897326Y-79141344D01*
X151944809Y-79223586D01*
X151973619Y-79273486D01*
X152081513Y-79381380D01*
X152213656Y-79457673D01*
X152213657Y-79457673D01*
X152213659Y-79457674D01*
X152287348Y-79477419D01*
X152361038Y-79497164D01*
X152361039Y-79497165D01*
X152361041Y-79497165D01*
X152513629Y-79497165D01*
X152513629Y-79497164D01*
X152661012Y-79457673D01*
X152793155Y-79381380D01*
X152901049Y-79273486D01*
X152977342Y-79141343D01*
X153016833Y-78993960D01*
X153016834Y-78993960D01*
X153016834Y-78841370D01*
X153016833Y-78841369D01*
X153009551Y-78814190D01*
X153005393Y-78798672D01*
X153166834Y-78798672D01*
X153166834Y-80036658D01*
X153169541Y-80050265D01*
X153193752Y-80171987D01*
X153193755Y-80171997D01*
X153246557Y-80299473D01*
X153246558Y-80299475D01*
X153246559Y-80299476D01*
X153323220Y-80414207D01*
X153420792Y-80511779D01*
X153535523Y-80588440D01*
X153535524Y-80588440D01*
X153535525Y-80588441D01*
X153663001Y-80641243D01*
X153663006Y-80641245D01*
X153798341Y-80668165D01*
X153798343Y-80668165D01*
X153936325Y-80668165D01*
X153936327Y-80668165D01*
X154071662Y-80641245D01*
X154199145Y-80588440D01*
X154313876Y-80511779D01*
X154411448Y-80414207D01*
X154488109Y-80299476D01*
X154540914Y-80171993D01*
X154567834Y-80036658D01*
X154567834Y-78798672D01*
X154540914Y-78663337D01*
X154519980Y-78612797D01*
X154488110Y-78535856D01*
X154411450Y-78421126D01*
X154411448Y-78421123D01*
X154313876Y-78323551D01*
X154199145Y-78246890D01*
X154199144Y-78246889D01*
X154199142Y-78246888D01*
X154071666Y-78194086D01*
X154071656Y-78194083D01*
X153981028Y-78176056D01*
X153936327Y-78167165D01*
X153798341Y-78167165D01*
X153759976Y-78174796D01*
X153663011Y-78194083D01*
X153663001Y-78194086D01*
X153535525Y-78246888D01*
X153420795Y-78323548D01*
X153323217Y-78421126D01*
X153246557Y-78535856D01*
X153193755Y-78663332D01*
X153193752Y-78663342D01*
X153177704Y-78744023D01*
X153166834Y-78798672D01*
X153005393Y-78798672D01*
X152977343Y-78693990D01*
X152977341Y-78693985D01*
X152901048Y-78561843D01*
X152793155Y-78453950D01*
X152661013Y-78377657D01*
X152661008Y-78377655D01*
X152513629Y-78338165D01*
X152513627Y-78338165D01*
X152361041Y-78338165D01*
X152361039Y-78338165D01*
X152213659Y-78377655D01*
X152213654Y-78377657D01*
X152081512Y-78453950D01*
X151973619Y-78561843D01*
X151897326Y-78693985D01*
X151897324Y-78693990D01*
X151857834Y-78841369D01*
X147898944Y-78841369D01*
X145465535Y-76407960D01*
X145443862Y-76355636D01*
X145465536Y-76303310D01*
X145489541Y-76287270D01*
X145559145Y-76258440D01*
X145673876Y-76181779D01*
X145771448Y-76084207D01*
X145848109Y-75969476D01*
X145900914Y-75841993D01*
X145927834Y-75706658D01*
X145927834Y-74768673D01*
X153166834Y-74768673D01*
X153166834Y-75706656D01*
X153193752Y-75841987D01*
X153193755Y-75841997D01*
X153246557Y-75969473D01*
X153306416Y-76059059D01*
X153323220Y-76084207D01*
X153420792Y-76181779D01*
X153535523Y-76258440D01*
X153535524Y-76258440D01*
X153535525Y-76258441D01*
X153643849Y-76303310D01*
X153663006Y-76311245D01*
X153798341Y-76338165D01*
X153798343Y-76338165D01*
X153936325Y-76338165D01*
X153936327Y-76338165D01*
X154071662Y-76311245D01*
X154199145Y-76258440D01*
X154313876Y-76181779D01*
X154411448Y-76084207D01*
X154488109Y-75969476D01*
X154540914Y-75841993D01*
X154567834Y-75706658D01*
X154567834Y-74768672D01*
X154540914Y-74633337D01*
X154540912Y-74633332D01*
X154488110Y-74505856D01*
X154411450Y-74391126D01*
X154411448Y-74391123D01*
X154313876Y-74293551D01*
X154199145Y-74216890D01*
X154199144Y-74216889D01*
X154199142Y-74216888D01*
X154071666Y-74164086D01*
X154071656Y-74164083D01*
X153981028Y-74146056D01*
X153936327Y-74137165D01*
X153798341Y-74137165D01*
X153759976Y-74144796D01*
X153663011Y-74164083D01*
X153663001Y-74164086D01*
X153535525Y-74216888D01*
X153420795Y-74293548D01*
X153323217Y-74391126D01*
X153246557Y-74505856D01*
X153193755Y-74633332D01*
X153193752Y-74633342D01*
X153171279Y-74746321D01*
X153167284Y-74766413D01*
X153166834Y-74768673D01*
X145927834Y-74768673D01*
X145927834Y-74768672D01*
X145900914Y-74633337D01*
X145900912Y-74633332D01*
X145848110Y-74505856D01*
X145771450Y-74391126D01*
X145771448Y-74391123D01*
X145673876Y-74293551D01*
X145559145Y-74216890D01*
X145559144Y-74216889D01*
X145559142Y-74216888D01*
X145431666Y-74164086D01*
X145431656Y-74164083D01*
X145341028Y-74146056D01*
X145296327Y-74137165D01*
X145158341Y-74137165D01*
X145119976Y-74144796D01*
X145023011Y-74164083D01*
X145023001Y-74164086D01*
X144895525Y-74216888D01*
X144780795Y-74293548D01*
X144683217Y-74391126D01*
X144606557Y-74505856D01*
X144553755Y-74633332D01*
X144553752Y-74633342D01*
X144531279Y-74746321D01*
X144527284Y-74766413D01*
X144526834Y-74768673D01*
X144526834Y-75706656D01*
X144553752Y-75841987D01*
X144553755Y-75841997D01*
X144606557Y-75969473D01*
X144606558Y-75969475D01*
X144606559Y-75969476D01*
X144654152Y-76040704D01*
X144665201Y-76096251D01*
X144633735Y-76143344D01*
X144578187Y-76154393D01*
X144573473Y-76153294D01*
X144559311Y-76149500D01*
X144559309Y-76149500D01*
X144440691Y-76149500D01*
X144440689Y-76149500D01*
X144326117Y-76180199D01*
X144326112Y-76180201D01*
X144223390Y-76239508D01*
X144139508Y-76323390D01*
X144080201Y-76426112D01*
X144080199Y-76426117D01*
X144049500Y-76540688D01*
X132670942Y-76540688D01*
X132650941Y-76492402D01*
X132535977Y-76320345D01*
X132389655Y-76174023D01*
X132360276Y-76154393D01*
X132217598Y-76059059D01*
X132026420Y-75979870D01*
X132026413Y-75979868D01*
X131873516Y-75949455D01*
X131823465Y-75939500D01*
X131616535Y-75939500D01*
X131576385Y-75947486D01*
X131413586Y-75979868D01*
X131413579Y-75979870D01*
X131222401Y-76059059D01*
X131050345Y-76174022D01*
X131050344Y-76174024D01*
X130904024Y-76320344D01*
X130904022Y-76320345D01*
X130789059Y-76492401D01*
X130709870Y-76683579D01*
X130709868Y-76683586D01*
X130669500Y-76886535D01*
X130450500Y-76886535D01*
X130450500Y-73640891D01*
X130450782Y-73634442D01*
X130455523Y-73580253D01*
X130669500Y-73580253D01*
X130669500Y-75319746D01*
X130681133Y-75378232D01*
X130710608Y-75422343D01*
X130725448Y-75444552D01*
X130761592Y-75468703D01*
X130791767Y-75488866D01*
X130791768Y-75488866D01*
X130791769Y-75488867D01*
X130850252Y-75500500D01*
X130850254Y-75500500D01*
X132589746Y-75500500D01*
X132589748Y-75500500D01*
X132648231Y-75488867D01*
X132714552Y-75444552D01*
X132758867Y-75378231D01*
X132770500Y-75319748D01*
X132770500Y-73580252D01*
X132758867Y-73521769D01*
X132714552Y-73455448D01*
X132675719Y-73429500D01*
X132648232Y-73411133D01*
X132648233Y-73411133D01*
X132618989Y-73405316D01*
X132589748Y-73399500D01*
X130850252Y-73399500D01*
X130821010Y-73405316D01*
X130791767Y-73411133D01*
X130725449Y-73455447D01*
X130725447Y-73455449D01*
X130681133Y-73521767D01*
X130669500Y-73580253D01*
X130455523Y-73580253D01*
X130456405Y-73570168D01*
X130458252Y-73549059D01*
X130464361Y-73479226D01*
X130466598Y-73466542D01*
X130506087Y-73319165D01*
X130510492Y-73307060D01*
X130574978Y-73168770D01*
X130581416Y-73157619D01*
X130668931Y-73032635D01*
X130677212Y-73022766D01*
X130785101Y-72914877D01*
X130794970Y-72906596D01*
X130919954Y-72819081D01*
X130931105Y-72812643D01*
X131069395Y-72748157D01*
X131081500Y-72743752D01*
X131228877Y-72704263D01*
X131241561Y-72702026D01*
X131377391Y-72690142D01*
X131396778Y-72688447D01*
X131403227Y-72688165D01*
X131416408Y-72688165D01*
X162483592Y-72688165D01*
X162496773Y-72688165D01*
X162503222Y-72688447D01*
G37*
%TD.AperFunction*%
%TD*%
M02*
