%TF.GenerationSoftware,KiCad,Pcbnew,10.0.1*%
%TF.CreationDate,2026-09-27T15:05:58-04:00*%
%TF.ProjectId,Caravel-Breakout-Pico-Rev-0.0,43617261-7665-46c2-9d42-7265616b6f75,REV 5B*%
%TF.SameCoordinates,Original*%
%TF.FileFunction,Soldermask,Bot*%
%TF.FilePolarity,Negative*%
%FSLAX46Y46*%
G04 Gerber Fmt 4.6, Leading zero omitted, Abs format (unit mm)*
G04 Created by KiCad (PCBNEW 10.0.1) date 2026-09-27 15:05:58*
%MOMM*%
%LPD*%
G01*
G04 APERTURE LIST*
%ADD10C,6.000000*%
%ADD11R,1.700000X1.700000*%
%ADD12C,1.700000*%
%ADD13R,1.000000X1.000000*%
%ADD14C,1.000000*%
%ADD15C,0.650000*%
%ADD16O,1.000000X2.100000*%
%ADD17O,1.000000X1.800000*%
%ADD18C,1.600000*%
%ADD19C,1.100000*%
G04 APERTURE END LIST*
D10*
%TO.C,H1*%
X151077334Y-95837665D03*
%TD*%
D11*
%TO.C,J5*%
X156700000Y-77000000D03*
D12*
X156700000Y-74460000D03*
%TD*%
D13*
%TO.C,J4*%
X145665000Y-126075000D03*
D14*
X144395000Y-126075000D03*
X143125000Y-126075000D03*
X141855000Y-126075000D03*
X140585000Y-126075000D03*
X139315000Y-126075000D03*
%TD*%
D13*
%TO.C,J7*%
X140330000Y-88900000D03*
D14*
X141600000Y-88900000D03*
X142870000Y-88900000D03*
%TD*%
D15*
%TO.C,J6*%
X152437334Y-78917665D03*
X146657334Y-78917665D03*
D16*
X153867334Y-79417665D03*
D17*
X153867334Y-75237665D03*
D16*
X145227334Y-79417665D03*
D17*
X145227334Y-75237665D03*
%TD*%
D13*
%TO.C,J3*%
X137600000Y-91730000D03*
D14*
X137600000Y-93000000D03*
X137600000Y-94270000D03*
%TD*%
D18*
%TO.C,U7*%
X137067634Y-116065165D03*
D19*
X157067634Y-116065165D03*
%TD*%
D11*
%TO.C,J2*%
X162190000Y-127820000D03*
D12*
X162190000Y-125280000D03*
X162190000Y-122740000D03*
X162190000Y-120200000D03*
X162190000Y-117660000D03*
X162190000Y-115120000D03*
X162190000Y-112580000D03*
X162190000Y-110040000D03*
X162190000Y-107500000D03*
X162190000Y-104960000D03*
X162190000Y-102420000D03*
X162190000Y-99880000D03*
X162190000Y-97340000D03*
X162190000Y-94800000D03*
X162190000Y-92260000D03*
X162190000Y-89720000D03*
X162190000Y-87180000D03*
X162190000Y-84640000D03*
X162190000Y-82100000D03*
X162190000Y-79560000D03*
X162190000Y-77020000D03*
X162190000Y-74480000D03*
%TD*%
D11*
%TO.C,J1*%
X131720000Y-74450000D03*
D12*
X131720000Y-76990000D03*
X131720000Y-79530000D03*
X131720000Y-82070000D03*
X131720000Y-84610000D03*
X131720000Y-87150000D03*
X131720000Y-89690000D03*
X131720000Y-92230000D03*
X131720000Y-94770000D03*
X131720000Y-97310000D03*
X131720000Y-99850000D03*
X131720000Y-102390000D03*
X131720000Y-104930000D03*
X131720000Y-107470000D03*
X131720000Y-110010000D03*
X131720000Y-112550000D03*
X131720000Y-115090000D03*
X131720000Y-117630000D03*
X131720000Y-120170000D03*
X131720000Y-122710000D03*
X131720000Y-125250000D03*
X131720000Y-127790000D03*
%TD*%
M02*
